<svg width="310" height="175" fill="none" xmlns="http://www.w3.org/2000/svg">
  <g opacity=".3" clip-path="url(#a)" fill-rule="evenodd" clip-rule="evenodd" fill="#DEB905">
    <path d="M310 37c0 8-4 14-13 9-3-3-2-6-1-9 5-6 9-5 14 0Zm0 33c-1 10-7 11-15 5 2-10 8-13 15-5Zm-1 31c1 6-2 13-10 9-4-2-3-5-2-9 4-5 7-4 12 0Zm0 32c-1 10-6 13-13 6 0-10 6-12 13-6Zm-1 32c0 8-4 11-11 6 0-8 4-11 11-6Zm-13-80c0 6-1 7-5 11-5 0-9-1-11-5-1-12 8-12 16-6Zm-1-32c0 11-6 13-15 7 0-11 6-14 15-7Zm-1 65c-1 10-6 10-13 4 1-9 6-10 13-4Zm0 32c-1 9-6 10-12 4 1-8 5-10 12-4Zm-14-81c-2 11-9 13-16 6 1-10 8-13 16-6Zm0 33c-1 8-11 15-16 5 0-11 9-13 16-5Zm-2-65c0 7-4 13-11 8-3-3-2-2-1-7 4-6 6-5 12-1Zm0 97c-2 9-6 10-13 4 2-9 6-10 13-4Zm0 32c-1 6-4 11-10 7-3-1-4-4-2-7 5-5 7-4 12 0ZM262 52c0 11-6 15-15 8 0-11 6-14 15-8Zm0 32c0 10-5 15-14 9-6-12 7-14 14-9Zm0 33c0 7-6 16-13 9-4-5 0-10 3-13 5 0 6 1 10 4Zm-1 32c0 9-5 12-12 7-1-9 4-14 12-7ZM247 38c-1 10-17 14-16 2 1-10 11-9 16-2Zm-1 63c-1 11-7 13-15 6 0-11 8-13 15-6Zm0 32c-1 10-7 13-15 7 0-10 8-15 15-7Zm-1-64c1 10-5 13-13 6 0-9 7-13 13-6Zm-2 96c1 8-3 11-9 6 0-6 4-11 9-6ZM230 54c-1 13-18 11-13 0 2-7 10-5 13 0Zm0 63c-1 9-6 14-15 7 0-10 7-15 15-7Zm-1 33c-1 5-1 9-7 8-2 0-6-1-6-3 0-10 6-11 13-5Zm0-65c0 6-2 11-8 9-10-3-3-16 8-9Zm-16-48c1 7-7 16-13 7-6-10 8-15 13-7Zm0 96c-1 10-5 13-13 6-1-10 7-11 13-6Zm0-64c0 6-2 10-8 9-9-3-3-16 8-9Zm0 32c0 9-5 12-13 7 0-9 5-14 13-7Zm0 65c-2 9-6 10-13 5 2-9 6-11 13-5ZM197 52c-1 5-1 6-4 10-1 0-9 0-9-3 0-8 6-14 13-7Zm0 33c-1 8-5 12-13 7 0-9 5-14 13-7Zm0 64c0 9-5 12-13 7 0-8 6-14 13-7Zm-2-31c0 6-3 8-9 5 0-6 4-11 9-5Zm-14-80c-1 6-8 13-13 5 1-8 7-13 13-5Zm0 31c0 10-15 12-13 2 1-6 10-8 13-2Zm0 97c0 5 0 5-4 9-1 0-9 0-9-3 0-7 9-14 13-6ZM165 53c0 6-3 14-10 8-4-2-3-2-3-7 5-6 7-5 13-1Zm-1 33c-1 3-1 8-5 8-2 0-6-2-6-4 0-8 5-10 11-4Zm0 64c0 7-5 10-11 6 0-8 4-13 11-6Zm-1-32c0 6-9 9-9 4 0-7 4-8 9-4Zm-14-80c-1 10-6 10-13 4 1-9 6-10 13-4Zm-1 32c-1 3-1 8-5 7-2 0-6-1-6-3 0-8 5-9 11-4Zm0 64c0 8-5 10-11 6 0-8 4-13 11-6Zm-1-33c0 8-3 10-9 6 0-6 4-11 9-6Zm-15-47c-1 5-7 12-11 4 0-8 5-10 11-4Zm0 63c0 10-4 11-12 6 0-9 6-9 12-6Zm-1-32c1 8-3 11-9 6 0-6 4-11 9-6Zm0 65c0 6-9 9-9 4 0-7 4-8 9-4ZM117 5c1 10-5 13-13 7 0-9 5-15 13-7Zm0 161c0 6-5 12-11 6-2-2-1-4-1-7 5-6 8-3 12 1Zm-1-129c0 6-1 10-8 9-8-7-1-14 8-9Zm0 33c-1 5-7 12-11 4 0-7 5-10 11-4Zm0 31c0 6-2 12-9 8-8-3 1-16 9-8Zm0 33c-1 5-7 12-11 4 0-8 5-10 11-4Zm-15 16c0 8-5 11-12 6-5-10 6-12 12-6Zm-1-129c1 5-6 16-11 6-5-9 6-10 11-6Zm0 65c-1 7-4 11-11 6-5-10 6-11 11-6Zm0-33c0 8-4 11-11 6 0-8 3-10 11-6Zm0 64c0 8-4 11-11 7 0-9 3-11 11-7ZM85 5c0 6-2 13-10 9-9-5 1-18 10-9Zm0 129c0 2 0 8-3 8-1 1-10 1-10-3-1-9 7-12 13-5Zm0-65c-1 8-5 12-13 7 0-10 5-12 13-7Zm-1-32c0 8-3 11-11 6 0-8 3-11 11-6Zm0 64c0 8-3 12-11 7-4-8 6-12 11-7Zm0 64c0 10-4 11-12 6 0-8 6-11 12-6ZM69 54c-1 10-7 10-14 5 1-10 8-11 14-5Zm0 63c0 11-6 12-14 6 1-10 6-11 14-6Zm-1-96c1 9-4 12-12 7 0-10 4-13 12-7Zm0 65c-1 6-4 11-10 7-3-3-2-3-1-7 4-6 6-4 11 0Zm0 63c0 6-2 12-9 8-8-3 1-16 9-8ZM53 5c-1 8-5 13-13 7-5-9 7-12 13-7Zm0 32c0 10-5 13-13 6 0-8 5-14 13-6Zm0 64c0 4 1 8-4 10-2 0-9-2-9-5-1-9 6-11 13-5Zm-1-32c0 6-7 15-12 6 0-9 5-11 12-6Zm0 65c-1 7-4 11-11 6-5-9 6-11 11-6Zm-1 32c0 8-10 8-9 1 1-6 6-3 9-1ZM38 21c-1 8-3 10-11 10-9-10 2-19 11-10Zm-1 64c-1 12-6 13-14 5 0-10 7-10 14-5Zm-1-32c0 7-3 14-10 7-4-3-3-5 0-8 4-5 6-2 10 1Zm0 65c-1 6-4 11-10 6-3-2-2-1-1-6 5-5 6-4 11 0Zm-1 31c0 8-4 10-10 5 0-6 5-10 10-5ZM22 4c0 8-6 18-14 9-3-3-2-7 0-10 5-5 10-2 14 1Zm-1 33c0 8-4 13-12 8-3-2-1-4-1-8 5-5 8-4 13 0Zm0 32c0 8-4 15-12 8-7-7 4-16 12-8Zm-1 32c0 6-7 15-12 6 0-9 5-11 12-6Zm0 33c0 7-5 9-11 6-4-8 6-11 11-6Zm-1 32c0 7-10 9-10 4 1-7 5-8 10-4ZM6 22c0 5 0 5-4 9-4 1-9 1-11-4-2-11 9-13 15-5Zm0 32C4 64-2 66-9 60c0-11 8-14 15-6ZM4 85c1 9-4 12-12 6 0-9 4-11 12-6Zm0 32c0 8-4 11-11 6 0-6 5-13 11-6Zm-1 32c0 8-4 10-10 5 1-6 5-10 10-5Z"/>
  </g>
  <defs>
    <clipPath id="a">
      <path fill="#fff" transform="translate(-152)" d="M0 0h462v175H0z"/>
    </clipPath>
  </defs>
</svg>
