<svg width="333" height="171" fill="none" xmlns="http://www.w3.org/2000/svg">
  <g opacity=".3" clip-path="url(#a)" fill-rule="evenodd" clip-rule="evenodd" fill="#DEB905">
    <path d="M340 51c0 4 0 6-3 10-2 0-9 0-9-3 0-8 6-14 12-7Zm0 32c-1 8-4 12-12 7 0-9 5-14 12-7Zm0 62c1 9-4 13-12 7 0-7 6-14 12-7Zm-1-30c0 6-3 9-9 5 0-5 4-10 9-5Zm-14-78c-1 6-8 13-12 5 1-8 6-12 12-5Zm0 31c0 10-14 12-13 2 2-7 10-9 13-2Zm0 94c0 5 0 5-4 9-1 0-8 0-8-3-1-7 8-14 12-6ZM310 52c0 6-4 13-11 8-3-3-2-3-2-7 5-6 7-5 13-1Zm-2 32c0 3 0 8-5 7-1 0-5-1-5-3 0-7 5-10 10-4Zm0 62c0 8-4 10-10 6 0-8 4-12 10-6Zm0-31c0 7-10 10-10 4 1-7 5-7 10-4Zm-14-78c-1 10-6 10-13 5 1-10 6-11 13-5Zm-1 31c-1 3-1 8-5 8l-6-3c0-8 5-9 11-5Zm0 63c0 7-5 9-11 5 0-7 4-12 11-5Zm-1-32c0 8-3 10-9 6 0-6 4-12 9-6Zm-15-46c-1 5-7 12-10 4 0-8 5-10 10-4Zm0 62c0 9-4 11-11 5-1-9 5-9 11-5Zm0-32c0 8-4 10-10 6 0-6 4-11 10-6Zm0 63c0 7-10 10-10 4 1-7 4-7 10-4ZM263 5c0 9-6 12-13 7 0-9 5-15 13-7Zm0 157c0 6-6 12-11 6-3-2-1-4-1-7 4-6 7-3 12 1Zm-2-126c1 6 0 9-7 8-8-6-1-13 7-8Zm0 32c0 5-6 12-10 5 0-8 5-10 10-5Zm0 30c1 7-1 12-8 9-8-3 1-16 8-9Zm0 33c0 5-6 12-10 4 0-7 5-9 10-4Zm-14 15c0 8-5 11-12 7-5-11 6-12 12-7Zm-1-126c1 6-6 16-11 7s6-10 11-7Zm0 64c-1 7-4 11-11 6-5-9 6-11 11-6Zm0-32c0 8-4 10-11 6 0-9 4-10 11-6Zm0 63c0 7-4 10-11 6 0-8 3-11 11-6ZM231 5c1 6-2 13-10 9-8-5 2-18 10-9Zm0 126c0 1 0 8-2 8s-10 0-10-3c-1-9 7-12 12-5Zm0-63c-1 7-5 12-12 6 0-9 4-11 12-6Zm-1-32c0 8-3 11-10 7 0-9 2-12 10-7Zm0 62c0 8-3 12-10 7-4-7 5-12 10-7Zm0 64c0 9-4 10-11 5 0-8 6-11 11-5ZM216 53c-2 9-7 10-13 5 0-11 7-11 13-5Zm0 62c0 10-6 11-13 5 0-10 5-11 13-5Zm-1-95c0 9-4 12-12 7 0-9 4-12 12-7Zm0 64c-1 6-4 11-10 6-3-2-2-2-1-6 4-5 6-4 11 0Zm0 61c0 6-2 12-9 9-8-4 1-16 9-9ZM200 5c-1 8-5 12-12 7-5-9 6-12 12-7Zm0 31c0 9-5 12-13 7 0-9 6-15 13-7Zm0 63c0 4 1 8-4 9-2 1-9-1-9-4 0-9 7-11 13-5Zm0-31c-1 5-8 14-12 5 0-9 4-10 12-5Zm0 63c-1 7-5 10-12 6-5-9 6-11 12-6Zm-2 31c0 8-9 8-8 1 1-5 5-3 8-1ZM185 21c-1 8-2 9-10 9-9-9 1-18 10-9Zm0 62c-1 11-6 12-14 5 0-9 7-10 14-5Zm-1-32c0 7-3 14-11 8-3-3-2-5 1-9 4-4 6-2 10 1Zm0 64c-1 6-4 11-10 7-3-3-2-2-2-7 5-5 7-4 12 0Zm-1 31c0 7-4 9-10 5 0-6 5-10 10-5ZM170 4c-1 8-6 17-14 9-2-3-2-8 0-10 5-5 10-2 14 1Zm-1 32c0 7-4 13-11 8-3-2-2-4-2-8 5-5 8-4 13 0Zm0 31c0 8-4 15-12 8-7-6 4-16 12-8Zm-1 32c0 6-7 14-12 6 0-9 5-11 12-6Zm0 32c-1 7-5 9-10 5-5-7 5-10 10-5Zm-1 31c0 7-9 9-9 4 0-7 4-7 9-4ZM154 21c0 5 0 6-3 10-5 0-10 0-11-5-2-10 9-12 14-5Zm0 32c-1 9-7 11-15 5 0-10 8-13 15-5Zm-1 30c0 8-5 12-12 6 0-9 4-11 12-6Zm-1 31c0 8-4 11-11 6 0-6 5-12 11-6Zm-1 32c0 7-3 9-9 5 0-6 4-10 9-5ZM139 4c-1 9-6 16-15 9-5-11 8-16 15-9Zm-1 32c-1 8-5 14-13 8-5-10 6-15 13-8Zm-1 32c0 6-4 13-11 7-2-2-2-5 0-8 4-5 7-2 11 1Zm0 94c1 10-6 10-12 5 0-11 6-10 12-5Zm0-62c-1 3-1 7-5 7-2 0-6-1-6-3 0-8 4-10 11-4Zm-1 31c0 7-4 9-10 5-4-8 5-10 10-5ZM123 20c-1 10-7 14-15 8 0-11 6-15 15-8Zm-1 31c0 9-5 14-13 8 0-9 5-15 13-8Zm0 32c-1 7-9 14-13 5 0-9 7-11 13-5Zm0 65c0 9-13 8-13 3 0-10 11-12 13-3Zm-1-33c0 4 0 8-5 8-2 0-6-1-6-3 0-9 5-10 11-5ZM108 5c-2 11-8 13-16 6 1-11 8-13 16-6Zm0 31c-1 10-8 14-15 6 0-10 7-13 15-6Zm-1 32c-1 5-1 9-7 9-4-1-7-1-6-6 0-10 8-8 13-3Zm-1 63c0 6-5 14-11 6-2-3-3-7 0-9 5-3 8 0 11 3Zm0-33c0 6-3 13-10 8-3-2-3-5-1-8 3-4 7-2 11 0Zm-1 64c0 8-4 11-11 6 0-7 5-13 11-6ZM92 52c-1 6-1 11-8 10-2 0-7-2-7-4 1-11 7-14 15-6Zm-1-32c1 10-5 14-14 8 0-11 5-15 14-8Zm0 63c0 7-3 10-9 9-9-7 0-17 9-9Zm0 32c-1 3 0 7-3 9-5 2-11-2-11-7 1-9 9-6 14-2Zm-2 30c1 6-1 12-8 9-8-4 1-16 8-9ZM76 36c0 5 0 6-4 10-5 0-11 0-11-7 1-10 9-8 15-3Zm0-31c0 10-7 13-15 7 0-11 7-15 15-7Zm0 63c-1 6-9 16-14 6-4-11 8-12 14-6Zm-1 31c-1 11-6 12-14 5 0-10 8-11 14-5Zm-1 32c-1 7-4 10-11 6-5-9 6-11 11-6Zm-1 31c0 7-3 9-9 5 0-6 4-11 9-5ZM61 21c-1 5-1 10-8 10-5-1-7-2-7-7 1-10 9-10 15-3Zm-1 31c0 4 0 6-3 9-5 0-11 1-11-6 1-9 9-9 14-3Zm0 32c-1 11-15 12-14 1 1-9 10-6 14-1Zm-1 31c-1 7-5 12-12 6-5-9 6-12 12-6Zm-1 31c-1 5-7 13-11 5 1-8 5-9 11-5ZM46 6c-1 6-3 11-10 8-4-1-4-3-4-7 1-9 10-7 14-1Zm-1 31c0 9-5 11-13 6 0-10 7-13 13-6Zm-1 63c0 3 0 7-5 7-2 0-6-1-6-3 0-9 5-10 11-4Zm1-33c0 5-2 11-8 7s1-14 8-7Zm-2 64c0 6-9 9-9 4 0-7 4-8 9-4ZM30 53c-1 4-1 9-7 8-4-1-7-2-6-6 0-9 9-9 13-2Zm-1-33c1 10-4 14-13 7 0-8 6-15 13-7Zm0 63c-1 11-14 11-12 2 2-6 9-7 12-2Zm-1 32c0 7-3 9-10 5 0-7 3-10 10-5Zm0 31c0 7-10 10-10 4 1-7 5-7 10-4ZM14 6C13 16-2 19 0 7c2-9 10-7 14-1Zm0 31c0 5 0 9-7 9-2-1-6-2-6-4-1-10 7-12 13-5Zm0 31c0 7-2 11-9 8-4-1-5-2-4-6 1-9 9-7 13-2Zm-1 32c0 7-6 8-11 4 0-6 7-12 11-4Zm-1 31c0 6-10 9-10 4 1-7 5-8 10-4Z"/>
  </g>
  <defs>
    <clipPath id="a">
      <path fill="#fff" d="M0 0h451v171H0z"/>
    </clipPath>
  </defs>
</svg>
