<svg width="479" height="533" fill="none" xmlns="http://www.w3.org/2000/svg">
  <g clip-path="url(#a)" fill="#F6F4F4">
    <path d="m345 193 2-2-1-1-2 2 1 1Zm-55-22 2-2-1-1-3 2 2 1Zm12-27-1-1-2 2 1 1 2-2Zm-11-8-1-1-4 4 1 1 4-4Zm-28 7-1-1-2 1 1 1 2-1Zm-9 7-1-1-2 1 1 1 2-1Zm11-26-1-1-3 2 1 1 3-2Zm-33 10-1-1-2 2 1 1 2-2Zm-15 13-1-2-2 2 1 1 2-1Zm18-32-1-1-2 1 1 1 2-1Zm-21 17-1-1-3 2 1 1 3-2Zm-15 13-2-1-8 7 1 1 9-7Zm-31 24 18-14-1-1-18 14 1 1Zm-13-6 26-21-1-1-26 21 1 1Zm-4 4 2-2-1-1-2 2 1 1Zm15-29-1-1-15 12 1 1 15-12Zm-23 17 1 1 4-4-1-1-4 4Zm-12 11 2-1-1-2-2 2 1 1Zm30-41-1-1-2 2 1 1 2-2Zm-13 11-1-1-2 1 1 1 2-1Zm-4 3-1-1-2 2 1 1 2-2Zm-13 11-1-1-2 1 1 2 2-2Zm315 263-6 4-2-1-1 1 1 2-8 6 2 1 15-12-1-1Zm-35 28 1 1 2-2-1-1-2 2Zm26-38-3 3-1-1 1 1h-2v1l-9 7-2-1-1 1 1 2-4 3 1 1 20-16-1-1Zm-37 30 1 1 2-1-1-2-2 2Zm6-22-1-1c-1 0-2 0-1 1l1 1-7 6 1 1 10-8-1-2-2 2Zm0-16 1 1 1-1v1l2 2 1-2-2-1h-1l3-3-1-1-4 4Zm-39 32 1 1 7-6-1-1-7 6Zm17-31-11 9-2-1c-1-1-1 0-1 1l1 1-13 11 1 1 26-21-1-1Zm-43 19 1 1 2-2-1-1-2 2Zm-39 15 1 1 2-2-1-1-2 2Zm1-18-4 3 1 1 4-3-1-1Zm-10 8 1 1 2-1-1-1-2 1Zm-7-11 1 1 2-2-1-1-2 2Zm-20-1 1 1 2-1-1-1-2 1Zm-13 11 1 1 2-2-1-1-2 2Zm-15 12 1 1 4-3-1-1-4 3Zm19-32 1 1 2-2-1-1-2 2Zm-1 3-1-1-2 1 1 2 2-2Zm-7 4 1 1 2-2-1-1-2 2Zm-13 11 1 1 10-9-1-1-10 9Zm1-19-10 9 1 1 10-9-1-1Zm22-205-2-1c-1-1-2 0-1 1l1 2 1-1h1v-1Zm-11-3-1 1 2 2 1-1-2-2Zm-15-1-1-2-2 1 2 2 1-1h1-1s1 0 0 0Zm-10-4-1 2 2 1 1-1-2-2Zm2 9-1 1 2 2 1-2-2-1Zm-10-10c-1 0-2 0-1 1l2 2 1-1-2-2Zm-9-2-1 1 2 2c1 0 2 0 1-1l-2-2Zm3 9c-1-1-2 0-2 1l2 2c1 0 2-1 1-2l-1-1Zm-19-12-2 1 2 2c1 0 2 0 1-1l-1-2Zm2 9c-1-1-2 0-1 1l2 2 1-2-2-1Zm-20-11 2 2 1-1-2-2-1 1-1-1v1h1Zm3 7-1 2 2 1c1 1 1 0 1-1l-2-2Zm-11-10-1 2 2 2c1 0 2-1 1-2l-2-2Zm-8-1-1 1 2 2 1-1-2-2Zm3 11 1-1-2-2-1 1 2 2Zm-11-10 2-1-2-2-1 1 1 2Zm-8-1c1 0 2-1 1-2l-2-1-1 1 2 2Zm2 5-2 1 2 2c1 0 2 0 1-1l-1-2Zm-10-7 1-1-2-2-1 1 2 2Z"/>
    <path d="m132 178 1 1-5 5 1 1 20-16-1-1-13 10-2-1c-1-1-1 0-1 1Zm-9-11-2 1 2 2c1 0 2-1 1-2l-1-1Zm1 9 2 2 1-1-2-2c-1 0-2 0-1 1Zm2 9 2 1 1-1-2-2-1 2Zm-9-2 2 2c1 0 2 0 1-1l-2-2h-1 1l-1 1Zm5 10 1-1-2-2-1 1 2 2Zm-11-10 1-1-2-2-1 1 2 2Zm-38-23 1-1-2-2-1 2 2 1Zm0 7 2 2c1 0 2-1 1-2l-2-1-1 1Zm-8-8 1-1-2-2-1 1 2 2Zm0 6 2 2 1-1-2-2-1 1Zm-9-8c1 0 2 0 1-1l-1-2-2 1 2 2Zm1 7 1 2 2-2-2-1c-1-1-2 0-1 1Zm2 8 2 2 1-1v-1h-1l-1-1-1 1Zm2 9v1l-1-1-3 1h-2l1 1h4l2 1 3 1h1l-2-1-1-2 1-1-2-2-1 2Zm5 9-2-2-1 1 2 2 1 2 1-1h1l-1-1h-1v-1Zm-18-34 1-2-2-1c-1-1-1 0-1 1l2 2Zm0 6 2 2 1-1-2-2-1 1Zm2 9 2 1c1 1 2 0 1-1l-2-2-1 2Zm3 8 1 2 2-1-2-2c-1 0-2 0-1 1Zm5 9-2-2-1 1 2 2 1-1Zm1 10 1-2-2-1c-1-1-1 0-1 1l2 2Zm2 8 1-1-2-2-1 1 2 2Zm-21-52 1-1-2-2c-1 0-2 0-1 1l2 2Zm0 7 2 2 1-2-2-2-1 2Zm2 8 2 2 1-1-2-2-1 1Zm2 8 2 2 1-1-2-2-1 1Zm4 11c1 0 2-1 1-2l-2-1-1 1 2 2Zm2 8 2-1-2-2c-1 0-2 0-1 1l1 2Zm412 187 1-1-2-2-1 1 2 2Zm2 9 1-2-2-1c-1-1-1 0-1 1l2 2Zm3 7-2-2-1 1 2 2 1-1Zm2 8-1-2-2 2 2 2c1 0 2-1 1-2Zm3 9-2-2c-1 0-2 0-1 1l1 2 2-1Zm0 6c-1 0-2 1-1 2l2 1 1-1-2-2Zm-17-35c-1 0-2 0-1 1l1 2 2-1-2-2Zm6 19-2-2-1 1 2 2 1-1Zm2 8-2-2-1 2 2 1c1 1 1 0 1-1Zm0 7-1 1 2 2 1-1-2-2Zm-10-17-2-2c-1 0-2 1-1 2l-1 1h2c1 1 2 0 2-1Zm2 9-2-2-1 1 2 2 1-1Zm0 6-1 1 2 2 1-1-2-2Zm-11-10-1 1 2 2c1 0 2 0 1-1l-2-2Zm3 9c-1-1-2 0-1 1l1 2c1 0 2-1 1-2l-1-1Zm-11-10c-1-1-1 0-1 1l2 2 1-2-2-1Zm-4 8-2-2-1 2 2 2 1-2Zm-11-10-2-1-1 1 2 2 1-1h1-1v-1Zm-9 0 1-1-2-2h-2l-4 1h5l2 2Zm1 5-1 2 2 1c1 1 1 0 1-1l-2-2Zm-12-15c1 0 2 0 1-1l-2-2-1 1 2 2Zm3 7-1-2-2 2 2 1c1 1 2 0 1-1Zm-10-3-1 1 2 2 1-1-2-2Z"/>
    <path d="M398 410v-1h3l-4-1h-2l-2 1h-1v-1l13-10-1-1-14 11-2-1-1 1a3 3 0 0 0 1 1l-12 11 1 1 13-11 2-1h3a1 1 0 0 0 0 1l2 1 1-1Zm-12-12-1 2 2 1 1-1-2-2Zm-11-10-1 2 2 1c1 1 1 0 1-1l-2-2Zm3 12 1-1-2-2-1 1 2 2Zm2 8 2-1-2-2-1 1 1 2Zm-16-3 1-1-2-2c-1 0-2 0-1 1l2 2Zm-12-13-1 1 2 2 1-1-2-2Zm-7 2 1-2-2-2-1 2 2 2Zm2 8 1-1-2-2-1 1 2 2Zm-11-10c1 0 2 0 1-1l-1-2-2 1 2 2Zm-8-2c1 1 1 0 1-1l-2-2-1 2 2 1Zm1 6-1 1 2 2 1-1-2-2Zm-8-8-2-2c-1 0-2 0-1 1l2 2 1-1Zm-8 5-2 1 2 2 1-1-1-2Zm-12-16 1-1-2-2c-1 0-2 1-1 2l2 1Zm-5 13c-1-1-2 0-1 1l2 2 1-2-2-1Zm-13-19-1 1 2 2 1-1-2-2Zm-4 15-1 2 2 2 1-2-2-2Zm-8-1c-1 0-2 0-1 1l1 2 2-1-2-2Zm-9-2-1 2 2 1c1 1 1 0 1-1l-2-2Zm112-189ZM21 242Zm109 127Zm-22-24Zm181-150c-1 0-1 0 0 0h-1 1Zm86 0ZM74 161Zm220 235c0 1 0 1 0 0 0 1 0 0 0 0Zm78-9Zm-30-190ZM124 369Z"/>
    <path d="m421 391-3-1h-1v-1l1 1v-2l-6-1-3 2h-1v-1l-1-2-2 1 2 2h-1l-2 1-13 1-1-1-1 2h-3a1 1 0 0 0-1 0l-1-2-2 1 1 1h-3l-1 1h-9l-1 1h-1l6-5-1-1-8 6h-3l-1-1-2 2h-5l-6 1h12l1 1 2-1 1-1-8 7-1-2-2 2a3 3 0 0 0 2 1l-10 8 1 1 20-17h2v1l2 2 1-1-1-2h9a15 15 0 0 0 5-1 4 4 0 0 1 1 0h1l1 1 2-1 2-1 2 1c1 1 1 0 1-1h2l2-1h10l-1-1 5-1 1 1h-1l3 1h4l3-1h-1Zm-14 0c-1 0 0 0 0 0Zm6-1 1-1 1 1h-2ZM348 396Zm74-5ZM65 319ZM59 317h-1l-3-1-2-1h-1l-3-1h-3l-1-1-1-1v-1h-1l-1-2h1l-1-2-2-2-1-1-2-1v2l-1 1 3 1v1h-1l2 3-2-1h-4l2 2h4l1 1h1l1 1 1 2v-2l3 1h3l3 1h1l1 1h2l3 1h1l1 1h3l-2-1-4-1Zm-19-8h1v1l-1-1Zm-1-3h-1v-1l2 1 1 2-2-2Zm340-119 7-1h6a49 49 0 0 1 8-1h5l-1-1h-7l-2 1h-2l-10 1-6 1-5 1h1a72 72 0 0 0 6-1ZM372 188Zm-50 0h2l1 1h1l1 1 2-1c1 1 1 0 1-1l6 1h5-3l-9-2h-3l-2-1h-3l-1-1v1l2 2Zm7 1h-2 2Zm-3-1ZM124 369h1-1Zm0-1 3 2h5l-2-1-2-1-3-1-2-2h-1l-1 1-1-2h-1l-1 1c-1-1 0-3-2-4v1l2 4h1l3 2 2 1v-1Zm0 0v-1 1Zm172-207ZM298 161l4 1 5 1 9 1h1l-1-1h-1l-6-1-3-1h-5l-3-1-2 1h2Zm18 2Zm131 169Zm15 0Zm-17 1 1 1h12v1h1l1-1a10 10 0 0 0-1 0l1-1h3l-1-1h-1l1 1h-11l-4-1v1h-2Zm-34 63 5 1 2 2 1-1-1-2 6-1v-2h-2l-2 1-5 1-2 1h-2Zm-307-59c0 1-2 1-1 3l-3-1v1l2 1 2 1 4 1-1-2h-1l-2-4ZM107 341s0-1 0 0ZM37 222l1 1 2 2 4 1h1l-2-1 5 1h1l-3-2h-1l-4-1-4-1Zm413 115 4 1h3a7 7 0 0 1 2 0l1-2h-5l-5 1h-2a2 2 0 0 0-1 0h3Zm-3 0Zm-77-147-1-1h1l1-1h-8l-2 1h-5v1l4-1h4l7 3-1-2Z"/>
    <path d="M371 192Zm-16 196ZM68 166l2 2 3 1h1l-3-2-1-3h-3l1 1v1Zm309 27Zm1 1h1l-1 1h9l-1-1h-3l-4-1h-2l1 1Zm12 202-4 1h2a3 3 0 0 1 2 0l3 1 4-1h2-1l-5-1h-3ZM21 242h-1c-3 0-4-1-7-3l1 1 1 2 3 1a13 13 0 0 1 3 1v-2Zm410 11 3-1 1-1-1-1h2c-1-1-2-2-3-1v2l-1 1-2 1h1Zm-185-66Zm0 0-9-1-1 1h10ZM120 370h-1l-3-1c-1 0-2 0-2-2h-1l1 3h2l5 1-1-1Zm180-174ZM72 319l4 3h2l-3-3h-3ZM42 189v-1l-1-1h-3v1l4 1Zm286-16 2 1-1-2-1-1c0-1-1-2-2-1h-2 1l3 3ZM43 301l-1 1h3v-2l-2-3-1 1 1 2h1l-1 1Zm45 21Zm-3-1h-4 1l2 1h4l-3-1Zm-38-12h2l1-1-1-1-2-1v1l-1 1 1 1Zm366-88c-1-1-3-1-3-3h-3l2 1 3 2 1 1 2 1v-2h-2ZM56 301l-3-1h-2v1l2 1h3v-1Zm245-109h2l-1-1-3-1h-3l2 1c1-1 2 1 3 1ZM38 207l2-1-3-2v3h1Zm269 190h1-1c1 0 1 0 0 0ZM15 264l1-2-5-1 4 3Zm16 42-2 1 4 2 1 1-2-2a13 13 0 0 0-1-2Zm39-131v-1l-2-2-1 2-2-1 1 1-1 1 2-1 1 1 1 1h2l-1-1Zm308 234 5 1v-1h-5ZM139 159c0 1 0 0 0 0Zm7 0-6-1-1 1h7Zm172 31 1 1 4-1h-5Zm122 137h2l-1-2h-1v2Z"/>
    <path d="M440 325h-1 1ZM312 190h5-5ZM87 317l-1-1c-1-1-2 0-2 1h3Zm138-154 4-1h-4v1Zm221 108v1h1l-1-2c-1-1-2-2-3-1l2 1 1 1ZM38 227h3l-2-1-3-1 2 2Zm-2-2v-1 1Zm391 183 1 1 2-1-1-1v-1 1-1 1l-1-1-2 1h-4 4l1 1Zm-5-1Zm48-64h-5 5Zm-40-77 2-1-3-1 1 2Zm32 136h-6 6Zm-26-149 1 2 2-1h-1l-1-1h-1Zm-55 138v-2h-2l2 2Zm-88-230-4-1 4 1Zm0 0h1-1Zm112 38-2-2-1-1 1 1 1 1 1 1Zm-3-3v1-1ZM95 330l1 1h3l-3-1h-1Zm-84-67 3 1v-1h-3Zm325 133a3 3 0 0 0 0 1h-1 1v-1s1 1 0 0c1 1 0 0 0 0Zm1 1h1a16 16 0 0 0 2 0h-3Zm81-9Zm3 0-2-1-1 1h3Z"/>
    <path d="M415 407a3 3 0 0 0-1 0l5-4h2-2l3-3 3 1 1-1v1h1l1-1 3 2a39 39 0 0 0-1-1l4 1h1c1 1 1 0 1-1h2l2 1h1l2 2 1-1v-1h5l1-2c-1 1-1 2-3 1h-4l-2-1 2-1h4l5-1 4 1h3v-1l-1-2-1-1h-1l-2-1h1l-1-1h-6v1l-2-1 1-1-2-1-1-1v-2h1v-1l2 2h2-1v-1l1 1v-2h4-1v-1h1v1h1l1-2-2-1a11 11 0 0 1-1-1h-4v1h-3l-1-1-1-1h6l-1-2 2-1a9 9 0 0 0-1-1l1 1h2l-1 2 2 1c1 1 2 0 1-1l-1-1h9l-1-1h2v-1l-3-2 6-1v-1h2l-1-3-4-3h3l-1-2h4v-1l-1-1v-2c-1-2-3-2-5-3l4-1h4v-1l-1-1-2-1-4-1-1-1v1l-2-2v-2l-1-1-1-1-1 2h-11c-1 0-3 0-4-2h-5l-3-1 3 2 1 1 2 1h-2v1l-4-1-1-2 2-1h-3l-4-1-2-1 1-2h1l-1-1h1l1 1 2 1 2-1-2-1 1-1h2l-1-1 4-1c2 0 2 0 3-2v-1l2 1 3-1h-3l-1-1 1-2v-2h3l2-1-5-1h-6v-1l2-3a711 711 0 0 1-1-1l1-1-1-4c-2 0-2-1-3-2-2 1-2 1-3-1l3-1v1-2h5l-2-1 2-1h1c1 1 2 0 2-1l1-1h1l-3-4h2l-2-1 1-1 1 1v-1l-4-3 1-2 1-1c-2-2-2-2-1-3a1 1 0 0 0 1 0l-1-3v-1l2 1 2 2-1-2-1-1-1-2 1-1h2l1 1h1l1 1v1-2l-3-4-3-3v1h-1l-2-1-4-3-1-1-5 1h-1l-4-2-1-1h2c3 0 3 0 5-2l1-1h1l2-1v-3l-2 1-2 1h-1l1 1h-4l-2 1h-3v-1l3-2 1-1-2 1h-4c0-1 0 0 0 0l1 1h-1l-4-2s0 1 0 0h-1v-1h4l-1-1h2l1-1-1-1h-1l-1 1-2-1h-1l-1-1a47 47 0 0 0 4-1v-3l1-1-2-1v-1l-1-3v-1l-2-1 4-1h-1v-1c-1-2-1-2 1-2l-1-2-4-1-6-1h-2l-2-2h6l1 1 2 1v-2c1 0 0 0 0 0v-3l-2-3 2-1 5 2h1l-2-2h4l-1-3-3-3-3-1v1l-3-1h-1l1-1 2-1h8l-2-1-1-1-4-1h-1l-1-2h-2l-1 1 1 1-1-1-3-1-1 1h-2a23 23 0 0 1-1-2c0-2 1-2 2-2l2 1v-1l2-1h5a3 3 0 0 0 0-1l3-2h-1l-2-1-2 1-1-1-1-1h2c0-1 1-2-1-4h4l3-1h3l1-1-2-1-1 2-4-1-2-1h2c0-1-1-2-2-1h-13l-12 2h-1l-1 1-1-1-4 1h-3l-3-1h-3l-4-1h-2l-6-1-1-1h7l2-1h1v-1l-2-1 1-4h3l1-1h5l-2-1h1l1-1h-3l1-1-2-1h-7 1v1l-4-1h-3l-2 1-1 1 3 1h-1l-6 1v1l2 1 4-1h3l1 1h-1l-6 1h-6a1 1 0 0 1-1 0h-6l1-1h-1l2-2-1-1-4 3h-5l-2-1h-9a9 9 0 0 0-1 0l2-2v-1h7l7-1 4-1h-11l-4 1h-11l-5-1 1 1-1 1h3l1 1h4l3-1-3 3-7-1h-7l-1 2-3-1 1-1v1h2l-1-2 1-1 2 1 4-1h-6l3-2 8-7-1-1-8 7-2-1 2 1-4 3-3 1h2l-2 2h-7l-1-1h-1v1h-1v-2h-6l5-4h5l-4-1 15-12-1-1-16 13h-6l-4-1h-7l19-16-1-1-19 16h-8 5l1 1-5 4-1 1-2 1h-7l-1 1h-8l-1 1a1 1 0 0 1-1 0h-2l11-9h2l-1-1 31-25-1-2-32 27h-1l-11 10-1-2c-1 0-2 1-1 2h-16l46-38-1-1-24 20-1-1 1 1-19 16-2-2-1 1 1 2-3 2-8-1-4-1h-3l40-33 1 1 2-1h7-9l1-2-1-1-35 29h-4l3 1-2 1-2-1-1 1 1 2-3 2a31 31 0 0 1-1 0l-9-1-4-1h-1l23-19 13-11h1l15-13-1-1-17 14h-1 1l-13 11-18 14-2-1-1 1 2 2-4 3-4-1h-1l-10-2 14-11h1-1l25-21-1-1-35 28-1-1-2 1 2 1-4 4-3-1 2 1-1 1h-1v-1l-1 1h-3l-2-1-2-1c-1 0-2 0-1 1h-6v-1l21-17-1-1-14 11-2-2-1 2 2 1-6 5a2 2 0 0 0-1-1l-1 1v1l-3-1h-1l3 1 1 1-2 1h-2l-8-1h-6l-5-1h-1v-3l-1-1-1-2h-1v2l-3 1h-4l-4-1a2 2 0 0 1-1-1h1l-1-2 1-1v-1l-1-1a4 4 0 0 1 1 0h2v-1l5 2h1v1-1h-1l1-1v1l1 1 1-1h1l2 1 3 1v1h6l-1-1h-2a4 4 0 0 1-1-1v-1h2l-4-3 2-2-1-1 3-2-1-1-4 3h-1l-3-3 1-3 1-1-1-2c0-1 0-2 2-2-1-1 1-1 1-1l3-1h1l1-1h-9c-1 1-1 2-3 1l4-4-3-1-2-1h-2l-3 1h-5l-1 1-2 1-3-1v2h-2l-3-1c-2 1-3 0-5-1h-6l1 1v1l-1 1h-2l-1-1h-1c1 2 1 2-1 2h-1l1 1c2 0 2 0 3 2l-1 1a3 3 0 0 0-1-1v1l2 1v-1h1l3 1 1 1h-3l-1 2 1 1 1-1 4 2-2 1 1 1 3 1 1 1h-1 1l3 1 2 2v1h-3v1h-2l-1-1v-1h3l-3-2h-2l-1 1-3-1-1-2v1c2 2 2 2 1 3h-2v-1l-2-2-1 1v1l-2-1h-1l-1-2v2l-1 1h2l2 1 3 2v1h-1v1l-1 1a3 3 0 0 1-1-1h-3a2 2 0 0 0-1-1l-1 1h-1l-1-1a4 4 0 0 0-2 0v2c1 0 2-1 3 1l-2-1-1 1 1 1 3 1h1l3 1 1 1 2 1h5l2 1 2 1 1 1h-5l-1-1-1 1-2-1h-3v1l-2-2-1 1-3 1 2 1h2l2 2h-1a1 1 0 0 0 0 1l-1 1h-2v-1l-1 1h1-2l-1 1-1-1c-1-1-2 0-1 1l1 1-1 3c1 0 1 0 0 0l1-2 1-1 1 1 1 2v-1l2-1 2 1c0-1 0-1 0 0l1 1a1 1 0 0 1-1 0l-1 2h2l2 2h-7l-1-1-1 1h-1 1v1l1 1c1 1 2 0 2-1h1l1 2v-2h4l-1 1 1 1-1 1-3-1h-2a328 328 0 0 1-11-2h-6l-4-1 1 1-1 1h-2a8 8 0 0 1-3 0l-3-1-1 1h1l1 1h1c1 2 3 2 4 2h2l3 1 2 2 1-1 5 1 1 1v1l-3-1h-4l-4-1 2 2-1 1 3 1 2 1-1 1 2 3h3l4 1 4 1h1l3 1h3l2 1h3l3 1v1a25 25 0 0 1-6-1l-3 1h-4a1 1 0 0 1-1 0h-4l-1-1-1 1-1 1h-2l2 2c-1 0-3-1-3 1l2 1h1l1 1-6-1-3-1h-2l-4-1-1-1h4l2 1 2-1v-1h-3a4 4 0 0 1-2 0h-9l-1 1a4 4 0 0 1-3 0h-2l-1-1-1-2a3 3 0 0 1 0-2v-2l-2-1-1-1v1l-1 2v2l2 3 1 2h-1l-1 1-2-1 2 2 1 1v-1c2 1 2 2 2 3l3 2h-3l-4-4-2 1-2-1 1 1h-3l-6-3h1l1-2c-2-2-3-1-5-1v2l-2-1 1 2 1 1 2 1c3 0 7 1 10 3l1-1 1 1 3 2v1l-2-1h-4l-2-1h-3v1l2 1h-2l-3-1 2-1-6-1 1 1 6 3v1l1 1 2 1 2-1 3 2-2-1h-1l1 2h-2l-1 1 2 1h-4l2 1h2l5 2 2 1v2h-1l2 1h1l3 3h-1l-2 1a34 34 0 0 1-1-1v2h-2l-3-1-2 1-2-1h1c0-2-1-2-2-2l-1 1-1-2c-1 0-2-2-3-1l1 1 4 2 1 2 4 3-3-1-5-2-2-1-4-3 1 3 2 2h-1l2 1v-1l4 2 3 1h3l2 1 2 1 4 3h1l1 2v2l-1-1-1-2h-2l-1-1 2 3-4-2h-1l5 3 2 1h1v1h-1v1l-1-1-2-1v2l-1-1a18 18 0 0 1-2-1l-1-2h-1v2l2 1-6-2-1-2-2 1-2-1h-2l1 1-1 2 1 1 5 1 2 2c-1 0-2 0-1 1h1v1h2l2 1h-1v1l2 2 3 1v-1l2 2h4l1 1h6l1 2v1h1v1l2 2-1 1-3-1a21 21 0 0 0-1-2h1v-1l-2-1h-2l1 1-3-2-2-1-1 2h1l1 1 4 2 1 1 1 1 2 1v2a9 9 0 0 0 2 0l1 1h2l5 3v-1h3l2 1h3l1 1h2c2 1 5 1 7 3l5 1 4 1 3 1 4 6 2 1h-2v1h1l2 1v2l3 5 1 1v-2h1v9l2 1v1l1 2h1v-1 1l1 1 1 2v1h1l2 2h1l1-1h1l1 3-1 1-2 1-1-1-1-1h-1c1 0 1 0 0 0a1 1 0 0 1-1 0l-1-1 1 1v2l1 3 1 1 3 3 3 1 1 2h1l-2-2-2-2 1 1h2v1l1-1s-1 0 0 0l1 2v1l1-1c1 1 1 2 3 2l-1-1v-1l4 1h2l1-1v1l3 2c-1 1 0 2 1 2l1 1 2-1h2l3 2 1 1v-2l3 1 2 1a12 12 0 0 1-1 2v1l-2-1h-3l-1 1h-2l-4-2h-1l-3-1h-1l-2-1-1 1v1l5 4h1l8 1 1 2h-1l-2-1-1 3 1 1 1 3-3-2-2-1 1-1v-1l-2-1h-3l-3-1-2-2 1 3h2l5 2v2c0 2 1 2 2 3l3 1h1l2-1 3 1h2l2 1 5 1h1l5 1h6v1h5a89 89 0 0 0 14 2l3 1a17 17 0 0 1 6-1h5l4 3v-1c1 0 3 2 4 1l1 1 2 1 1 1h5l4-1 1 1h11l2 1h10l2 1h1l7 1h12l4 1h11l4 1h10l-1-1h-4a7 7 0 0 0-3 0c-2 0-4 0-6-2l-1 1h-6l-2-1h-5l-5-1c-1 1-3 1-5-1h-8l-5-1h-9l-3-1h-2l-8-1h-1l1-1v-1h-2l-2-1-4 1 4-3v-1 1l-1-1v-1l-1 1-3 2-2-1h-3v-4l-1 1h-7l1-2h7v-1l3 1h1l5 1h5c1 1 1 2 2 1l3 1h4l6 1h5-1l-1-1 1-1 6 1 6 1h1l1 2-1 1 1 1-3-1h-9a49 49 0 0 0-6-1l-9-1h-8 3a4 4 0 0 0 2 1h5l2 1h2l5 1h6l18 2h5a98 98 0 0 0 6 0l-2-1h-6l-4-1h-7l2-2v-2h7l8 1h4v1l1 1 2-1h17l-5 4v1l-1-1h1-1l-1-1-1 1h-2l2 1 1 1 1 1 3-2h2l-1-1 4-4h1l3 1 1-1c0 1 0 0 0 0l1 1 1-1 5 1 2 2c1 0 2-1 1-2h3l-9 7-2-1-1 1 2 1-3 3h-2 1l1 1h6l-1-1h-3l14-11h18l-13 10-2-1-1 1 1 1v1l1 1 17-14h3l1 1 1-1h2l3 1v-1l2 2c1 0 2 0 1-1v-1h5l-5 4-7 8h-1l-3 3-1-2c-1 0-2 1-1 2a3 3 0 0 0 1 1l-4 3 1 2 10-8 2-1h-2l9-7 1-1 2-2v1l1 1h-2a2 2 0 0 0-1 0l1 1v1h2l1-1h2l5-1 2 2 1-1-2-2h-1l-4 1h-1v-1l-2-2 1-1 3 1h1l2-1h5l1-1 2 1v1h3v1h-1l-3 1h4l4 1 1-1v-1h-3l-1-1 1 1 1-1h3l1-1 2 2-1 1h8v-2h5v1l1 2 2-1-1-1h1v-1h9l1 1h10l3 2h1l-1-1h12l2 1-2 1-4 1h-3l-1-1h-2l1 1-2 1-1-2-2 2h1-1l1 1 1 1 2-1 4 1-1-2h1l1 1 2 2 1-1v-1l1 1 2 1-2 1v1l3 1-3 1h-2l-2-1v2h-4l-1-1c-1 0-2 0-1 1h-5l-1 1h1l-4 4-1-1 1 1-4 3h-1v1l1 1 2-1h1l1-1h-1Zm39-13 1 1h-2l1-1Zm-12-109 1 1-1-1Zm-3 11v-1h-1 1l1 1h-1Zm1 3h1-1Zm1-5h-1l1-1v1Zm-1-8h1v1l-3-2 2 1Zm-10 49Zm5-14Zm-2 1 1 1h-1v-1Zm0-28v1l-1-1h1Zm2 38a7 7 0 0 1 4 1v2l-1 1-3-1v-1h-1l-4-1v-1h5Zm-5 1-1-1 1 1Zm-22-97s0 1 0 0h-1 1Zm6-1Zm-2-5h-1 1Zm-4-7h2v1c1 0 0 0 0 0h-3l1-1Zm-1 8s0-1 0 0h1l5 1a1 1 0 0 1 1 0l1 1h-7l-1-1v-1Zm-4-21 2 2v1l-2-1v-2Zm-32-17v1l-2-1h2ZM61 220l-2-2 4 1-2 1Zm3 0v-1 1Zm1 0v-1h1l-1 1Zm-2-6h1l3 1c-1 1-3 0-4-1Zm-30 14-2-1-1-1c2 0 3 1 3 2Zm-7 19Zm1 2Zm6-11-2-1h1l2 1h-1Zm0 2h2-2Zm-5 21h-1 3-2Zm3 3h-1 1Zm0-2s1 0 0 0c1 0 0 0 0 0Zm-6 13-1 1h-1a10 10 0 0 1-2-2h-1l2-1 4 1 3 2-4-1Zm7 5h-1l-2-1h3l1 1h-1Zm1-2h2-2Zm3 1Zm0-2-1-1 2 1h-1Zm9-2-2-1h2v1Zm-3-1v1l-2-3 2 2Zm-1-3v1-1Zm-2-35h2l1 1-3-1Zm1 41Zm-2 9h1-1Zm1-11 1 1h-1v-1Zm0 5h2-2Zm3-2h-1 1v-1l2 2-2-1Zm5-1h-1a6 6 0 0 1-1-1v-1l2 1v1Zm-6 12v-1 1Zm0 1 1-1 2 3a82 82 0 0 0-3-2Zm5 3h-1l1-1v1Zm62 55v-1l2 1c2 1 2 0 2 2l-4-2Zm21 18-1-1h1l1 1h-1Zm4 0Zm3 1h-1l1-1v1Zm2 0h-1l1-1v1Zm82 22h-2 2Zm-3-1 1 1-3-1h2Zm-6-2v1-1Zm-4 0 2 1h-3l1-1Zm-5-3Zm-2 3v1h-1v-1h1Zm251 9s0 1 0 0h-1 1Zm-2-1h-1 1Zm-5-9h1-2 1Zm0 7h-2 2Zm15-26v-1 1Zm-2 1v-1 1l1-1 2 1-1 1-2-1Zm3 2 3-1v1h-3Zm3-4v1-1Zm-2 1a711 711 0 0 0 2 0v1h-2v-1c-1-1 0-1 0 0Zm-12-14 7-1h2l2 1v1h-8l-3-1Zm-5 25h-2l1-1s0 1 0 0h1v1Zm-1-26-1-1 1 1Zm-3-3h2v1h-3l1-1Zm0 4-1-1 1 1Zm-9 15Zm-54 16h2-2Zm-40-10h-3l-1-1h1l1-1h1l1 1 5-1 3 1-3 1h-5Zm-50-11Zm-2 0s1 0 0 0Zm-23 16Zm1-3h-5l-3-1-3-1h-2l4-3v1l3 1h1l7 1h3l-3 2h-2Zm-8-1 1 1h-2l1-1Zm-8-1-11-2h-4l3-3h1l2 1 1-1 6 3h2l-2-2h2l2 1h3l-4 3h-1Zm-16 0Zm1-1 1 1h-1v-1Zm-36-3h-1 1Zm-2-3Zm1 6h-1l-1-1h1l1 1Zm-5-2 2 1h-1l-1-1Zm1-3h-1v-1h2v1h-1Zm-1 3c0-1 0 0 0 0Zm-74-44Zm-1 17Zm0 1Zm-2-16h-1 1ZM81 196h2v1l-2-1Zm0 9h-1 1Zm2 79h4l-1 2-1-1-2-1Zm2-88-1-1 4 1a7 7 0 0 0 3 1h1c-2 1-4-1-7-1Zm11-15h1v1a2 2 0 0 1-1 0v-1Zm1-2 1 1h-3v-1a2 2 0 0 0-1-1l3 1Zm1 9h3l-1 1h-3l1-1Zm6 2c-1-1-1-1 0 0-1-1-1-1 0 0-1-1-1-1 0 0Zm-1-8v1l-1-1h1Zm0-7Zm-8 134h-1v-1l1 1Zm2 2Zm17 17Zm2 1c1 0 0 0 0 0Zm2 13 1 1h-1v-1Zm19-145h4l2 1-6-1Zm132-1h1-1Zm119 178v1-1Zm-70-12h-1 1Zm-1 0v1l-2-1h2Zm-23-2h-1s0-1 0 0h1Zm-3 2h1-1Zm-28 9Zm44-24 1 1-3-1a20 20 0 0 0 2 0Zm-8 1a1 1 0 0 1 0-1h1l-1 1Zm-18 8s0 1 0 0Zm-13 0-1 1-9-1h-1l4-1h5l2 1Zm-3 3-3-1 3 1Zm-4 1v1l-1-1h1Zm-1-2h1v1h-1v-1Zm13-6h1-1c1 0 0 0 0 0Zm-25 2h-1 1Zm8 16h1v1h-1v-1Zm5 1-2-1 2 1Zm0 0Zm6 0h2v1l-2-1Zm3 0h-1 1Zm1-12h-1 1Zm3 1-1-1h3v1h-2Zm1-4 2 1-2-1Zm3 1Zm25-10h1-2 1Zm-9 10 1-1v1h-1Zm3 0Zm1 3h-1 1Zm1 3-1-1 1 1Zm-4-3ZM158 198h-1 1Zm-2 0-1-1h1v1Zm81 102h-3l-1-1 4 1Zm1-1v1-1Zm1 0h-1 1Zm2-75Zm-10 75h-1 1c-1 0-1 0 0 0Zm9 0v1-1Zm-37-77h-1l-2-1-1 1h-5v-1h9l1 1h-1Zm-12 0v-1l1 1h-1Zm3-21Zm32 4 1 1v-1h1-3 1Zm-9-1h1v1l-1-1Zm-47 164v1-1Zm1-1 1 1h-1l-1-1h1Zm185 3v1-1Zm6 7v1h-1l1-1Zm0-2 1 1v1h-1v-2Zm5 1h-1l1-1h1l-1 1Zm55 1Zm4-44Zm3 2h-3 3Zm-7-43 3 1-2 1-1-1v-1Zm-4 0v1l-5-1h-1v-1h4l2 1s1 0 0 0Zm-3-2h1-1Zm0-20 4 2h-4l-3-1h1l2-1Zm-2-18-1 1v-1h1Zm-2 40v-1 1Zm-2 0-2-1 2 1Zm-5-57h-1 1Zm-1-2 1 1h-3l2-1Zm-3 5-2-1v-1l2 2Zm-2-4Zm0-21h-1 1Zm-1 1h-3v-1h2l1 1Zm-14-7h11v1l-9 1a10 10 0 0 1-3 0l-1-1 2-1Zm-37-8h13l-1 1h-4l3 2h-1l-3 1-2-2h-1l-5-1h-2l3-1Zm-12-1 1 1h-3l2-1Zm-44-2Zm-19-7a108 108 0 0 0 14 1l-6 4-4 1h-6l-3-1h-1l3 2h1-5c-1 0-2 0-3-2l7-5h3Zm-11 4Zm-20 10 3 1h4l-1 1-5-1-2-1h1Zm-9 1h2l-4 1v-1l1-1 1 1Zm-12-1 1 1h3a24 24 0 0 0-1-1l3-1 1 1v1l-1-1-1 1 1 1-3 1-3-2-2-1h-1l-1 1h-6l1-1h2l-1-1h3v1l1-1h1l3 1Zm-14-1h3l-1 1h-2l-4-1h-1l-2-1 2 1h5Zm-61-13 1 1a10 10 0 0 0-2 0l1-1Zm-9 3h1l1 1h-2v-1Zm-2 5h-1l1-1v1Zm0-1Zm1-3-4-1h-1l5 1Zm-2 1Zm-16-2-1-1 6-1 7 2h-2l2 2v1l1 1h1v-1l1-1 1 1-2 1 2 1h-8l-1-2h-1l-4-1h-3l-1-2h2Zm-2 0v-2l-1-1h2l-1 3Zm-2-3-1 1 2 2h1-1c1 1 0 1-1 1h-2l-1-1-2 1h-2l1 2h7l4 1h2l-1 1-9-1h-3l-3-1h-4l-1-1h-1 1l2-1h4a5 5 0 0 1-1-1h1l1 1v-1l1-1-2-1h1l1-1a2 2 0 0 0-1-1l7 1Zm-4 4v1h-1v-1h1Zm-1-7h-1 1Zm5-7-2-1 2 1Zm0-22h-1 1Zm-7 1 1 2-2-1h-2c1-1 1-2 3-1Zm-5 8h3v2l2 1h1-1 1l1-1 3 1 1 2-7-1h-5l-1-4h1l1 1v-1Zm-3-6-1-1 1 1Zm-9 6 3 1 1-1 1-1 2 1v2h-7v-2c-1 0 0 0 0 0Zm5 7-1-1 1 1Zm-7-6h-1 1Zm-1-1v-1 1Zm-2-1Zm1 5 1-1 7 3v1l-8-3Zm8 17h2l2 2h-1l-2-1-1-1Zm1 6h3l1 2s-1 0 0 0h-4l-2-1-2-2c-1-1-2-1-2-3 2 0 4 2 6 4Zm-13-13Zm-11 2Zm6 4-5-2v-1l1 1 1-1h6v1l1 1h-2l2 2-4-1Zm7-3-2-1v-1l4 1h2l1 1h-5Zm2 4v-3l2 1 1 1v1-1l1 1h1v1c-1 1-3-1-5-1Zm0 5h5l-1 2h-2l-3-1v-1h1Zm-4 1 1 1h-2l1-1Zm-4 11h-1v-1h1v1Zm-1 7-2-1h2v1Zm3 15v-1h1l-1 1Zm4-17h-2l-1-1-1-1h1l4 1-1 1Zm1 33h1-1Zm-7-8h-1 1Zm-1 1 3 1-3-1Zm-6 3h1l1 1h-1v-1h-1Zm-6-5 3-1 1 1 1 1c0 1 0 0 0 0h-3l-2-1Zm-7 2h-3 3Zm-7 42h-1l1-1v1Zm6 19-2-2a5 5 0 0 1-1-1l1 1 3 1-1 1Zm0-2v1-1Zm4 3-2-2h2v2Zm1 0h3-3Zm3-17Zm0-40h-3l-5-1-2-1-2-1-1-1h-2v-1l2 1s0-1 0 0l14 2h5l2 1 3 1 5 1h1l-1 1-4-1h-3v1l-4-1-5-1Zm8 40 2 1-2-1Zm2 3Zm-3 19v-1 1Zm-3-4 6 2h-1c-1-1-3 0-5-2Zm5 3Zm1 2-1-1 7 2-6-1Zm2-21 3 1h-1l-2-1Zm5-37h1-1Zm0 38Zm1-38h-1c-1 0-1 0 0 0h-1l-4-1-1-1h6l1 1v1Zm3 60h-4l1-1v-1h1l5 3-3-1Zm4-20Zm0 22h1-1Zm3-19h-1 1v1-1Zm-2-2v-1h1l3 1v1l-4-1Zm3 3c1-1 1-1 3 1l-3-1Zm1 23v-2l2 1 4 3v1h-2l-4-3Zm6 9Zm1-3-1-1-1-1v-1h1l2 2-1 1Zm1 2v1l-1-1h1Zm0 4v-1 1c0-1 0 0 0 0Zm2-10Zm0 3 1 1-1-1Zm1 7h1-1Zm0-2v-1c-1 0 0 0 0 0l1 1h-1Zm1 7v-1h1v1h-1Zm1 3v-1 1Zm0-5v-1h1l-1 1Zm3 6-1-1 2 1h-1Zm-2-7-1-1 1-1v1l1 1h3v2l-4-2Zm7 5-3-2 3 1v1Zm0 15Zm5 9v-1 1Zm1-8-2 1v1c-1 1-2 0-2-1l-1 1 1 1-3-1v-1l1-1 3 1-1-1v-1h1l1 2-1-4-1-1 3 1h-1 3l-1 1v2h1-1Zm7 3Zm1 0Zm0 6v-1l1 1h-1Zm3 1c-1-1-1-1 1-1l-1 1Zm3 3v-1h1l-1 1Zm1-1-1-2 2 1 2 2-3-1Zm4 0v-1s0 1 0 0v1Zm2 2-1-2 1 1v1Zm4-1 2-1v-1 1h2l1 2 1 2h-1l-5-3Zm-1 8h1-1Zm0 3 1 1h-3l-1-1h3Zm-3 2v1-1Zm1 5-1-1h3v1h-2Zm3-3-2-1v-1h4v1l-2 1Zm20 8h-2 4-2Zm22 2a215 215 0 0 1-8 0h-1l-4-1h-4l-1-2v-1h-1v1l-2 1-1-1h-3l-4-1-1-1h-4l-2-1h-4l-1-1h5l2 1h1v-1l-1-1h3l1-1 4 1 2-1h1-1l-2-1-3-1-1 1-2-1h2v-1h-3v1l-1-1-2-1-2 1-2-1-3-1h3a7 7 0 0 0 2 0h4l1 1h2l4 1h2v-1l3 3v-2l3 1h6v2l2-1 3 2-1-2 2 1 3 3h-3l2 1 2 1 2 1-2 1h-1v1l4-1 1 1-1 1Zm-38-12 2 1 1 1h-3v-2Zm43 11 1 1h1l-2-1Zm1-1h-1l-3 1v-2h-2l-1-2h-1 1l2-1 1 1v1l2 1 2-1 2 2h-2Zm3-13h-2 2Zm0 15Zm1-4h-1 1Zm2 2h-1v-1l1 1Zm-2-13 2 2-2-2Zm7 2v-1l1 1h-1Zm7 2-1-1 1 1Zm8-6Zm1 6 1 1-1-1Zm2 6v1-1Zm0-12v1-1Zm1 1 1-1h4s0-1 0 0h5l-3 2h-4l-3-1Zm4 5-2 1-2-1a33 33 0 0 1 4 0Zm1 7c0-1 0 0 0 0Zm1 0h-1 1Zm5 0h1-1Zm23-2-11-1h-2l1-1-1-1-2 1-10-1-5-1 2-1h1l3 1h5l-1-2h1c2 2 3 1 5 1h3v1h1l-1 1h-1l-1-1-1 1h2s0 1 0 0h3v-2h3v1l2 1 1-1-1-1s0 1 0 0l1 1 1 1 2 1 2 1-2 1Zm6 0 1-1 1 1h-2Zm6 1-1-1 1 1Zm5 0-2-2h4v1l1 2-3-1Zm22 1v-1l-2-1 1 2h-8l-2-2-1 1h-1 1l1-1 2-1-4-1v1h-1v1l1 1-1 1v-1l-1-1-2 1v1-1l-2-2h-1 6v-1l-7-1-8-1 5-4v1h2l-1-1h1l1 1 2-1-1-1h2l4 1 3-1 3 1h3l-6 4 1 1 4-3 2 2c1 0 2 0 1-1l-2-2 2-2 2 1h4l1-1 4 1h1a42 42 0 0 0-1-2h2l1 1 2 1h2l-10 8a8 8 0 0 0-2-1l-1 1h1l1 1-1 1h-3Zm6 0v-1l3 1h-3Zm7 0h1l-1 1v-1Zm1 0h2-2Zm9 0-1-1 1-1-2-2c-1 0-2 1-1 2l1 1a16 16 0 0 0-1 0l1 1h-2v-1h-6l-3-1h-2l3-2 1 1h-1l1 1v-1l1 1 1-1h2l-1-1-1 1v-1l-2-1v-1l1 1v-1h-1l2-1h3-2l2-3h1l1 1h3v-1l1 1 2-1h1v1l1 2 2-2-1-1h7v1l-1 1-1 1-1-1-1-1 1 2h-2l1 1-7 6h-1Zm5-1v1h-1l1-1Zm17 1h-13a2 2 0 0 0-1 0l-2-2 6-5a3 3 0 0 0 1 1l1-1 2 1 2 1c1 0 0 0 0 0h-4 1c2 2 3 2 4 1h8l-5 4c0-1 0 0 0 0Zm11-1-4 1-1-1h-1l-3 1 4-4a3 3 0 0 0 2 1l1-1 1 1 1 1v1Zm2-3-2 1-1-1 2-1v1h1Zm1 2v-3l2 1h1l1 2h-1l-2-2-1 1 1 1a3 3 0 0 0-1 0Zm21-1h-5l-1-1-1-1 2-1h2l1 2 1-1-1-1h1l2 2v-1l-1-1h1l3 1-4 2Zm24 7h-2 2Zm9-3-7 1-5 1-5-1h-2l-1-1h3c1-1 3-2 5-1h6a5 5 0 0 1 2-1v1h4v1Zm8-8-3-1h2l1 1Zm1-1v1-1Zm7 10Zm8-16h1l2 1h-1l-1-1-1 1v-1Zm4 26v-1l1 1h1v1l2 2 1-2-1-1 2 1 2-1 2 2 1 1-3-1-2 1a5 5 0 0 1-4-1l-2-2Zm1 2Z"/>
    <path d="m28 231-1-1h-1l-1 1h3Zm8-10 1-1v-1h-1v-1 3Zm36 99h-3l3 1v-1Zm250-151-1 1h3l-2-1ZM29 210a9 9 0 0 0-2 0l-2-1 4 1Zm-15 70 3 1-3-1Zm17-82h3l-2-1h-1v1Zm80 158-1-1-2-1 1 2h2Zm153-161 1-1h-2l1 1Zm166 201-3-1 3 1Zm-290-32-2 1 2 1v-2ZM21 250Zm0-3h-1c-1 1 0 2 1 3v-3Zm30-66-2-1v1l4 1-2-1Zm2 1Zm157 7h-1l-1-1 4 2-2-1Zm-58 202-2 1h2v-1ZM22 260v-1l-2-1 1 1 1 1Zm30-56c1 1 2 0 2-1l-2-2c-1 0-2 1-1 2v1l-1-1h-2l4 1Zm10 103-1-2c0 2 0 2 2 3l-1-1Zm3 12 2 1h1l-3-1Zm35 31 1-2h-1v2Zm183-166-3-1 3 1Zm182 159Zm-2 1 2-1h-3l1 1Zm-13 4v-1 1c0-1 0-1 0 0 0-1 0-1 0 0ZM453 348l-2-1-1 1h3Zm22 2h-2 2ZM325 172h1-1Zm-2-1 2 1-2-1ZM15 217l3 1-2-1h-1Zm28-12h1-2 1Zm361-10-3-1 3 1Zm-269-8 1 1c1 0 2 0 1-1l-2-2-1 1h-1l2 1Zm305 156-2-1 2 1Zm-336 3h2-3 1Zm-1 0Zm355-15 3 1-3-1Zm-85-130ZM375 201h-2 3-1Zm1 0v-1 1Zm-191-21 3 1-2-1h-1Zm253 82h-2l-1-1v1h3ZM48 190a20 20 0 0 0 2 2l-2-2Zm-26-6a30 30 0 0 0-2-2v1l2 1Zm338 206v-1l-2 1h2Zm-1-1ZM34 222v1a4 4 0 0 0 2 1l-2-2Zm280 175h3-3Zm0 0Zm3 0Zm110-129h-1l-1 1 2-1Zm-2 1s0 1 0 0Zm-186-79 2 1 1-1-2-2-1 1a2 2 0 0 0-1 0l1 1Zm49 204 3 1-3-1Zm3 1ZM22 251l-1-1h-2l3 1Zm221 133h1v-1h-1v1Zm211 17v1h1l-1-1ZM57 176h-2 2Zm10 19h-2 2Zm335 213v1h1v-1h-1Zm-108-11s0-1 0 0c0-1 0 0 0 0Zm2 0-1-1-1 1h2ZM145 178l3 1-2-1h-1Zm82 211h2l-1-1-1 1ZM91 317l-2-1 1 1h1Zm-9-1-1-1h-1l1 1h1Zm-8 1v-2 2Zm223-124-1-1h-1l1 1h1Zm56-3Zm-2 0ZM351 190h2-2Zm-280-3-2-2v1l2 1Zm-2-2Zm41 175h-1 2-1Zm287 35h2-2ZM213 162h2-2Zm2 0Zm7 0c0 1 0 1 0 0 0 1 0 1 0 0 0 1 0 1 0 0Zm0 0v1l2-1h-2Zm169 238-2 1 2-1Zm63-56 2-1-2 1Zm2-1c1 0 0 0 0 0Zm-138 54h-1 3-2Zm6-231h-2 2ZM22 231l-1-1 1 1Zm2 20-2-1v1h2Zm-2 0Zm6 5 1 1v-2l-1 1Zm267-64h-1 1ZM90 324h-1 1Zm-38-19v-1 1Zm44 34c-1 0-1 0 0 0 0 1 0 1 0 0Zm37 25c0 1 0 1 0 0Zm-1-1h-1l1 1h1l-1-1Zm88-201ZM222 163l-2-1 2 1Zm186 22h-2 2Zm-2 0h-1 1ZM57 168h-2 2Zm1 9h1-1Zm-12 24 1 1-1-1Zm-11-1h-1 1Zm16 25h2-2Zm-22 5v-1 1Zm283 167h2-2Zm138-49h-2 2Zm-160 41Zm-90-217h-1 1ZM31 271Zm-1-1v1h1l-1-1Zm94-95h-1 1Zm-1-1c0 1 0 0 0 0Zm86 207v1-1ZM50 293h-1 1Zm186-104h-2 2Zm234 194 1 1-1-1Zm-367-47h-1 1Zm-60-33v-1 1Zm1 1-1-1 1 1Zm333-111-2 1 2-1Zm-346-6c0-1-1-2-2-1l2 1Zm392 28 1 1-1-1Zm0 0Zm-13-18v-1l-1 1h1Zm13 63 1 1v-1h-1ZM54 182h1-1Zm8 11h-1l1 1v-1Zm197 1Zm153 207 1-1-1 1Zm8-170Zm0 0h-2 2Zm-36-41h2-2Zm2 0Zm-16 197h2-2Zm-1 0h1-1ZM370 387Zm-1 2h1-1Zm50-138v1l1-1h-1Zm-47-50h1-1Zm76 91-1 1 1-1Zm17 39h-2 2ZM52 223h-1 1Zm-4 1v1h1l-1-1ZM49 224v1-1s0 1 0 0Zm4 3v1-1Zm159-65Zm-2 0h2-2Zm239 108h-1 1Zm-2 29h1-1Zm23 44Zm0 0h2-2Zm-65-147c0 1 0 1 0 0 0 1 0 1 0 0v1-1Zm2 1h-2 2Zm-59-6 1-1-1 1ZM25 231l-1-1v1h1Zm432 112 1 1-1-1Zm5 7ZM463 350h-1 1ZM19 258l-1-1v1h1Zm7 12 1 1-1-1Zm1 1v1-1Zm123-85h1-1ZM92 317l1 1-1-1Zm202-156h1-1Zm-60 25 1 1-1-1Zm125 1-1-1 1 1ZM46 299h-1v1l1-1Zm158 92 1 1-1-1ZM46 301h1-1Zm-5-2h1a2 2 0 0 0-1 0Zm-2 2v-1h-1l1 1Zm6 4-1-1 1 1Zm-1-1Zm-26-11h1-1Zm329-99Zm1 0h-1 2-1ZM101 342a16 16 0 0 1-1-1v1h1Zm36 23h1l-1-1v1Zm288-130h-1 1Zm-12-43h-1 1Zm0 0h1-1Zm1 0h1-1Zm20 203Zm-33-198 1-1h-1v1Zm8 188Zm0 1v-1 1ZM298 192Zm-227 3v-1 1h1-1Zm337 197Zm0 0h1-1Zm6 3-1-1v1h1Zm3 5Zm-1-171h1-1Zm-46-28 1 1-1-1Zm0 0Zm47 206ZM199 172l-1-1 1 1Zm0 0Zm164 218Zm24 19 1 1-1-1ZM54 219v-1h-1l1 1Zm368-3 1-1-1 1Zm0 0h-1 1Zm-363 8 1 1-1-1Zm2 3Zm0 0h-1 1Zm313 182ZM49 224l2 1-2-1Zm2 1Zm-18-9v1h1l-1-1Zm413 131Zm-147 43h1-1Zm0 0h-1 1Zm13 7Zm-1 0h-3 4-1Zm-14-7h1-1ZM159 188h1-1Zm1 0Zm-4 0h1l-1-1v1Zm127 206ZM13 241h1-1Zm16 14Zm1 0h-1 1Zm385-34Zm1 0a1 1 0 0 0-1 0h1ZM246 384v-1 1ZM26 265h-1 1Zm420 8h1-1ZM10 262v1h1-1v-1Zm207 122h2-2ZM14 268Zm111-88Zm1 0h-1 1Zm296 80v1-1ZM30 286Zm1 0h-1 1Zm-6-2 1 1v-1h-1Zm317-95c0 1 0 0 0 0h-1 1ZM208 392h1-1ZM50 144h-1 1Zm70 42h1-1Zm-17 149-1-1 1 1Zm0 0Zm92 53h-2 2ZM17 292v-1 1Zm86 50h1-1ZM9 289Zm115 73-1-1 1 1Zm-11-5v-1 1Zm334-93-1-1v1h1Zm-25-33h-1 1Zm0 0h1-1ZM422 231Zm-185-41c0-1 0 0 0 0l-1-1 1 1Zm117 0h1-1Zm1 0c1 0 1 0 0 0h1-1c1 0 0 0 0 0Zm-143 0Zm0 0Zm-16-8Zm0 0h1l2 2 1-2-2-1c-1-1-1 0-1 1h-1Zm276 161ZM180 178v1l2 1c1 1 1 0 1-1l-2-2-1 1Zm280 165Zm-6 1Zm-1-1 1 1-1-1Zm8 7h1-1Zm3 3ZM115 156v-1 1Zm333 192ZM143 177v1-1Zm286 167c1 0 1 0 0 0 1 0 0 0 0 0Zm1 0h1-1Zm1 0Zm5 4Zm1 0h-1 1ZM322 166Zm53 29Zm-237-7v-1 1Zm0-1c0 1 0 0 0 0Zm224 0h-1 1Zm15 8Zm0 0Zm-268-15v-1 1Zm10 5h-1 1Zm267 14h-2 2Zm-281-19h-1 1Zm345 201h1-1ZM76 166v1h3l-1-1-1 1-1-1Zm312 33h-1 1Zm83 199Zm-29-143Zm2 134ZM319 185h1-1Zm1 0ZM53 167Zm410 241ZM57 176l1 1-1-1Zm340 21Zm11 0-1-1v1-1l1 1Zm-353-8v-1 1Zm10 5v1-1Zm-8-2h-1a1 1 0 0 1 1 0Zm354 0ZM66 205h1-1Zm334-11h1-1Zm-3 201Zm0 0ZM32 187h-1 1Zm-1 0Zm352 3Zm0 0ZM48 206Zm-10 1h1-1Zm344 197v1-1Zm3 5c0 1 1 1 0 0h1-1Zm1 0c0 1 0 1 0 0ZM39 211Zm346 198v1-1ZM2 192Zm28 18v1h1l-1-1Zm11 8Zm367-33Zm0 0ZM50 226Zm1 1Zm-4 1Zm-17-6 1-1-1 1Zm304 175h1-1Zm1 0Zm-19-5Zm-10-3Zm13-203h-1 1Zm1 0h-1 1ZM318 186Zm-6-2Zm-1 0h1-1Zm-25 210ZM18 245c0 1 0 1 0 0Zm311-59ZM9 250Zm-4 0Zm303-58v-1 1Zm134 77v-1 1Zm-93-73h1-1ZM27 272Zm315-81Zm0 0Zm-56-7 1 1v-1 1l-1-1Zm9 6h1-1Zm47 1h1-1ZM39 290h1-1ZM39 290Zm-9-4Zm18 10h-1l1 1v-1Zm229-114h-1 1Zm16 10h1-1Zm4 2Zm0 0ZM80 316Zm-59-34v1-1Zm58 34h1-1Zm0 0Zm214-121v-1 1Zm0-1Zm-91 195v1-1ZM51 305h1-1Zm7 4v1-1Zm230-114h-1 1ZM288 195c0-1 0-1 0 0ZM45 303Zm-5-2Zm25 15Zm-19-10v1-1c0 1 0 0 0 0Zm189-138Zm-92 198Zm-1-1 1 1-1-1Zm70-203h1-1ZM213 162ZM104 344Zm104-182h2-2Zm-83 197Zm82-197h1-1Zm89-1h-1 1Zm149 139h-1 1ZM317 184h-1 1Zm-1 0ZM112 361Zm6 6v-1 1Zm5 5Zm229-178h1-1Zm-8-3h1-1a2 2 0 0 0-1 0h1Zm5 5h-1 1Zm73 44h-1 1Zm-79-43 1-1h1-1l-1 1Zm0 0h-1a1 1 0 0 1 1 0Zm-1 0Zm96 59 1 1v-1h-1Zm-127-72Zm0 6c1 0 0 0 0 0Zm-3 1v1-1Zm5 4Zm128 73Zm-7-4Zm-124-70c0-1 0-1 0 0h-1 1Zm-1 0h-1 1Zm0 0Zm-60-32Zm186 111v-1 1Zm-15-6ZM236 162h-1 1Zm56 32h1a3 3 0 0 0-1 0Zm-59-32Zm-1 0h1-1Zm-2 0h1-1Zm-6 0Zm1 0s-1 0 0 0Zm-1 0Zm-14 0Zm25 15Zm-29-15h-1 2-1Z"/>
    <path d="M204 162h1v-1l-1 1Zm-1 0Zm40 28Zm202 116-1-1 1 1ZM215 175Zm19 12v-1 1Zm-24-13Zm255 157Zm-2 0-1 1h1v-1ZM210 189Zm0-1-1 1h1v-1Zm-22-8v1-1Zm261 151Zm0 0Zm12 12h-1s0 1 0 0v1l1-1h1a2 2 0 0 0-1 0Zm11 7h-1v1l-1-1 1 1v-1h2-1Zm-14-6ZM135 159Zm333 191v1-1l-1 1 1-1Zm-14-6v-1 1Zm0-1v1-1c0 1 0 1 0 0 0 1 0 0 0 0Zm-1 0Zm0 0-1 1 1-1Zm-1 1ZM129 159Zm325 188v1-1ZM118 167Zm9 8Zm-5 13Zm-47-24h1-1Zm1 0Zm399 234Zm-20-5Zm2 1v1-1Zm5 8v1-1Zm-6 0Zm8 6ZM61 185Zm-7-3Zm-1 0h1-1Zm15 10Zm344 200Zm-1 0h1-1ZM28 174h-1 1Zm28 18Zm357 208h1l1 1-1-1h-1Zm-14-5ZM65 208Zm0 0Zm340 196Zm-37-17h1a2 2 0 0 0-1 0Zm-4 2h1-1ZM38 203Zm-5-2v-1l-1 1h1Zm-9-4v1-1Zm331 193h1-1Zm0 0ZM41 214h1-1Zm17 12Zm-5-1Zm294 171h1-1Zm0 0ZM36 221Zm305 175h-1 2-1ZM26 218v1-1Zm309 178Zm0 1ZM15 215Zm-2 2Zm369-56ZM382 161ZM29 232s0-1 0 0v-1 1Zm268 158v-1 1Zm-3-1h-1 1ZM14 230Zm399-40v1-1ZM285 394h1-1Zm1 0Zm119-197c0-1 0-1 0 0Zm-5-3Zm3 3v1-1Zm-19-7Zm0 0h-1 1Zm5 4v1-1 1-1Zm-3-1Zm31 18Zm0 0ZM7 251Zm0 1c0-1 0 0 0 0Zm365-64h-1 1Zm-1 0Zm18 11Zm0 0ZM219 381Zm155-189h1-1Zm0 0h-1 1ZM230 389h-1 1ZM229 389Zm144-197Zm0 0Zm1 2Zm1 0ZM47 288v1-1Zm0 0Zm313-101Zm22 13h-1l-1-1h-1v1h3ZM75 307Zm255-136ZM77 315Zm0 0h1-1c1 0 1 0 0 0Zm286-124ZM72 315h1-1Zm-16-9h-1 1Zm266-137ZM99 331l1 1v-1h-1Zm277-131ZM41 301c-1 0-1 0 0 0Zm-11-4Zm8 5Zm-11-6Zm-4-1v-1 1Zm331-105Zm0 0v-1 1Zm-1 0h1-1ZM108 345Zm243-155ZM37 307Zm98 57h-1 1Zm-86-48v1-1Zm300-126ZM349 190ZM118 357Zm-5-1Zm-13-6Zm0 0Zm254-157ZM156 394Zm135-16Zm2-1c-2-1-2 0-2 1l2 1v-2Zm-5 0v1h3l-3-1Zm40-3Zm-5 2-1 1h2v-1h-1Zm11 2h2l-2-1v1Zm-8-4Zm0 0h-1 1Zm-20 0h-1l1 1v-1Zm-9 1-1-1v1h1Zm16 2h-1v1h1v-1Zm-21 2a1 1 0 0 0 0 1h1l-1-1Zm-3 1h1a1 1 0 0 1 0-1l-1 1Zm0-8-1-1v1h1Zm-1 7h1-1Zm44-3h1-1Zm-26 2v1l1-1h-1Zm0 0h1-1Zm-29-5v-1 1Zm-38-3c0-1 0 0 0 0Zm88 2c1 0 1 0 0 0 1 0 1 0 0 0Zm3 3v1-1Zm-27-1Zm-7-3Zm-133 8h-2l-2 1h4v-1Zm5-1h1l1-1-1-1-1 2Zm3-1h2l-1-1-1 1Zm-5-1h1-1Zm1 4h1-1Zm-11-2v1h1l-1-1Zm22 5h1-1Zm-6-1Zm-7-2ZM158 380h1-1Zm22-1Zm-10-2h1-1Zm12 6Zm-16-6 1 1-1-1Zm-1 4Zm90-4v-1l-3 1h3ZM252 376c0 1 0 0 0 0 0 1 0 1 0 0v1-1Zm-1 0v1l1-1h-1ZM92 192h-1 1Zm32 0h1-1s0-1 0 0Zm1 0h1-1Zm-9 0Zm16 178v-1 1Zm0 0h1-1Zm-26-179Zm0 0Zm4-21Zm262 206h1-1Zm-92 3v-1 1ZM76 185h-1l1 1v-1Zm359 149Zm2 0h-2 2Zm-249 47h1-1c0-1 0 0 0 0Zm-1-1h-1 1Zm-1 0Zm-90-67v1h1l-1-1Zm-2-2-1 1h1v-1Zm1 2v-1 1Zm23 31v1-1Zm0 1Zm0 0Zm-34-40Zm-1-1v1h1-1v-1Z"/>
  </g>
  <defs>
    <clipPath id="a">
      <path fill="#fff" transform="matrix(.91958 .3929 -.01345 .99991 5 0)" d="M0 0h515v330H0z"/>
    </clipPath>
  </defs>
</svg>
