<svg width="2267" height="625" fill="none" xmlns="http://www.w3.org/2000/svg">
  <g clip-path="url(#a)" fill="#F6F4F4">
    <path d="m608 238 4-2-2-1-4 2 2 1Zm-90-16 3-2-1-1-4 2 2 1Zm25-27-1-1-4 2 1 1 4-2Zm-17-7-2-1-8 4 2 1 8-4Zm-50 10-1-1-4 2h2l3-1Zm-15 7-2-1-4 2 2 1 4-2Zm22-25-2-2-4 2 2 1 4-1Zm-57 13-2-1-4 2 2 1 4-2Zm-28 13-2-1-4 2 2 1 4-2Zm36-33-1-1-4 2 1 1 4-2Zm-39 20-2-1-4 2 2 1 4-2Zm-28 14-2-2-15 8 1 1 16-7Zm-55 27 32-16-2-1-32 16 2 1Zm-22-5 48-23-2-1-47 23 1 1Zm-8 4 4-2-1-1-4 2 1 1Zm30-29-1-1-28 13 2 1 27-13Zm-41 18 2 1 8-4-2-1-8 4Zm-22 13 4-2-2-1-4 2 2 1Zm57-44-1-1-4 2 2 1 3-2Zm-23 12-2-1-4 2 2 1 4-2Zm-8 4-2-1-4 2 2 1 4-2Zm-24 12-1-1-4 2 1 1 4-2Zm493 221-10 5-3-1-2 1 2 2-14 6 1 1 28-13-2-1Zm-63 31 2 1 4-2-2-1-4 2Zm50-39-6 2-2 1h-1 1l-17 9-3-1-2 1 2 1-8 4 2 1 35-17-1-1Zm-67 33 1 1 4-2-1-1-4 2Zm14-22-3-2-2 2 2 1-13 7 1 1 20-10-1-1-4 2Zm2-16 1 1 2-1v1l2 1 3-1-3-2h-1l5-2-1-1-8 4Zm-71 35 1 1 12-6-2-1-11 6Zm33-32-20 10-3-1-2 1 2 2-24 12 2 1 47-24-2-1Zm-76 23 1 1 4-2-1-1-4 2Zm-69 19 1 1 4-2-1-1-4 2Zm6-18-8 4 1 1 8-4-1-1Zm-20 10 2 1 4-2-2-1-4 2Zm-10-10 2 1 4-2-2-1-4 2Zm-33 1 1 1 4-2-1-1-4 2Zm-24 12 2 1 4-2-2-1-4 2Zm-27 13 1 1 8-4-2-1-7 4Zm37-33 2 1 4-2-2-1-4 2Zm-2 3-2-1-4 2 2 1 4-2Zm-14 5 2 1 4-2-2-1-4 2Zm-23 11 1 1 20-9-2-1-19 9Zm6-18-20 10 2 1 19-10-1-1Zm68-201-3-1-2 1 3 1h3l-1-1s1 0 0 0Zm-17-2-2 1 3 2 2-1c0-1-1-2-3-2Zm-25 0-2-1-3 1 3 2 2-1v-1Zm-16-2c-2 0-3 1-3 2l3 1c2 0 3 0 2-1l-2-2Zm2 8-2 1c0 1 1 2 3 2l2-1-3-2Zm-17-8-2 1 3 1c2 1 3 0 2-1l-3-1Zm-14-1-2 1 3 2 2-1c0-1-1-2-3-2Zm3 8c-2 0-3 0-2 1 0 1 1 2 3 2l2-2-3-1Zm-31-9-2 1 3 2c2 0 3-1 2-2l-3-1Zm3 8c-2 0-3 0-2 1 0 1 1 2 3 2l2-2-3-1Zm-33-8 3 2c2 0 3-1 2-2l-3-1h-3 1v1Zm5 7c-2-1-3 0-2 1l3 1 2-1-3-1Zm-17-9-2 1 3 2 2-1c0-1-1-2-3-2Zm-14-1-2 2 3 1c2 0 3 0 2-1 0-1-1-2-3-2Zm4 11 2-1-3-2c-2 0-3 1-2 2l3 1Zm-17-8c2 0 3-1 2-2l-3-1-2 1 3 2Zm-14-1 2-1-2-2-3 1 3 2Zm2 5-2 1c0 1 1 2 3 2l2-1-3-2Zm-16-6c2 0 3 0 2-1l-3-2-2 2 3 1Z"/>
    <path d="m249 246 2 1-10 5 2 1 36-18-2-1-23 12-3-1c-2-1-3 0-2 1Zm-15-10-2 1 3 2 2-1c0-1-1-2-3-2Zm1 9c0 1 1 2 3 2l2-2-3-1c-2 0-3 0-2 1Zm2 8 3 2 2-2-3-1-2 1Zm-14 0 3 1 2-1-3-2a9 9 0 0 0-1 0h-1 1l-1 2Zm5 9 2-1-2-2-3 1 3 2Zm-16-9 2-1-3-1c-1-1-2 0-2 1l3 1Zm-61-18c2 0 3 0 2-1 0-1-1-2-3-2l-2 2 3 1Zm0 7 3 1 2-1-3-2c-2 0-3 1-2 2Zm-14-7c2 0 3-1 2-2l-3-1-2 1 3 2Zm0 6 3 2 2-2-3-1c-2 0-3 0-2 1Zm-14-7 2-1-2-2-3 1 3 2Zm0 6c0 1 1 2 3 2l2-1-3-2-2 1Zm2 8 3 2 2-1v-1h1l-2-1h-2l-2 1Zm2 8 1 1h-3l-5 1h-3l2 1h6l4 1h7-1l-3-1-1-1 2-2-3-1-3 1Zm8 8-3-1c-2 0-3 0-2 1 0 1 1 2 3 2l1 1h3v-1h-3l1-2Zm-26-31c2 0 3 0 2-1l-3-1c-1-1-2 0-2 1l3 1Zm0 7 3 1 2-1-3-2c-2 0-3 1-2 2Zm2 8 3 1 2-1-3-2-2 2Zm2 8 3 1c2 0 3 0 2-1 0-1-1-2-3-2l-2 2Zm8 8-3-2-2 1c0 1 1 2 3 2l2-1Zm0 9 2-1-3-2-2 1 3 2Zm2 8c2 0 3-1 2-2l-3-1-2 1 3 2Zm-28-48c2 0 3-1 2-2l-3-1-2 1 3 2Zm0 6c0 1 1 2 3 2l2-2-3-1c-2 0-3 0-2 1Zm2 8 3 2 2-2-3-1-2 1Zm2 8 3 2c2 0 3-1 2-2l-3-1-2 1Zm6 9 2-1-3-1c-2 0-3 0-2 1l3 1Zm2 8 2-1c0-1-1-2-3-2l-2 2 3 1Zm670 138 2-2-3-1c-2 0-3 0-2 1 0 1 1 2 3 2Zm2 8 2-2-3-1-2 1 3 2Zm4 6-2-1-3 1 3 1c2 1 3 0 2-1Zm3 8-3-2c-2 0-3 1-2 2l3 1 2-1Zm2 8c0-1-1-2-3-2l-2 2 3 1 2-1Zm-1 6-2 2 3 1c2 0 3 0 2-1 0-1-1-2-3-2Zm-23-32-2 1c0 1 1 2 3 2l2-1c0-1-1-2-3-2Zm8 17-3-1c-2 0-3 0-2 1 0 1 1 2 3 2l2-2Zm2 8-3-1-2 1 3 2 2-2Zm-1 7-2 1 3 2c2 0 3-1 2-2l-3-1Zm-15-15-3-2c-2 0-3 1-2 2l-2 1h5l2-1Zm2 8-3-2-2 2 3 1 2-1Zm-1 6-2 1 3 2 2-1c0-1-1-2-3-2Zm-16-8-2 1 3 1c1 1 2 0 2-1l-3-1Zm2 7-2 2 3 1c2 0 3 0 2-1l-3-2Zm-16-8-2 1c0 1 1 2 3 2l2-1c0-1-1-2-3-2Zm-9 9c0-1-1-2-3-2l-2 2 3 1c2 0 3 0 2-1Zm-16-9-3-1-2 1 3 2 1-1h2-1v-1Zm-16 1 2-1-3-2-2 1-2-1-5 1h7l3 2Zm1 5-2 1 3 2 2-1c0-1-1-2-3-2Zm-17-14c1 1 2 0 2-1l-3-1c-2 0-3 0-2 1l3 1Zm4 7-3-1c-1-1-2 0-2 1l3 1 2-1Zm-17-2-2 1c0 1 1 2 3 2l2-1c0-1-1-2-3-2Z"/>
    <path d="m664 442 5-1h-9l-4 1h-3l24-12-1-1-26 12-3-1-2 2 2 1-22 11 1 1 25-12 3-1h6l2 2c2 0 3-1 2-2Zm-19-10-2 2 3 1 2-1-3-2Zm-16-8c-2 0-3 0-2 1 0 1 1 2 3 2l2-2-3-1Zm3 11 2-2-3-1-2 1 3 2Zm2 8c2 0 3-1 2-2l-3-1-2 1 3 2Zm-28-2c2 0 3 0 2-1 0-1-1-2-3-2l-2 2 3 1Zm-17-11-2 1c0 1 1 2 3 2l2-1c0-1-1-2-3-2Zm-13 2 2-1c0-1-1-2-3-2l-2 2 3 1Zm2 8c2 0 3 0 2-1 0-1-1-2-3-2l-2 2 3 1Zm-16-8 2-2-3-1-2 1 3 2Zm-14-1 2-1-3-2-2 1 3 2Zm1 5-2 1 3 2 2-1c0-1-1-2-3-2Zm-13-7-3-2-2 2 3 1 2-1Zm-15 6-2 1 3 2c2 0 3-1 2-2l-3-1Zm-17-14 2-1-3-2c-2 0-3 1-2 2l3 1Zm-11 13-2 1 3 2c2 0 3-1 2-2l-3-1Zm-18-17c-2 0-3 1-2 2l3 1 2-1-3-2Zm-10 15-2 2 3 1c2 0 3 0 2-1 0-1-1-2-3-2Zm-14 0-2 1 3 2c2 0 3-1 2-2l-3-1Zm-14-1-2 2 3 1c1 0 3 0 2-1 0-1-1-2-3-2Zm221-196ZM50 320Zm165 111Zm-33-20c-1 0-1 0 0 0Zm330-165Zm146-10s1 0 0 0c1 0 1 0 0 0 0 0 1 0 0 0Zm-505 0Zm336 205Zm135-19v1-1 1-1Zm-22-180ZM205 432Z"/>
    <path d="M706 421h-7v-1h3l-1-1h-9l-6 1-1 1v-1c0-1-1-2-3-2l-2 2 2 1-5 1-21 3h-1l-1-1-3 2h-6l-2-2c-2 0-3 1-3 2l1 1h-4l-2 1h-14l-3 1v1h-2l10-5-1-1-14 6-6 1-2-1-2 2h-8l-2 1-10 1h7l5-1h9a5 5 0 0 0 2 0l2-1h2l-14 7-2-1-3 1 2 1-17 9 1 1 37-18h3l3 2 2-1-2-2h10l2-1h5a46 46 0 0 0 8-1 12 12 0 0 1 2-1 10 10 0 0 0 2 0l1 1 3-1 4-1 3 1 2-2h3l4-1 10-1 6-1h-1l9-2 2 1-2 1a9 9 0 0 0 5 0l7-1 5-1h-2Zm-24 2c-1 0 0 0 0 0Zm11-2h2l1 1-3-1ZM581 434h-1 1Zm127-12c0-1 0-1 0 0 0-1 0-1 0 0Zm-595-32ZM103 389h-2l-5-1-3-1H78v-2l-1-1h-1l-1-1h1l-1-2-2-2-3-1-2-1-1 1-1 1-2 1 5 1 1 1h-2l3 3h-3l-7-1h1-1 1c0 1 0 2 2 2h8l2 1 1 1 2 1 1-1h8l6 1h12l2 1h7l-3-1h-7Zm-31-6h1-1Zm-2-3h-1l-1-1 3 1 3 1-4-1Zm597-152 13-1 9-1a151 151 0 0 1 15-2l8-1h-5l-8 1h-8l-16 2h-1l-10 2-9 2h2l10-2Zm-12 2h-1 1Zm-84 5h3l1 1h7l2-1h9l9-1h-23l-2-1h-10v1h-1l5 1Zm11 1-3-1 3 1Zm-5-1h-1 1ZM205 432Zm0-1 5 2h7v-1l-2-1h-4l-4-1-4-1h-4v-1h-2l-2 1c-1-1 0-3-3-4l-1 1 3 4h2l5 1 4 1v-1Zm0 0v-1 1Zm326-219v-1 1ZM533 212h7l9 1h15l1-1h-2l-10-1h-22l2 1Zm31 0h-1 1Zm195 149Zm27-2Zm-29 3v2l6-1h12l1-1h2v1h2l1-1h-2l2-1h6l-1-1h-3l1 1-11 1h-7l-7-1 1 2-3-1Zm-69 65 9 1 2 2c2 0 3-1 3-2l-3-1 2-1 9-1h1v-2l-4 1h-4l-7 2-4 1h-4Zm-512-24c-1 2-3 1-2 3h-5l2 2h10l-1-2-2 1-2-4Z"/>
    <path d="M180 406ZM81 298l-1 1 1 1 4 1 6 1h1l-2-1 9 1h1l-4-2H86l-5-2Zm683 68h12a22 22 0 0 1 4 0l1-2h-3l-6 1-8 1h-4a7 7 0 0 0-1 0h5Zm-5 0h-1 1c-1 0-1 0 0 0ZM651 232l-1-1h1l3-1h-15l-2 2-9 1h-1l8-1h6l12 1-2-1Zm2 1Zm-59 193ZM142 241l2 2 5 1 2-1-5-1-1-2-2-1h-2v1l1 1Zm520-7Zm3 0 2 1-4 1h6l3-1h7l-1-1-4 1h-2l-5-1h-4 2Zm-13 196-6 1h12l6-1h3l-2-1-7 1h-6ZM50 320h-3c-4 0-6 0-10-2h-1l2 1 2 2h4l5 1 1-1v-1Zm695-34 6-1 1-1v-1h2l-5-1 1 1-1 1-2 1-4 1v1l2-1Zm-304-44v1l1-1h-1Zm0 0-16 1s-1 0 0 0a88 88 0 0 0 16-1ZM198 434l-1-1h-6l-4-1-2-1 3 3h3a228 228 0 0 0 7 0Zm334-189h-1v1l1-1c-1 1-1 1 0 0ZM125 389l6 3h2l1-1-4-2h-5ZM93 267c2 0 2-1 1-2l-1-1-6 1v1l6 1Zm490-47h2l-1-1c1 0 1 0 0 0v-1l-4-1-3 1h1l5 2ZM78 375l-2 1h6l-1-2c-2-1-1-2-2-3l-2 1 1 2h1l-1 1Zm72 16 1-1-1 1Zm-4-1a7 7 0 0 1-2 0h-5l2 1h9l-4-1Zm-63-8h3l2-1-1-1-4-1 1 2h-2l1 1Zm636-125-5-2h-3l3 1 4 1v1h2l2 1v-2h-3ZM99 374c-2-1-3-2-5-1h-2l-1 1 3 1 4-1h1Zm435-133h3l-2-1-4-1h-6l4 1c2 0 3 2 5 1ZM84 284h1-1l3-1-4-1v3l1-1Zm428 156ZM36 342l1-2-7-1 6 3Zm21 39-3 1a171 171 0 0 0 7 2l-3-1a8 8 0 0 0-1-2Zm87-131v-1l-3-2-2 2h-4 1v1h6l3 1-1-1Zm487 194h7v-1h-8l1 1ZM264 227h-1 1Zm11-1h1-11l-1 1h9l2-1Zm289 11 1 1 6-1h-7Zm184 120 3 1v-3l-3 1v1Zm0-1ZM552 239l10-1-1-1-8 1-1 1ZM150 386l-2-1-3 1h5Zm260-165 7-1h-8l1 1Zm358 82h1l-1-2-4-1 3 1 1 2Zm-686 0h4-3l-5-1 4 1Zm-4-1c0-1 0-1 0 0v-1 1Zm635 135 3 1 2-1-1-1h-1 1l-2-1-2 1-8 1h8Zm-8 0Zm92-67h-8 8Zm-56-71 4-1-5-1 1 2Zm32 129h-8 8Zm-20-142c3 0 1 1 2 2l3-1a55 55 0 0 0-2-1h-3ZM638 426l1-2a73 73 0 0 1-5 0l4 2ZM526 212h-8 8Zm0 0Zm184 25c-1-1-1-2-3-2h-2l1 1h2l2 1Zm-5-2h-1 1ZM162 398l1 1 5-1a76 76 0 0 0-6 0ZM29 342l5 1v-1h-5Zm532 94h-2v1l1-1h1c1 0 0 0 0 0s1 0 0 0Zm1 0h1a49 49 0 0 0 5 0h-6Zm139-17Zm6-1h-3l-3 1h3l3-1Z"/>
    <path d="M694 438a8 8 0 0 0-2-1l8-4h4-3l5-3h11l4 1-2-1h7a5 5 0 0 0 2 1l2-1h9c0 1 1 2 3 2l2-2h-1 1l9-1 1-2h-1c-1 1-1 2-4 1l-4 1h-3l-3-1 3-2 5 1 2-1 8-1h13-1v-1l-1-1v-1h-1l-1-1 1 1h-2a62 62 0 0 1-3-1l2-1h-12l-1 1-3-1 2-1h-3l-2-1c-1-1-1-1 1-2h1l1-1 3 2h2-1l1-1h2v-1l4-1h2a53 53 0 0 1-2 0v-1h3l-1 1h2l2-2-3-1a12 12 0 0 1-2-1l-6 1-1 1h-6v-1c-1 0-2 0-1-1l9-1c1-1-2 0-2-1l4-1-1-1h2l2 1-1 1 3 2c2 0 3-1 2-2l-2-1h6l3-1h6v-1h2v-1l-4-1 1-1 10-1v-1l3-1-2-2c-2-1-4-1-5-3l3 1 1-1-2-2h3l3 1 1-1v-1h-1v-2l1-1c-2-2-6-2-9-2l7-1 8-1-3-1-2-2h-7l-1-1v1l-3-1v-2l-2-1-2-1c1 1 1 1-2 1l-1 1h-13l-1 1h-3l-6-1-1-1-6 1h-3l-4-1 4 1 2 2h3l-2 1h-8l-1-1 3-2h-12l-2-1 2-1 1-1-1-1h2l1 1 3 1 4-1-3-2h5l-1-2 7-1c2 0 3 0 4-2l1-1h8-5l-2-1c1-1 2-1 2-3h1c2 0 0-1 0-1h6l3-1-1-1h-14l-2 1-3-1v-1h2l3-3h-1l1-2-1-3-5-2h-4v-1l4-1 2 1c1-1-1-1-2-1l9-1-3-1 4-2 1 1 4-1 2-1 2-1-4-3h2l-2-1 1-1h2v-1l-6-2 2-2c1 0-1-1 1-1-2-2-2-2 0-2v-1c0-1 1-2-1-3l1-1 3 1 3 1-2-1v-1l-2-2 1-1h3l2 1h3v1h1c2 0 2-1 1-2l-5-3-5-2-1 1h-1l-4-1c-1-1-4-1-5-3h-3l-8 1h-2l-7-1-1-1 3-1c5 0 6 0 9-2l2-1 3-1h4v-3l-1-1-2 2-4 1h-2l1 1h-4l-2 1-3 1h-5v-1h-1l6-2v-1l-3 1h-6l1 1h-1l-7-2v1h-1l-1-1h7l-1-2h4l1-1-2-1-2 1h-6l-1-1 6-1c-1-1 1-2 1-3l2-1-4-1 2-2-3-2a9 9 0 0 0 1-1l-3-1 7-1h-2l-1-1c-1-2-1-2 3-2l-1-2h-7l-9-1h-4l-3-1h2l8-1 1 1 3 1 1-2c1 0 1 0 0 0l-1-1 2-2-3-3 3-1 8 1h2l-4-1h8l-2-3-5-3-4-1-1 1v1l-4-1-2-1 1-1c2 0 4 1 4-1h8l5-1-2-1a10 10 0 0 0-2 0l-6-1h-3l-1-1h-3c-1 0-2 0-1 1h-11a25 25 0 0 1-2-1c0-2 2-2 5-2l2 1v-2h4l3-1h5l1-1 6-2-3-1h-3l-4 1-1-1-1-1h4l-1-3 2-1 4-1h5l1-1a78 78 0 0 0 5 0l1-1h-3l-3 1h-6l-4-1h4c0-1-1-2-2-1h-3l-4 1h-7l-9 1-20 3h-3l-2 1h-8l-5 1h-10l-7-1h-14l-1-1h6l5-1 4-1h2v-1l-2-1 2-4h5l3-1h5l2-1h-4l3-1h1-5l2-2h-15l2 1h-8l-4 1-3 1-3 1h6l-2 1-11 1v1h3l7-1h5l1 1h-1l-11 1-9 1a4 4 0 0 1-1 0l-4 1h-6l1-1h-2l4-2-2-1-7 3h-8l-5 1-7-1-7 1a26 26 0 0 0-2 0l4-2-1-1h1l11-1h1l12-2 8-1h-9l-11 2a65 65 0 0 1-7 1h-7l-11 1h-9l2 1h-2 4l2 1a66 66 0 0 0 3 0l5-1 5-1-5 3-12 1h-13c1 1 0 2-1 2h-5v-1h1-1 5l-2-1 3-2 3 1 6-1h-9l4-2h1l14-7-1-1-14 7a16 16 0 0 0-4 0h3l-6 3-7 1 3 1h1l-4 2h-14l-1-1-1 2h-1v-2h-9l9-4h7v-1h-5l27-13-2-2-29 15h-10l-8 1h-11l36-18-2-1-36 18h-8l-5 1h11l-10 5-2 1-3 1h-13l-1 2h-9l-3 1h-3l-2 1h-4l21-10 3-1h-2l57-28-1-1-60 29h-1l1 1-20 10-3-1c-2 0-3 0-2 1l-9 1-2 1h-7l-9 1 85-42-2-1-44 21h-2l2 1-35 17-3-2c-2 0-3 1-2 2l2 1-5 3h-14l-8-1h-3l71-36h7l10-1h1-16l3-1-2-1-64 32h-7 6l-4 3-3-2-2 2 2 1-6 3h-17l-8-1h-1l42-21h1l24-12h2-1l28-14-1-1-32 15h-1 1l-24 12-32 16-3-1-2 1 2 2-8 3h-8l-16-1 25-12h2-2l46-23-2-1-63 31-2-1c-2 0-3 0-2 1l1 1-7 4h-5 4l-1 1h-2l-2 1h-10l-2-2c-2 0-3 1-3 2h-9v-1h1l37-19-1-1-25 13-3-2-2 2 2 1-10 5h-2l-2 1 1 1-6-1a9 9 0 0 0-2 0l5 1h2l-4 2h-37v-3h-1c-2-1-2-1-1-2h-1l-1 2h-1l-4 1-3 1-4-1h-6l-3-1h2l-1-2c1 0 2 0 1-1v-1l-1-1a12 12 0 0 1 2 0h3v-1l8 1h2l1 1-1-1h1l1 1 2-1h5l4 1 1 1h8l2-1h-5a7 7 0 0 1-2-1l1-1h3l-6-3 4-2h-2l5-3-1-1-8 3h-2c-2 0-3-1-3-2l1-3 3-1-2-2c1 0 1-2 3-2-1-1 1-1 3-1l5-2h2s1 0 0 0l-2-1-12 1c-1 1-2 2-5 2 1-2 3-4 7-4a155 155 0 0 1-4-2h-8l-4 1h-2l-8 1-1 1-4 1h-5v2h-3l-5-1h-16l-3 1 2 1h-1l-2 1-3 1-2-1-1-1v1c1 1 1 2-2 2h-2l2 1c2-1 3-1 4 1l-2 1h-1l-1 1 4 1v-2h1l6 1 1 1h-5l-1 2 1 1 1-1 7 2-3 1 2 1h4l1 1h-1 1l5 1 4 1-1 1v1h-4v1l-4-1h-1v-1l4-1-5-1-2 1v-1l-1 1h-1l-5-1-2-1v1c3 1 3 2 1 2a10 10 0 0 1-4 1l1-1-3-2-2 1 1 1h-5l-1-1a19 19 0 0 1-1-1l-1 1v1h-1l4 1h3c2 0 3 1 3 2l1 1h-2v1l-1 1a8 8 0 0 1-2 0l-6-1h-1l-2 1h-1l-3-1a13 13 0 0 0-2 1l-1 1h5-3l-3 1 2 1 5 1h7l2 1h11l3 1 5 1h1l-6 1h-3a3 3 0 0 0-1 0h-2l-4-1h-1l-3 1-1 1v-1l-3-1c-2 0-3 0-2 1v1h-5l3 1h3l3 2h-1l-1 1-1 1h-5 1-2l-2 1-3-1-2 2 1 1-1 3 1-1c-1-1 0-1 1-2h4v1l1 1 1-1 3-1h2l1 1h1l-1 1-3 2h5l1 1h-1l-6 1h-3l-3-1-2 1h-1 1v1l3 1 2-1h2l2 1v-1l6-1-1 2h1l-1 1h-8a941 941 0 0 1-20-1h-2l-5 1h-2l-7-1 1 1v1h-5l-5 1-5-1-1 1h1l2 1h1l7 1h8v1l3 1 2-1 8 1h2l1 1h-19c2 0 3 1 3 2h-2l4 2 2-1 3 1-3 1 3 2 6 1h12l3 1h12l6 1a33 33 0 0 1 5 0l-1 1h-10l-5 1h-7a4 4 0 0 1-2 0h-5l-2 1-1-1-2 1-2 1h-4l4 2-5 1 4 1h2s1 0 0 0H97l-1-1 7-1 4 1 2-1v-1h-5l-4 1H85l-1 1h-5l-3 1-3-1v-6l-3-1h-2v1l-2 2-1 2 3 2 2 2a14 14 0 0 0-4 1h-3l4 1 1 1 1-1c2 1 2 2 2 3l5 1-2 1h-3c-2-2-5-2-7-3l-2 1-4-1 1 1h-4l-10-2h-1l3-1v-1h1v-1h-7l-1 1v1h-3v1l2 1 3 1 18 1h1l1 1 5 1 1 1-5-1H53l-4 1 2 1-3 1-5-2h4l-10-1 1 1 10 2 1 1v1h3l4-1 5 2h-5l1 1h-1l-1 1h-2l3 2h-7l3 1h3l8 1 3 1 1 1h-1l-2 1 3 1h3l4 2h-1l-3 1a34 34 0 0 1-2-1c-1 1-3 1-2 2h-7l-3 1-3-1h2c-2-1-3-2-5-1h-1l-2-2h-5l2 1 7 2v1l8 2h-5a76 76 0 0 0-9-1l-4-1a23 23 0 0 0-5-2c-1 0-1 1 1 2l2 2h-1v1h3v-2c3 2 3 2 8 2l4 1h4l4 1h3l6 2h3l1 2v2h-1l-1-1-2-2h-4l3 2a132 132 0 0 0-8-1c3 2 5 2 8 2l2 1 3 1h-2l-1 1h1v1l-1-1-4-2v2h-3 1a24 24 0 0 1-3-1l-2-1-2-1v2l4 1-10-1-1-2-4 1-4-1a6 6 0 0 0-2 0l-1 1h1c-2 0-2 1-1 2l2 1 7 1c2 0 2 0 3 2h-2l2 1h4l3 1h-2v1l3 1 4 1h2l2 1 7-1 2 1h9l2 2v1h1l1 1 3 1-2 1h-5l-1-2h1v-1h-3l-3-1v1l-3-1-4-1-1 2h1l1 1 6 1 2 1 2 1 4 1a4 4 0 0 1-1 1h3l2 1h3l8 2 3-1h2l4 1h9l12 2h1l7 1h7l5 1c3 1 5 3 6 5l3 1h-3v2l1-1h1l2 1v1l4 5 2 1 1-2h1l-1 3v6h3v2l1 1v1l1-1v-1l1 1 1 1 1 2v1h3l2 1h4l1-1 2 3-3 1-2 1h-3l-1-1-1-1v1h-1l-2-1v1l1 1 1 3 1 2 4 2 5 1 2 1h2l-3-1c-1-1-3-1-2-2h1l3 1-1 1 2-1v-1c2 1 3 1 2 2v1l2-1 4 2-1-1v-1l7 1 2-1 2-1 1 1 4 2c-1 1 0 2 2 2h13l2 1v-1h5l3 1a13 13 0 0 1-1 2l-2 2-3-2-5 1h-4l-7-1-2 1a317 317 0 0 1-5-1h-6l-1 1 8 4 2-1 13 1h1v2h-1l-4-1-1 2 1 2 1 2a7 7 0 0 1-5-1l-3-1 2-1v-1l-2-1-3 1h-2l-6-1-3-1 1 2h3l8 1v3c0 1 1 2 3 2l5 1 2-1h13l2 1h9a4 4 0 0 1 1 0h26l19 1a48 48 0 0 1 5 0h6l10-1c2 0 5 1 7-1h1l8 2-1-1h1c1 1 3 2 5 1l1 1 4 1h11c1-1 3-2 6-1h6l4-1h10l5 1 5-1h15l2 1 11-1h27l9-1h32l1-1h-8a20 20 0 0 0-5 0l-10-1-3 1h-39l-12 1h-1l-8-1h-6l-9 1h-1l-3-1-4 1h-1l-13-1h-1l2-1-2-1-2 1-3-1-7 1h-1l7-3v-1l2 1-2-1h-3l-4 3-4-1h-4v-2l-1-1h-7v1h-6l3-2h8l3-1v-1h6l9 1h3l5-1 1 1 3 1h30v-1h-4l3-1h22l1 1-2 2 1 1h-56l-2 1h16l4 1 3-1h49l9-1a290 290 0 0 0 9 0l-3-1h-28l3-1v-1l1-1h-1l12-1h21-1l2 1 3-1h18l1-1h10l-8 4h-1l-1 1v-1h1-1a5 5 0 0 0-2-1l-2 1h-3v1h3l2 1 1 1 6-3h3-2l8-5h8l2 1 2-1h9l3 1 2-1v-1h4l-16 8-3-1-2 1 2 1-5 3h-2l-1 1h2l2 1 1-1a84 84 0 0 0 8-1h-6l25-12h5l11-1h7l4-1h4l-23 11-3-1c-2 0-3 1-2 2l1 1h-1 1l1 1 30-15h8l2-1h9l3 2 2-2-1-1h9l-9 4-14 9h-2 1l-5 3-3-1-2 1 2 1-7 4 1 1 18-9h5-4l16-8 2-1 5-2h-1l2 1-4 1a4 4 0 0 0-2 0l2 1v1l3-1h1-1l1-1h4l9-1 3 1 2-1-3-2h-2l-7 2h-2v-1l-3-1 2-1h7c0-2 2-1 3-1l8-1h1l3-1 2 1v1h2l2-1 1 1c1 0 1 0 0 0l-2 1-5 1h13l2-1 1-1h-7 1l2-1h5a2 2 0 0 0 1-1l4 1-1 1h10l3-1c-1-1-1-1 1-1l8-1-1 1c0 1 1 2 3 2l2-2h-1 1l2-1 13-1h2v1h3l6-1h10l4 1h1-1c4-1 7-2 11-1h6l3-1 3 1-3 1-6 1-6 1-2-2-3 1 1 1-3 1-2-1c-2 0-3 0-2 1l-1 1h1l3 1 2-2v1h8l-2-1h3v1l3 1 2-1h1l-1-1h2l2 2-2 1-1 1 5 1h-5l-1 1h-6v1h-9c-1-1-2 0-2 1h-6l-2 1c-1-1-2 0-2 1h2l-7 3h-3 2l-7 4h-1 1-1v1h-1l2 1 3-1h3l1-1h-1Zm67-17 2 1h-4l2-1Zm-2-105 1 1-1-1Zm-6 11h-2v-1l1 1h1Zm0 3h1-1Zm2-5h-1a1 1 0 0 0 1 0Zm0-8 2 1-1 1-5-2h4Zm-25 49h1-1Zm11-14Zm-3 2h1-2 1Zm4-28v1l-2-1h2Zm-2 37h5c1 1-1 1 1 2l-1 1h-6v-1h-3l-5-1v-1h9Zm-9 1h-2 2Zm-22-91h-1l-1-1h2v1Zm10-2h-1 2-1Zm-3-5 1 1h-1l-1-1h1Zm-5-6h4v1h-5l1-1Zm-4 7h3l8 1h2l-5 2h-5l-3-1v-2Zm-2-19 3 2h-5l2-2Zm-52-13h-1a5 5 0 0 1-3 0h4Zm-532 59-3-1h7l-4 1Zm5 0h1-1Zm3-1Zm-3-4h5-5Zm-55 17-1-1-2-1c3 0 4 0 3 2Zm-13 18Zm1 2h-1 1v1-1Zm11-11-3-1h2l4 1h-3Zm1 2h2-2Zm-12 21-2-1 2 1v-1l3 1h-3Zm4 3-1-1h1v1Zm1-2v-1 1Zm-13 13-2 1-1-1a18 18 0 0 1-4 0l-1-1 3-1 7 1 5 1h-7Zm11 4h-1l-4-1h6v1h-1Zm3-2h-1l1-1 2 1h-2Zm4 0Zm1-2h-2 4-2Zm16-2-4-1h3l1 1Zm-5-1h-1v1l-3-3 3 2h1Zm-3-3h1v1l-1-1Zm3-34h3l2 1-5-1Zm-5 40Zm-4 9Zm4-11v1-1Zm-1 5h3-3Zm4-2s0-1 0 0v-1h1l3 1h-4Zm9-2h-1l-1-1h2v1Zm-12 12Zm1 1h1l3 2-4-2Zm7 3h-1l1-1h1l-1 1Zm97 47v-1l4 1 2 1-6-1Zm33 15h-1l-1-1h3l-1 1Zm6 0v-1 1Zm5 0h-1l1-1 1 1h-1Zm3 0h-1l1-1 1 1h-1Zm136 12h-2 2Zm-5-1 2 1h-5l3-1Zm-9 0Zm-7 0 2 1-3-1h1Zm-9-2h1-1Zm-4 3h1-1Zm427-19-1 1h-1v-1h2Zm-3 0-2-1 2 1Zm-8-9h1v1h-2l1-1Zm-1 7h-3 3Zm29-27h1-1Zm-3 1h1l2-1 2 1-1 1-4-1Zm5 2a9982 9982 0 0 0 5-1h1l-6 1Zm5-4 1 1h-1v-1Zm-2 0 2 1-1 1h-1l-2-1 2-1Zm-19-12 11-1h7l1 1h-3l-11 1h-5v-1Zm-13 25h-1v1l-1-1h3-1Zm4-25h-4 4Zm-6-2h4-1l-4 1c-1-1 0-1 1-1Zm0 4-2-1 2 1Zm-18 15Zm-94 22 3-1-1 1h-2Zm-68-6h-6l2-1h5l10-2 4 1-6 1-9 1Zm-82-5h-1 1Zm-3 0h-1 1Zm-41 18h-2 2Zm1-3h-1a10 10 0 0 0-4 0l-2 1a3 3 0 0 1-2-1h-14l8-4 1 1 5 1 13-1h6l-7 3h-3Zm-14 0h1l1 1h-3l1-1Zm-13 0-18-1h-6l5-3h2l2 1 2-1 10 2h3l-3-2h3l4 1h2l3-1-8 4h-1Zm-27 1Zm2 0h1-2 1Zm-62 0v1-1Zm-3-2h1-1Zm1 5h-3 3Zm-7-1 3 1h-2l-1-1Zm3-3h-1 1-3v-1h4v1h-1Zm-3 3h-1 1Zm-119-35Zm-5 17Zm0 1Zm-1-15-1-1 1 1Zm-33-125h4-4Zm-1 9h-1v-1h1v1Zm-9 76h5c1 1 0 1-1 2l-2-1-2-1Zm17-86h-2 7l5 1h2c-4 1-8 0-12-1Zm21-15a9 9 0 0 1 1 0l-1 1v-1Zm1-2h2l-1 1h-3v-1l-1-1 3 1Zm0 8h6l-2 1h-5l1-1Zm10 1Zm0-7v1l-1-1h1Zm1-6v-1h1l-1 1Zm-34 130h-2 2Zm2 2Zm27 15h-1 1Zm4 0Zm1 13Zm56-143 6-1 2 1h-8Zm224-15h1a4 4 0 0 0-1 0Zm174 160Zm-117-4-1-1 1 1Zm-2 0h-3 3Zm-38 0h-3 3Zm-6 3v-1h1l-1 1Zm-49 11h-1 1Zm78-28 2 1-5-1a63 63 0 0 0 3 0Zm-13 2c0-1 0-1 0 0l-1-1h2l-1 1Zm-33 10Zm-21 1-2 1h-18l8-1h12Zm-6 3h-5 5Zm-8 2h1-2 1Zm0-2h1-1c0 1 0 0 0 0Zm23-8h1-1s1 0 0 0Zm-44 5Zm12 15h1-1Zm8 1-3-1 3 1Zm0 0v-1h1l-1 1Zm11-1 2-1h1l-1 1h-2Zm4-1Zm4-11h-1 1Zm5 0h-1l1-1a62 62 0 0 1 4 0v1h-4Zm2-4h1l3 1-4-1Zm5 1Zm44-13 2 1h-3l1-1Zm-16 11h2-2Zm4 0h1-1Zm1 2h1v1h-1v-1Zm2 3h-2 2Zm-6-2h-1 1ZM289 263v-1 1Zm-3-1h1-1Zm122 91h-6l-2-1 8 1Zm1-1Zm2 0h-1 1Zm15-74h1v1l-1-1Zm-29 75h-1v-1l1 1c0-1 0 0 0 0Zm16-1h1-1Zm-50-71h-2l-3-1-2 2h-9v-1a64 64 0 0 0 7 0l8-1 1 1c1 0 0 0 0 0Zm-22 1 1-1 1 1h-2Zm9-21Zm54 1 1 1 1-1h1-4 1Zm-14 0h1-1ZM282 427h1-1Zm3-2 1 1h-1l-1-1h1Zm314-17 1 1h-1v-1Zm9 6v1h-2l2-1Zm0-1h1v1l-1-1Zm8 0h-2l1-1h3l-2 1Zm94-5h1-1Zm14-43Zm4 1h-5 5Zm-4-41 5 1-4 1-2-1 1-1Zm-7 1h-10v-1h10v1Zm-5-2h1-1Zm4-19 5 1h-10l5-1Zm-1-17h-3 3Zm-10 38c-1 0 0 0 0 0Zm-3 1-3-1 3 1Zm0-55h-1 1Zm-1-2 2 1h-5l3-1Zm-6 5h-4l1-1 3 1Zm-2-3h-1l-1-1h2v1Zm2-21h-2 2Zm-2 1h-5 5Zm-22-5h4l11-1h4l-1 1-16 2a28 28 0 0 1-4 0l-2-1 4-1Zm-62-4h7l6-1h8v1h-4l-4 1 5 1h1-2l-5 1-3-1h-11l-3-1 5-1Zm-19 1v1h-1l-4-1h5Zm-76 2Zm-31-4a314 314 0 0 0 18-1 39 39 0 0 1 5 0l-10 5-7 1-2 1h-8l-5-1h-1l4 2h2-9l-4-1 12-6h5Zm-19 5Zm-36 12h11l-1 1h-8l-3-1h1Zm-15 1 3 1-6 1v-2h3Zm-21 1h7a24 24 0 0 0-2-1h8v1h-4l2 1-5 1-5-1-5-1v1h-13l3-1h3-2 1l1-1 3 1h2l1-1 5 1Zm-24 0h6l-2 1h-14l-1-1h1l2 1 8-1Zm-101-5h2l-1 1a30 30 0 0 0-3 0l2-1Zm-15 3h2v1h-2l-1-1h1Zm-4 5h-2 2c1 0 1 0 0 0Zm-1-1h1-1Zm2-3h-7 7Zm-3 1Zm-27 1-1-1 11-2 11 1h-1l-4 1 4 1 1 1v1l2-1 2-1 2 1-3 1 3 1h-6l-8 1v-1l-1-1h-3l-6-1h-4c-2 0-3 0-2-2l3 1Zm-3-1h-1c1 0 2 0 1-1l-1-1h3l-2 2Zm-4-2-1 1 3 1h1c0 2-2 2-4 2h-10l-1 1 3 1h6l5-1 6 1h3l-2 1h-31l-2-1h-1 2l3-1h6v-1h3v-1h1l-3-1h1l2-1-1-2 11 1Zm-7 4v1h-1l1-1Zm-1-6Zm11-8-4-1 4 1Zm2-21Zm-12 1 3 2h-7l4-2Zm-8 9h4v1l4 1 2-1 5 1 2 1h-19c-2-1-2-2-2-3h1l2 1 1-1Zm-6-6h-1 1Zm-15 7 5 1 2-1 1-2 4 1-1 2-4 1h-7l-1-1 1-1Zm8 6h-2 2Zm-12-5h1-2 1Zm-1-1Zm-4 0Zm2 5 1-1c4 0 8 0 12 2-4 1-9 0-13-1Zm10 15h4v-1 1l3 1h-5l-2-1Zm2 5h4l-1 1 2 1s-1 0 0 0h-10l-2-1h-1c-1-1-4-2-3-3 4-1 8 1 11 2Zm-22-11h1v1l-1-1Zm-18 3v1-1Zm10 4-8-1v-1h1c2 0 3 0 2-1h9c1 1 1 2 3 2h-3l1 1h-5Zm12-4h-4l1-1h9l3 1a23 23 0 0 0-9 0Zm3 4-1-3 4 1 2 1h-1 4v1h-8Zm-2 5h9c-1 0-2 0-1 1h-5a13 13 0 0 1-4 0h-1v-1h2Zm-6 1 2 1h-5l3-1Zm-9 11h-1v-1l1 1Zm-2 7-4-1h4v1Zm3 14Zm9-17h-6v-1h7l-1 1Zm-3 32h-1 1Zm-12-7v1h-1v-1h1Zm-1 1 4 1h-4v-1Zm-10 4h2l-1 1-1-1Zm-10-4 5-1h2-1l2 1v1h-5l-3-1Zm-13 3-4-1 4 1Zm-19 41h1-1Zm8 17h-3a4 4 0 0 1-1-1h1l4 1h-1Zm0-1Zm6 2-3-1h3v1Zm3 0h4-4Zm7-16 1-1v1h-1Zm6-39h-5l-8-1h-3l-3-1-2-1h-4l1-1 3 1h31l4 1h4l10 1h1l-2 1h-6l-2-1-3 1h-16Zm7 38h5-5Zm4 2Zm-9 19v-1 1Zm-4-3h9l-1 1-8-1Zm8 2h1-1Zm2 1h-2l11 1-9-1Zm7-20h4-4Zm13-36v-1l2 1h-2Zm-6 37v-1h1l-1 1Zm8-37-2-1v1h-1l-7-1h-1l1-1h11l-1 2Zm-5 57v1h-5l1-2h1a249 249 0 0 1 3 1Zm10-19Zm-2 21Zm6-18v-1h1v1h-1Zm-1-2-1-1h1l5 1 1-1-1 1h-5Zm4 2h5-5Zm-2 22v-2l4 1 6 2v2h-5l-5-3Zm9 8Zm2-2-2-1-1-1v-1h2l2 2-1 1Zm1 2h-1 1Zm0 3-1-1h1v1c0-1 0 0 0 0Zm5-10Zm0 3s0 1 0 0Zm0 7h1-1Zm1-2-2-1 1-1v1l1 1Zm0 6h1-1Zm1 3a121 121 0 0 1-1 0h1Zm1-5v-1l2 1h-2Zm4 6-1-1 2 1h-1Zm-2-6-1-2c-1 0 0 0 0 0h1l2 1h4l-1 2-5-1Zm10 3-4-1h5l-1 1Zm-2 15Zm8 8h-1 1Zm2-8-4 1v2l-4-1v1l1 1-4-1v-1l1-1h5l-2-1c-1 0 0 0 0 0h2l1 1c1-1 1-1-1-3l-1-1c2-1 3 0 4 1h4l-1 1-1 1h1l1 1-2-1Zm12 2v1-1Zm1 0h1l-1 1a121 121 0 0 1 0-1Zm0 6h-1 2-1Zm4 1c-1-1-1-1 1-1l-1 1Zm6 2h-1 2-1Zm1 0-1-2a34 34 0 0 0 2 0c3 0 3 0 3 2h-4Zm6-1v-1h1v1h-1Zm3 1-1-1h1l2 1h-2Zm8-1 3-1v-1 1h3l2 1c-1 1 1 1 1 2l-2 1-7-3Zm-3 8h1-1Zm0 3v1h-4l-1-1h5Zm-7 3h1-1Zm1 4v-1h4v1h-4Zm6-4h-2l-1-1h7v1h-4Zm33 7a9 9 0 0 0-1 0l-2-1h6l-3 1Zm38-2a661 661 0 0 1-14 2h-9l-7-1-1-1v-1h-1v1l-3 1-2-1h-21l-4-1-4 1h-1l-3-1 2-1h7l4 1h1l-1-1v-1l4-1h10l2-1h3l-2-1h-11l-2-1a42 42 0 0 0 3 0h-5v1l-1-1h-4l-4 1-2-2h-5l4-1a22 22 0 0 0 4 0h9l2 1h10v-1l6 2-1-1h15c2 0 0 1 1 1l2-1 5 2-1-1h3l5 2-2 1h-3l4 1h3l3 1-3 1h-2v1l7-1 1 1h-1Zm-64-6h3l2 1h-4l-1-1Zm71 6h3-3Zm3-1-3-1c-1 2-1 2-5 1l1-1h-3l-2-2h-1 2l2-1 3 1-1 1h7l3 1-3 1Zm6-13-2-1h3l-1 1Zm-1 14Zm2-4h-2 2Zm3 2h-2v-1l2 1Zm-1-12 3 1-3-1Zm11 0h1-1Zm11 2-1-1h1l1 1h-1Zm14-7h2-2Zm2 6h1a2 2 0 0 1-1 0Zm2 6Zm2-12h1-1Zm1 0h5l4-1h9l-5 2h-7l-6-1Zm6 5-2 1-3-1h5Zm2 6v1-1Zm1 1-1-1h2l-1 1Zm9-1h1-1Zm39-4h-21l1-1-2-1-3 2-17-1h-8l3-1h13l3-1-2-1h1c3 2 6 1 8 0h6v1h1l-1 1h-2l-2-1-1 1a40 40 0 0 1 3 0h6l-1-1 1-1h4l3 1c1 1 2 0 2-1v-1l1 1v1l5 1h2l-3 2Zm10-1 2-1h1l-3 1Zm10 0-1-1 2 1h-1Zm9 0-3-2h6v1l1 1h-4Zm37-2c-1 0 0 0 0 0v-1h-3l1 1-2 1h-11l-3-1-2 1h-2l2-1 2-1 3-1h-7 1l-2 1-1 1 2 1h-2l-2-1-2 1-1 1v-1l-3-2-2 1c2-1 4-2 7-1l3-1h1-25l9-4h3l-1-1h1l2 1 3-1-1-1a66 66 0 0 1 3 0h8l5-1h4-1 6l-11 5 2 1 8-4v1l3 1 2-1-3-2 3-2h12l6-1h2l-2-1h6v1h6l-17 8a22 22 0 0 0-4 0l-2 1h2l1 1h-2l-5 1Zm10 0 1-1 4 1h-5Zm12-1h2-2Zm2 0h2-2Zm16-2h-3l2-1-3-1-2 1 3 1a46 46 0 0 0-3 1h1-3 1a42 42 0 0 0-10 0h-6l-3-1 6-2v1h-1l2 1v-1l1 1 2-1h5l-3-1h-2l-2-1h-1l1-1v1h1l-1-1 3-1h5l-4-1 5-2h8v-1l2 1 4-1v1l3 1 2-1-1-1h1l4-1h8l-2 1h-1l-2 1a4 4 0 0 0-1 0l-1-1v2h1-4l2 1-13 6h-1Zm8-1v1h-2l2-1Zm28-1-5 1h-11l-5 1h-2l-3-2h-1l11-5 2 1 3-1h2l4 1c1 0 0 0 0 0h-7l2 1h12l8-1-9 4h-1Zm20-2a391 391 0 0 1-8 1h-2l-5 1 7-4 2 1 2-1v-1h1l1 1 2 1v1Zm3-3-3 1-1-1 3-1 1 1Zm2 2v-3h4l2 1v1a7 7 0 0 0-1 1v-1l-3-1-2 1 1 1h-1Zm36-3h-9l-2-1h-1l3-2h3l2 2 2-1-1-1h2l2 2 1-1-2-1h-1 3l4 1-6 2Zm39 4h-2 2Zm17-4-13 2-8 1h-15l2-1h3c3-2 6-2 9-2h8l4-1a16 16 0 0 1 2 0h8v1Zm13-8-5-1h4c1 0 2 0 1 1Zm2-1 1-1a1 1 0 0 0 0 1h-1Zm10 8h1-1Zm17-16h5l-1 1-3-1-2 1 1-1Zm3 25h1-1v-1l2 1h1l3 2c2 0 3-1 2-2l-1-1 3 1h1l2-1 4 1v1h1-5l-4 1h-3a10 10 0 0 1-2 0l-4-2Zm1 2Z"/>
    <path d="m63 309-2-2v1l-2 1h4Zm16-11 1-1v-1l-2-1c0 1-1 2 1 3Zm45 92h-5l5 1v-1Zm450-173h-3 6-3ZM68 288a22 22 0 0 0-3 0h-3 6Zm-36 69 4 1 1 1-5-2Zm42-81h5l-3-1-2 1Zm110 145-1-1-3-1a45 45 0 0 1 2 2h2Zm287-173 1-1-4 1h3Zm250 177h-5 5Zm-488 1-3 1h3v-1ZM48 328Zm0-3h-1c-1 1-1 2 1 3v-3Zm63-67-3-1h-1c2 1 4 2 6 1h-2Zm3 0v1-1Zm265-10h-3l6 1-3-1ZM248 450l-2 1h2c1 0 1 0 0 0v-1ZM49 338v-1l-3-1 1 1 2 1Zm59-58h1c2 0 3 0 2-1 0-1-1-2-3-2l-2 2 1 1h-2l-3-1 6 1Zm1 98s1-1-1-1c-1 2 0 2 3 2l-2-1Zm4 12 2 1h2l-4-1Zm54 26 2-1-2-1v2Zm338-181h-6 6Zm283 135h1-1c1 0 0 0 0 0Zm-3 1 3-1-5 1h2Zm-23 5ZM767 376a5 5 0 0 0-5 0h5Zm38-1-5 1 5-1ZM578 220l1-1-1 1ZM574 219l4 1-4-1ZM43 296l5 1-4-1h-1Zm50-14h2-4 2Zm615-48c-1-2-1-2-4-1l4 1Zm-456 20 2 1 2-1c0-1-1-2-3-2l-2 2h-2 3Zm493 119-3-1 3 1Zm-571 39h3-4 1Zm-1 0h-1 1Zm605-52a217 217 0 0 1 5 0h-5ZM654 242h1-1Zm3 0h-2 4-2Zm2 0 2-1-2 1Zm-320 0h5-5Zm416 53h-2l-3-1c2 1 4 2 5 1Zm-650-28h-2a34 34 0 0 0 3 1l-1-1Zm-45-3-2-2v1l2 1Zm543 163-1-1-2 1h3Zm-1-1ZM75 300l3 1-3-1Zm449 139h2l2-1-4 1Zm0 0Zm4-1Zm207-137-1 1-1 1 2-2Zm-2 2h-1 1Zm-305-57 3 1c2 0 3 0 2-1 0-1-1-2-3-2l-2 1a6 6 0 0 0-1 1h1Zm51 193Zm5 0ZM50 328h-5 5Zm355 106h1v-1h-1l-1 1h1Zm355-6 2 1v-1h-2ZM121 252h-3 3Zm14 17h-2 2Zm536 171v1h1l1-1h-2Zm-182 1Zm3-1h-1l-2 1h2l1-1ZM271 245h4-4Zm106 195h4-4Zm-221-55h-2 1l1 1v-1Zm-15 0-2-1v1h3-1Zm-13 2-1-1v1h1Zm398-144 1-1h-3l1 1h1Zm97-9Zm-4 0Zm0 0h4-4Zm-476 27-2-1v1h2Zm-2-1Zm42 165h-2 3-1Zm482 3 4-1-4 1ZM389 222l3-1-3 1Zm3-1h1-1Zm12 0Zm1 0h-1 3a9 9 0 0 0-2 0Zm248 213h-3 3Zm117-62 4-1-4 1Zm4-1v1-1c0 1 0 1 0 0Zm-244 67h-2 5-3Zm48-225-4 1 4-1ZM53 309h1l-2-1 1 1Zm0 19h-3 3Zm-3 0Zm10 5h1v-1l-1 1Zm464-91h-3 3ZM154 392h-1v1h1v-1Zm-62-15v1h1v-1h-1Zm69 29v1l1-1h-1Zm60 21Zm-2-1h-1l1 1h2l-2-1Zm181-205Zm4 0h-4 4Zm312 2h-3a8 8 0 0 0 3 0Zm-3 0Zm-591 21h-3 3Zm1 9h2-2Zm-25 25h3l-2-1-1 1Zm-18 0h-2 2Zm23 22 3 1-3-1Zm-38 8h1v-1h-1v1Zm455 131h4-4Zm242-63h-2l-1 1 3-1Zm-279 58ZM365 233h1-2 1ZM62 347s1 0 0 0c1 0 1 0 0 0 1 0 1 0 0 0Zm-2-1 1 1h1l-2-1Zm176-102h-2 2Zm-2 0v-1l-1 1h1Zm113 190-1 1 1-1ZM90 366h-1l1 1h1l-1-1Zm333-120h-2 2Zm368 162v1h1l-1-1Zm-618-6v1l1-1h-1Zm-96-26Zm2 2-1-2 1 2Zm583-144-3 1 3-1ZM76 265h-3 3Zm661-14h3-3ZM737 251Zm-19-17h1-1Zm13 61h2v-1h-2a5 5 0 0 0 0 1Zm-616-37h2-2Zm12 10h-1v1h1v-1Zm335-20Zm228 184h1-1Zm40-166c-1 0-1 0 0 0Zm-1 0h-2 2Zm-53-36h2-2ZM678 230h1-1Zm-58 193h4-4Zm-2 0h2-2ZM620 423Zm-1 2h1-1Zm106-139h1-1Zm-71-44h-1l1 1v-1Zm113 81h-1 1Zm23 36h-3 3Zm-684-60-2-1h-1 1l2 1Zm-8 1h2a4 4 0 0 0-1 0h-1ZM100 300Zm6 3h1l-1-1v1Zm281-81Zm-3 0h3-3Zm388 79h-1 1Zm-7 28 1 1v-1h-1Zm32 41c0-1 0 0 0 0 0-1 0-1 0 0Zm0 0 3-1-3 1Zm-87-136h1-1Zm3 0-2 1 2-1Zm-99 1h2-2ZM58 309l-1-1-1 1h2Zm716 62h3-3Zm9 6Zm2 0h-2 2ZM43 335h-1 1Zm10 12 1 1c0-1 1-1-1-1Zm1 1 1 1v-1h-1c1 0 1 0 0 0Zm224-96h2-2ZM158 386h2l-2-1v1Zm368-174h3-3Zm-105 30v1h2l-2-1Zm212-12h-1 1ZM82 373c-1 0 0 0 0 0h1-1Zm255 72 1 1-1-1ZM83 374v1h1v-1h-1Zm-8-1h1a2 2 0 0 0-1 0Zm-4 2h-1c-1 0-1 0 0 0h1Zm9 4h1l-1-1h-1l1 1Zm0-1c-1 0-1 0 0 0-1 0-1 0 0 0-1 0-1 0 0 0Zm-43-8h1-1Zm575-132Zm2 0h-2 2ZM169 408a19 19 0 0 1-1 0h-1 2Zm58 19h2l-2-1v1Zm510-157Zm-14-41Zm0 0h3-3Zm3 1 1-1-1 1v-1 1Zm2 194h-1 1Zm-25-189h1-1Zm-17 182Zm1 1v-1h-1l1 1ZM529 242v-1 1Zm-386 27Zm541 155h-1 1Zm1 0v-1l-1 1h1Zm8 2h-1 1Zm4 5h1-1Zm27-166Zm-74-22h1-1Zm-1 0h1-1Zm47 195h1v-1l-1 1ZM363 233h-1 1Zm0 0h1-1Zm244 193v1h1l-1-1Zm39 17h-1 1ZM109 294h-1 1Zm626-43h2-2ZM735 251Zm-617 47-1 1h2l-1-1Zm3 3h-2 2Zm-2 0Zm504 143h1-1ZM100 300h3-3ZM103 300Zm-28-6Zm680 82h1-1Zm-257 58a41 41 0 0 1 2-1l-2 1Zm0 0h-1 1Zm22 5Zm-2 0-5 1h1l4-1h2-2Zm-23-6 2 1-2-1ZM293 253h1-1Zm1 0h1-1Zm-6 0h2l-2-1v1Zm183 186a1 1 0 0 0 1 0h-1ZM37 320h-1 1Zm24 12Zm1 0h-1 2-1Zm661-75h-1 1Zm1 0a4 4 0 0 0-1 0l1 1v-1ZM410 433h-1v1l1-1ZM54 342h-1 1Zm714-38v1h1l-1-1ZM27 341v1h1v-1h-1Zm334 96h2-2ZM33 346Zm204-97-1-1v1h1Zm1 0v-1l-1 1h1Zm491 46v-1h-1v1h1ZM59 362h-1 1Zm1 0h-1 1Zm-10-1h-1 2v-1l-1 1Zm553-127h1-1a2 2 0 0 0-1 0h1ZM344 445l1 1v-1h-1ZM114 222h-1 1Zm114 33h1-1c-1 0-1 0 0 0Zm-54 146h-1 1Zm0 0h1-1Zm148 42h-2 2ZM35 369h1l-1-1v1Zm139 39s0 1 0 0h1-1ZM21 367h1-1Zm184 58Zm-17-4Zm582-126h-1 1Zm-37-29h-1 1Zm1 0ZM734 266h-1 1Zm-309-20h-2 2Zm200-13h2-2ZM627 233Zm-244 16Zm0 0h-1 1Zm-26-6h-1 1Zm0 0h1l3 1 2-1c0-1-1-2-3-2l-2 2h-1Zm444 126h-1 1ZM330 241l3 2 2-1c0-1-1-2-3-2l-2 1Zm450 130Zm-11 1Zm-2 0a2 2 0 0 0 2 0h-2Zm14 5h2-2Zm3 3h2-2ZM224 226h-1 1Zm535 151ZM268 244Zm460 131s0-1 0 0c0 0 0-1 0 0Zm0 0h2-2Zm2 0Zm9 3Zm1 0h-1 1ZM574 214h-1a1 1 0 0 1 1 0Zm85 22Zm-402 19h1l-1-1v1Zm0-1h1c0 1 0 0 0 0h-1c1 0 1 0 0 0Zm381-24h-1 1Zm24 6h1-1Zm1 0Zm-454 14Zm16 4h-1 1Zm452-15h-3 3Zm-475 12h-1 1Zm555 157h1-1ZM156 241h-1 5l-2-1-2 1Zm524-2Zm111 184h-1 1Zm-27-136Zm-18 130h-1 1ZM566 233l1-1h-1v1Zm1-1v1-1Zm-451 12Zm658 190ZM121 252l1 1-1-1Zm575-17Zm19-1v1-1h-2 2Zm-599 30Zm16 5h1-1Zm-14-1h-1 1Zm603-39h-1 1Zm-588 50h1-1Zm569-46h2-2Zm-38 195h1-1Zm1 0ZM77 265h-1 1Zm-1 0Zm597-34Zm0 0h1-1Zm-572 51v1-1Zm-16 2v1-1h-1 1Zm553 155Zm5 4Zm0 0ZM85 288Zm557 155h1-1ZM25 273h1-1Zm46 15v1h1l-1-1Zm16 6Zm630-71h-1 1s-1 0 0 0Zm0 0h1-1Zm-615 79v-1 1Zm1 0c0 1 0 0 0 0h-1 1Zm-7 2Zm-27-5Zm488 138a1 1 0 0 1 1 0v-1l-1 1Zm1 0h1-1Zm-31-3h1-1Zm-16-2h-1 1Zm54-198h-1 1Zm1 0h-1 1Zm-2 0Zm-10-2Zm-2 0h2-2Zm-76 207h1a1 1 0 0 1-1 0ZM44 324Zm538-92h1-1ZM29 329h-1 1Zm-8 0v1-1Zm525-89Zm216 60h-1 1Zm-147-60h2-2ZM56 349h-1 1Zm548-113Zm-1 0h1-1Zm-93 0h1l1-1-1 1h-1Zm14 4h2-2Zm80-4h2-2ZM73 365h1v-1l-1 1Zm0 0v-1 1Zm-15-3Zm28 8Zm409-135h-2 2Zm25 7h1-1Zm7 2Zm-1 0h1-1ZM138 386h1l-1-1v1Zm-95-27v1-1Zm94 27v-1 1Zm0 0Zm383-141v-1h-1l1 1Zm-1-1ZM333 443l1 1v-1h-1ZM91 378h1-1Zm11 3v1-1Zm408-136Zm0 0 2 1-2-1ZM81 377Zm-8-2Zm39 12Zm-31-7h1-1Zm345-155ZM237 427Zm-1-1a71 71 0 0 1 0 1h1s-1 0 0 0l-1-1Zm151-204h2-2ZM389 222ZM174 410Zm207-188h-1 3-2ZM207 422h1-1Zm172-200h1a3 3 0 0 0-1 0Zm152-10h-2 2Zm230 118s0 1 0 0Zm-199-98h-1 1Zm-1 0ZM186 426h-1 1Zm9 4h-1l1 1v-1Zm7 5h1-1Zm419-197Zm-14-2h1l1-1h-1l-1 1a6 6 0 0 0-1 0h1Zm7 4h-1 2-1Zm117 35Zm-126-34h1a10 10 0 0 0 1 0h-2a9 9 0 0 0-1 0h1Zm-1 0a9 9 0 0 0-1 1l1-1Zm-1 1a6 6 0 0 0-1 0h1Zm154 47h1-1Zm-205-57Zm0 7v-1 1Zm-7 1h1-1Zm9 3Zm206 57h-1 1Zm-12-3h1-1Zm-200-55h1-1a9 9 0 0 0-1 0h1Zm-2 0Zm0 0h1-1Zm-96-24Zm298 87Zm-24-4h-1 1Zm-297-82Zm91 25v1-1h1-1Zm-95-24h-1 1Zm-1 0Zm-4 0h2-3 1Zm-10 1Zm1 0s0-1 0 0c0-1 0-1 0 0-1 0 0 0 0 0Zm-1 0h-1 1Zm-25 1h1-1Zm41 12Zm-47-12h-2 4-2ZM374 222h2-2Zm-2 1v-1h-1l1 1Zm64 22Zm324 91h-1 1ZM390 234Zm31 9h-1 1Zm-39-9Zm408 125Zm-3 0h-1 1ZM379 248Zm0 0Zm-35-6v1-1Zm419 118c-1 0-1 0 0 0h-1 1c-1 0-1 0 0 0ZM763 360h-1 1Zm19 11h-2 3v-1a6 6 0 0 0-1 1Zm17 5-1 1h-3 3l1-1h1-1Zm-22-5ZM257 228h-1 1Zm535 149h1-2 1Zm-23-5h1-1Zm1 0Zm-3 0Zm0 0Zm-1 0h1-1ZM247 228Zm522 148h1-1ZM227 237Zm14 6h-1 1s-1 0 0 0Zm-11 13Zm-75-18ZM155 238v1-1Zm643 184h-1 1Zm-34-2Zm2 1c1 0 1 0 0 0Zm8 7h-1 1Zm-10 0c0 1 0 0 0 0h1-1Zm13 5ZM126 261Zm-11-3Zm-1 0h1-1Zm23 9Zm554 156Zm-1 0h1-1s-1 0 0 0ZM72 254h-1 1Zm45 14Zm574 164 1-1h2-2l-1 1Zm-22-4v-1 1c0-1 0-1 0 0ZM130 282h-1 1Zm-1 0Zm548 154 1-1-1 1Zm-61-13h2-2Zm-6 3ZM85 280Zm-9-1v-1 1Zm-14-2Zm532 151h1-1Zm0 0ZM89 291Zm26 10Zm-8 0h-1 1Zm473 134 1-1-1 1Zm0 0h-1 1ZM79 298h-1 1Zm490 137-1 1v-1 1l1-1a9 9 0 0 0 1 0h-1ZM62 297Zm496 139h1-1Zm1 1v-1 1ZM44 294h-1 1Zm-3 2h-1 1Zm635-93Zm1 0h-1 1ZM65 309Zm430 125v-1 1Zm-4 0v-1 1h-2 2ZM40 309h-1 1Zm684-81h1-1ZM475 439Zm0 0h1-1s1 0 0 0Zm235-204v-1 1Zm-8-2Zm4 3Zm-32-6v1-1h1-1Zm0 1Zm9 3h-1 1Zm-4-1Zm49 14Zm-1 0h1-1ZM25 331Zm0 0Zm629-101Zm0 0Zm29 8Zm0 0-1 1 1-1s-1 0 0 0ZM365 434h-1 1Zm292-201h2-2Zm0 0h-1 1ZM381 440Zm0 0Zm275-207s0 1 0 0c0 1 0 1 0 0Zm0 1h-1 1Zm2 1Zm1 0ZM87 362Zm0 0Zm548-132Zm35 10h-6 6ZM132 378Zm454-160ZM134 385Zm0 0Zm506-152h-1 1c0 1 0 1 0 0 0 1 0 1 0 0 0 1 0 1 0 0 0 0 0 1 0 0ZM126 385h-1 1Zm-28-7Zm475-162 1 1v-1h-1ZM169 398Zm492-157ZM74 375c-1 0-1 0 0 0Zm-18-3Zm12 4h1-1Zm-17-4h1-1Zm-6-1Zm580-138h-1 1Zm0 0Zm-2 1 1-1-1 1ZM182 410h-1v1l1-1Zm437-176ZM66 382Zm157 44h1-1ZM85 389Zm531-154v-1 1c0-1 0 0 0 0ZM616 234s0 1 0 0ZM196 421h1-1Zm-8 0Zm-21-4Zm0 0v-1 1Zm457-180ZM254 453h1-1Zm233-30Zm3-1c-2-1-2-1-3 1h3v-1Zm-8 1s-1 0 0 0h5-5Zm68-8Zm-8 3h-2 3-1Zm18 0h3-3c0-1 0 0 0 0Zm-13-2v-1 1Zm0 0h-2 2Zm-34 2v-1h-2l2 1Zm-16 1h-1 1Zm27 1h1-1Zm-35 4v1h1v-1h-1Zm-5 1h1v-1a2 2 0 0 1-1 0v1Zm0-8h-1 1Zm-2 7 1 1-1-1Zm75-8-1 1h1v-1l2 1-2-1Zm-45 6h1-1ZM513 422Zm-49-3s-1 0 0 0Zm-63 1h-1 1Zm149-6v-1 1Zm4 2Zm-45 1Zm-12-1Zm-228 21-3 1-4 1h7c0-1 2-1 0-2Zm9-1h1a90 90 0 0 0 2-1l-2-1c0 1 1 2-1 2Zm5-1h3l-1-1-2 1Zm-8 0h2l-1-1-1 1Zm2 3Zm-19 0Zm37 2Zm-11-1v1-1Zm-12-1h1-1ZM261 439h1-1Zm37-3Zm-16-1s-1 0 0 0h1v-1l-1 1Zm19 5Zm-26-4h1-1Zm-3 3h1-1Zm153-13 1-1-5 1h4Zm-4 0s-1 0 0 0Zm-2-1v1h1l-1-1ZM178 264h-1 1Zm54-4h3-3Zm3 0v1-1Zm-16 1v1-1Zm-1 171h-1 1Zm0 0h2-2Zm-16-171c0 1 0 1 0 0v1-1c0 1 0 1 0 0Zm0 0c0 1 1 1 0 0Zm11-21Zm413 173v-1 1Zm-157 12c-1 0-1 0 0 0v-1h-1l1 1ZM151 259h-1 2-1Zm588 106Zm3-1h-3v1a24 24 0 0 0 3 0s0 0 0-1Zm-430 73h1l-1-1v1Zm-2-1h-1 1Zm-1 0Zm-143-55h1-1Zm-4-1c1 0 0 0 0 0Zm1 1h1v-1l-1 1Zm36 28c1 0 0 0 0 0Zm-1 0h1-1ZM199 409Zm-53-35Zm-1 0h1-1Z"/>
  </g>
  <g clip-path="url(#b)" fill="#F6F4F4">
    <path d="m2065 257 4-2-1-2-4 2 1 2Zm-77-24 4-2-1-1-4 2 1 1Zm29-30-2-1-3 2 1 1 4-2Zm-15-8-1-1-8 4 1 1 8-4Zm-45 8-1-2-4 2 1 2 4-2Zm-16 7-1-1-4 2 1 1 4-2Zm25-27-1-2-4 2 1 2 4-2Zm-54 11-1-1-4 2 1 1 4-2Zm-27 14-1-2-4 2 1 2 4-2Zm39-35-1-2-4 2 1 2 4-2Zm-39 19-1-1-4 2 1 1 4-2Zm-27 14-1-1-16 7 1 2 16-8Zm-55 27 32-16-2-1-31 16 1 1Zm-18-6 47-24-2-1-46 24 1 1Zm-8 4 4-2-1-1-4 2 1 1Zm33-32-2-1-27 14 1 1 28-14Zm-41 18 2 2 7-4-1-2-8 4Zm-22 13 4-2-1-1-4 2 1 1Zm60-45-1-1-4 2 1 1 4-2Zm-24 12-1-2-4 2 2 2 3-2Zm-7 4-2-2-3 2 1 1 4-1Zm-24 11-1-1-4 2 1 1 4-2Zm395 282-10 5-2-1c-1 0-3 0-2 1l1 2-14 7 1 1 27-14-1-1Zm-62 31 1 1 4-2-1-1-4 2Zm52-41-6 2-2 1h-1l1 1-17 8-2-1c-1-1-2 0-2 1l1 2-8 3 2 2 35-18-1-1Zm-66 33 1 1 4-2-2-1-3 2Zm17-24-3-2-2 2 2 1-13 7 1 1 19-10-1-1-3 2Zm4-18 1 1h2l2 2 2-1-2-2h-1l5-3-1-1-8 4Zm-70 35 1 1 12-6-1-1-12 6Zm36-34-20 10-2-1-2 1 1 2-23 12 1 1 47-23-2-2Zm-72 21 1 2 4-2-1-1-4 1Zm-65 18 1 1 4-2-1-1-4 2Zm9-20-8 4 1 1 8-4-1-1Zm-20 9 1 2 4-2-1-2-4 2Zm-6-12 1 1 4-2-2-1-3 2Zm-30 0 1 1 4-2-2-1-3 2Zm-24 11 1 2 4-2-1-2-4 2Zm-27 14 1 1 8-4-1-1-8 4Zm40-35 1 1 4-2-1-1-4 2Zm-3 3-1-1-4 1 2 2 3-2Zm-13 4 2 2 4-2-2-2-4 2Zm-23 12 1 1 20-9-1-2-20 10Zm9-20-19 10 1 1 19-10-1-1Zm101-223-3-2-2 1 2 2h2l1-1Zm-15-4-2 2 2 2 2-2-2-2Zm-22-1c0-1-1-2-3-2l-2 2 3 1h1l1-1Zm-15-3c-1-1-2 0-2 1l2 2 2-1-2-2Zm1 9-3 1c1 1 1 2 3 2l2-1-2-2Zm-13-11c-2 0-3 0-2 1l2 2 2-1-2-2Zm-13-1c-1-1-2 0-2 1l2 2c2 0 3-1 3-2l-3-1Zm1 9c-1-1-2 0-2 1l2 2 2-2-2-1Zm-25-13c-2 0-3 1-2 2l2 2 2-2-2-2Zm0 9-2 2 2 2c2 0 3-1 3-2l-3-2Zm-27-10 2 2 2-2-2-2-2 1h-1 1v1Zm3 7c-2 0-3 1-3 2l3 2 2-2-2-2Zm-13-10c-1-1-3 0-2 1l2 2 2-1-2-2Zm-13-2-2 1c0 1 1 2 3 2l2-1c0-1-1-2-3-2Zm1 12 2-1-2-2-2 1 2 2Zm-13-10 2-2-2-2-2 2 2 2Zm-12-2 2-1-2-2-2 1 2 2Zm0 6-2 1 2 2 3-1-3-2Zm-12-8c1 1 2 0 2-1s-1-2-3-2l-2 2 3 1Z"/>
    <path d="m1745 243 1 1-9 5 1 1 35-17-1-1-23 11-2-1c-1-1-2 0-2 1Zm-11-12-2 1 2 2c1 0 3 0 2-1l-2-2Zm-1 10 2 2 2-1-2-2c-2 0-3 0-2 1Zm0 9 2 2c1 0 3 0 2-1l-2-2-2 1Zm-12-1 2 2 2-2-2-2h-2v2Zm3 11 2-2-3-2-2 2 3 2Zm-13-11 2-1-2-2-3 1c0 1 1 2 3 2Zm-51-24c2 0 3-1 2-2l-2-2-2 2 2 2Zm-1 7 2 2 2-2-2-2c-2 0-3 1-2 2Zm-11-9 2-1-2-2c-1-1-2 0-2 1l2 2Zm-2 7c0 1 1 2 3 2l2-1c-1-1-1-2-3-2l-2 1Zm-10-9c1 1 2 0 2-1l-2-2-2 1c0 1 0 2 2 2Zm-2 8 2 1c1 1 2 0 2-1l-2-2-2 2Zm1 9 2 2 2-2h1l-2-1-1-1c-2 0-3 1-2 2Zm0 9-1 1h-8l1 1h3l2 1 4 1 4 1h2l-1-1-3-1v-1l2-2-2-2c-2 0-3 1-3 2Zm5 9-2-2c-2 0-3 1-2 2l2 2 1 2 1-1h1v-1h-2l1-2Zm-17-36c2 0 3-1 3-2l-3-2-2 2 2 2Zm-1 7 2 2 2-1-2-2c-1-1-2 0-2 1Zm0 9 2 2 3-1-3-2-2 1Zm1 9 2 2 2-1-2-2-2 1Zm5 10-3-2-2 1 2 2 3-1Zm-2 10 2-1-2-2-2 1 2 2Zm0 9 3-1c-1-1-1-2-3-2l-2 1 2 2Zm-15-56 2-1-2-2-2 1 2 2Zm-2 7c0 1 1 2 3 2l2-1c0-1-1-2-3-2l-2 1Zm1 9 2 2c1 1 2 0 2-1l-2-2-2 1Zm0 10 3 2 2-2c0-1-1-2-3-2l-2 2Zm3 11 2-2-2-2-2 2 2 2Zm1 9 2-2-2-2c-2 0-3 1-3 2l3 2Zm568 198 2-2-3-2-2 2c0 1 1 2 3 2Zm0 9 2-2-2-1c-1-1-2 0-2 1l2 2Zm3 8-2-2-3 1 3 2 2-1Zm0 9-2-2-2 1 2 2 2-1Zm1 9-2-2-3 1 3 2 2-1Zm-2 7-2 1 2 2 2-1-2-2Zm-14-38c-2 0-3 0-2 1l2 2 2-1-2-2Zm3 20-2-2-2 2 2 2 2-2Zm1 9-3-2-2 2 2 2c2 0 3-1 3-2Zm-2 7-2 2 2 2 2-2-2-2Zm-11-17c0-1-1-2-3-2-1-1-2 0-2 1l1 1h-2 2l2 1 2-1Zm0 9-2-2-2 1 2 2 2-1Zm-2 7-2 1c0 1 1 2 3 2l2-1c0-1-1-2-3-2Zm-12-11c-2 0-3 1-3 2l3 1c1 1 2 0 2-1l-2-2Zm0 9-2 2 2 2 2-2-2-2Zm-13-10c-1-1-2 0-2 1l2 2c2 0 3-1 2-2l-2-1Zm-9 9-2-2-3 1c1 1 1 2 3 2 1 1 2 0 2-1Zm-13-11-2-2c-2 0-3 1-2 2l2 2h1l2-1h-1v-1Zm-15 0 3-1c-1-1-1-2-3-2h-1l-2-1-5 2h6l2 2Zm1 6-2 1 2 2 2-1-2-2Zm-13-17c1 1 2 0 2-1s-1-2-3-2l-2 2 3 1Zm2 8-2-2-2 2 2 2 2-2Zm-14-3-3 1 3 2 2-1-2-2Z"/>
    <path d="m2076 492-1-1 5-1h-14l24-12-2-1-25 13-2-2-2 2 1 1-22 11 1 2 24-13h8c0 1 1 2 3 2l2-1Zm-16-13-2 2 3 2 2-2c0-1-1-2-3-2Zm-12-10c-2-1-3 0-3 1l3 2 2-2-2-1Zm0 12 2-2-2-1c-1-1-2 0-2 1l2 2Zm1 9 2-1-2-2c-2-1-3 0-3 1l3 2Zm-25-3 2-2-2-2-2 2 2 2Zm-13-14-2 1 2 2 2-1-2-2Zm-12 2 2-2-2-2-2 2 2 2Zm0 9c2 0 3-1 3-2-1-1-1-2-3-2l-2 2 2 2Zm-12-11 2-1c0-1-1-2-3-2-1-1-2 0-2 1s1 2 3 2Zm-13-2c1 0 3 0 2-1l-2-2-2 1 2 2Zm1 6c-2 0-3 1-3 2l3 2 2-2-2-2Zm-11-9-2-2-2 2 2 2 2-2Zm-14 6-2 1 2 2c1 1 2 0 2-1l-2-2Zm-13-16 2-2-2-2c-2 0-3 1-3 2l3 2Zm-12 13-2 1c0 1 1 2 3 2l2-1c0-1-1-2-3-2Zm-13-20-2 1 2 2c1 1 2 0 2-1l-2-2Zm-11 17c-2 0-3 0-2 1l2 2 2-1-2-2Zm-13-2-2 2 3 1c1 1 2 0 2-1s-1-2-3-2Zm-12-1c-1-1-2 0-2 1l2 2 2-1-2-2Zm235-208Zm-557 57c-1 0-1 0 0 0-1 0-1 0 0 0 0 0-1 0 0 0Zm125 136s-1 0 0 0c-1 0-1 0 0 0-1 0-1 0 0 0Zm-26-25Zm326-165c0-1 0-1 0 0v-1 1Zm132-2Zm-450-33Zm259 253c0 1 0 1 0 0 0 1 0 0 0 0Zm124-11h-1 1Zm16-206c-1 0-1 0 0 0-1 0 0 0 0 0Zm-390 190Z"/>
    <path d="M2116 470h-5v-2l2 1-1-1c-2-1-5-2-7-1l-6 1h-1l1-1-3-2-2 2 2 1-1 1h-4l-20 2-1-1-3 2h-5l-2-2c-2 0-3 0-2 1v1h-4l-2 1-7 1-5-1h-3v1h-2l10-5-1-1-13 7h-6l-2-1-2 1h-3l-4 1h-1l-10 1h19l2 1 2-2h2l-14 7-2-1c-1 0-3 0-2 1l1 2-17 8 1 2 36-19h3v1l2 2 2-1-1-2h15l7-1h4l1 1 3-2h3l2 1c2 0 3-1 3-2h3l4-1h14l-1-1 8-1 2 1h-2l4 1 6-1h5l-2-1Zm-21 1h-1 1Zm10-1 2-1 1 1h-3ZM2003 477Zm115-6Zm-522-74ZM1587 395h-1c-2 1-3 0-5-1l-2-1h-1 1-7l-4-1-2-1v-1l-1-1-1-1v-4l-2-2-2-1-2-1v1l-2 1-1 1 4 2v1h-1c-1 1 1 1 2 2l-1 1-2-1h-6v-1c0 1 0 2 2 3 2 0 3-1 5 1h4l1 1 1 2 1-1v-1l3 1 5 1c1 0 3-1 5 1h2l4 1h4l2 1h6l-3-1-6-1Zm-26-9v1s1 0 0 0v-1Zm-2-2-1-1v-1l3 1 2 2-4-1Zm561-134 12-1 8-1 13-1c3 0 6 1 8-1h-12l-4 1h-3l-15 1h-1l-9 1-8 1 2 1 9-1Zm-11 0Zm-76 1h3v2h7l2-1h16-4l-14-2h-4l-2-1h-4l-3-1v1h-1l4 2Zm10 2-3-1c2-1 2 0 3 1Zm-5-2v1-1Zm-368 200Zm0-2 4 3h6v-1h-1l-4-1-4-2-3-1h-3v-1h-2l-1 1c-2-2 0-3-3-5l-1 1 2 5h2l4 2 4 1v-2Zm0 0Zm332-227ZM2004 223h6l8 1 14 1v-1h-1l-9-1-6-1h-7l-4-1-3 1 2 1Zm28 2-1-1 1 1Zm144 181h-1 1Zm24-1c0 1 0 1 0 0 0 1 0 1 0 0Zm-27 2v1l1 1 5-1h14l-1 1h3l-1-1 1-1h6l-1-1h-2v1h-17l-5-1v1h-3Zm-73 69 7 1v1l2 2 2-2-1-2a3 3 0 0 1 1 0l8-1 1-1h1v-1h-4l-4 1-7 1c0 1-1 2-3 1h-3Zm-451-59c-1 1-3 0-2 2l-4-1-1 1 2 2 4 1 5 1-1-3h-1l-2-3Z"/>
    <path d="M1652 420Zm-67-128h-1l1 1c1 2 2 2 3 2l6 2h1l-2-2c3 0 5 0 8 2h1l-4-3h-3l-5-1-5-1Zm594 120h14l2-1h-21l2 1h3Zm-5-1v1-1Zm-69-158-1-2h4-5l-7-1h-1l-3 2h-8l-1 1 7-1h6c4 0 7 0 10 2 0 0 1-1-1-1Zm1 1Zm-89 215h-1 1Zm-366-238 2 2 4 1h1l-3-3-1-2-2-1h-2v1l1 2Zm464 25Zm2 0 1 1-3 1h14v-1h-6l-4-1h-4 2Zm-50 221h-6l3 1h17l-2-1h-12Zm-514-163h-2l-9-3h-1l2 1 1 2 4 1 4 1h1v-2Zm625 6 5-1 1-1v-1h2c-1-1-2-2-4-1l1 1-1 1h-1 1l-2 1-4 1v1l2-1Zm-261-69Zm-1 0-14-1v1h15-1Zm-253 201h-1l-5-1c-2 0-3 0-3-2h-2l2 3h2l8 1-1-1Zm333-192c0 1 0 1 0 0Zm-389 137 4 3 2 1 1-1-3-3h-4Zm-4-140 1-2-1-1h-6v1l6 2Zm444-22h2l-1-1 1-1h-1v-1l-3-1-3 1h1l4 3Zm-479 143-2 1 1 1 4-1v-2c-2-1-1-2-2-3l-2 1 1 1 1 1-1 1Zm61 22Zm-4-1a5 5 0 0 1-2 0h-4l2 1 2 1 2-1 4 1-4-2Zm-54-13h2c1 1 3-1 3-1l-1-1-3-1v2h-2l1 1Zm589-100c-1-1-3-1-3-3l-1-1-3 1 3 1 3 2 2 1 2 1v-2h-3Zm-573 92c-2-1-3-2-5-1h-2v1l2 1 3-1h2Zm412-123h3-2c-1-2-2-1-3-2h-5l3 1c2 0 3 2 4 1Zm-408 21c1 0 1 0 0 0l3-1-4-2v3h1Zm350 203Zm-404-141 2-2-7-2 5 4Zm11 46h-3l4 3 2 1-2-2a8 8 0 0 0-1-2Zm103-144-2-2-2 1h-4 1v2l2-1 2 1h1l3 1-1-2Zm394 251 7 1v-1h-7Zm-283-268h-1 1ZM1772 222h1-1a240 240 0 0 0-10 1h8l2-1Zm254 31 2 1 5-1h-7Zm141 148h2l1-2h-3v2Zm0-2Zm-151-145h9l-1-1h-8v1Zm-386 141-2-2-3 2h5Zm263-170 6-1h-7l1 1Zm302 115v1h1v-3l-4-1 2 1 1 2Zm-610-43h4l-2-1c-2 1-3 0-4-1l2 2ZM1583 295h-1 1Zm537 194 2 1 2-1-1-1v-1l1 1-1-1v1l-1-1-2 1h-7l6 1h1Zm-7-1Zm95-70h-8 8Zm-36-83 3-2h-3v2Zm3 148-8-1 8 1Zm10-163c2 0 0 2 2 3l2-1-1-1-2-1h-1Zm-130 151 1-2h-3l2 2Zm-57-249-7-1 7 1Zm0 0Zm159 40-3-3h-2l1 1 2 1 2 1Zm-5-3Zm-514 150v1h5l-4-1h-1Zm-108-72 5 1h1-1l-5-1Zm455 141h-2 2Zm0 0h6-6Zm128-10h-1 1c-1 0-1 0 0 0 0 0-1 0 0 0Zm5-1h-3l-2 1h3l2-1Z"/>
    <path d="M2103 488a5 5 0 0 0-2 0l8-4h4l-3-1 5-2h10c1 1 1 2 3 1l-1-1 5 1 2 1 2-1v-1l3 1h5v1l2 2 2-2v-1h9l1-2h-1c0 1-1 2-4 1h-3l-3 1-2-2 3-1c1-1 3 0 4 1l1-1 8-1 6 1h5v-2l-1-1h1l-1-1-1-1 1 1h-2l-3-1 2-1h-1l-9-1-1 2-3-2 2-1h-3l-1-2 1-2h2l2 1h1l1 1h1-1l-1-1 1-1 2 1v-2h6-2v-1h3l-1 1h2c0-2 0-2 2-2l-3-1-1-1h-6v1h-6v-1l-1-1 9-1-2-2 3-1v-1l2 1 2 1-1 1 2 2 2-1-2-2h14v-1h1l1-1-3-2v-1l10-1v-1h3l-1-3c-2-1-4-1-5-3h4l-1-2h6v-4l1-1c-2-2-5-2-8-3l6-1h8l-2-2-2-1-6-1-1-1-3-1v-2l-1-1-1-2c0 2 0 2-2 2h-13l-1 1h-3c-2 0-4 0-5-2h-6l-2-1h-4l3 1 1 2 4 1h-3l-1 1-6-2v-1l3-1-4-1c-2 1-4 1-7-1l-2-1 2-1 2-1-2-1h2l1 2 3 1 3-1-2-2h4l1-1-1-1 6-1c2 0 4 0 4-2l1-1h8-1l-3-1h-2l2-3h1v-2h8l-1-1-6-1h-10v-1h2c1-2 1-3 3-3l-1-1 1-2v-4l-4-2c-2 1-2 1-4-1h1l3-1 1 1c2-1 0-1 0-2h7l-2-1 4-2 1 1 3-1 2-1 2-1-3-4h2l-2-1 2-1 1 1 1-1-5-4 2-1s-1-2 1-2v-2l1-1v-5l3 2 2 2-1-2v-2l-1-1 1-2 3 1 1 1h3l-1 1h2v-2l-3-4-5-3v1h-2l-3-1-4-3-2-1-7 1-2-1-6-1-1-1 3-1c5 0 5 0 9-2l1-1h6l1-3v-1l-3 1-4 1h-1l1 1h-4l-2 1h-8l5-3 1-1-3 1h-5v1s0 1 0 0l-6-2-1 1-1-1 1-1h5v-1h3l1-1-1-2-2 1h-4l-2-1v-1h6c-2-2 0-3 0-4l3-1-4-1 2-1-2-3 1-1-2-1v-1l6-1a5 5 0 0 1-1 0h-1c-1-3-1-3 3-3v-2l-7-1-8-1h-4l-2-2h9l1 1 2 1 2-2v-2l1-2-2-3 3-1 7 2h2l-3-1 6-1-1-3c-1-1-1-3-4-3l-3-1h-1v1l-4-1-1-1 1-1c1 0 3 1 4-1h11l-1-1a7 7 0 0 0-2 0l-5-2h-3v-2h-3c-1 0-2 0-1 1v1l-1-1-4-1-2 1h-3a17 17 0 0 1-1-2c0-2 2-2 4-2l2 1c-1-1 0-1 1-1l3-1 3-1 5 1v-2l6-1-3-1h-5l-2-1-1-1h4v-4h2l4-1h10v-1l-2-1-3 1h-5l-3-1 3-1-2-1h-3l-3 1-6-1-8 1-19 2h-2l-2 1-1-1-7 1h-13l-6-2h-3l-9-1-1-1h10l4-1h1l1-1-2-1c0-2 2-3 3-5h11l3-1-4-1h3l1-1h-5l2-1-2-1h-9l-2-1 2 1-1 1h-6l-4-1-3 1-3 1 5 1-1 1-10 1h-1l3 1h6l5-1 1 1-2 1h-9l-9 1h-10l1-1-1-1 4-2-2-1-7 4h-7l-4-1h-15l5-2-1-1 10-1h2l10-1 7-1h-7l-11 1h-9l-3 1h-10l-8-1 1 1-1 1h3l2 1a47 47 0 0 0 7-1h5l-6 3-10-1h-12c1 2 0 2-1 2h-4v-1l1-1-1 1h4c1-1-1-1-1-1l2-2 3 1 6-1h-9l5-2 15-8-1-1-14 7h-4l3 1-6 3-7 1h4l-4 2h-12l-1-1-1 2-1-1c0-1 0 0 0 0v-1l-5-1h-3l9-4h6l1-1h-5l27-14-2-1-28 15-4-1-6 1-6-1h-10l34-18-1-1-35 17h-5l-3 1-4 1h6l1-1 3 1-10 5v-1 1l-2 1-3 1h-1l-11-1-1 2-8-1c0 1-1 2-3 1h-1l-2 1h-5l21-10h3a366 366 0 0 0-2-1l56-28-1-1-58 29h-2 1l-20 11-2-2-2 2h-9l-1 1h-15l84-42-1-1-44 21h-2l2 1-35 17-2-2-2 1 1 2-4 3-13-1-6-2h-3l70-36 2 1 3-1h11-14l3-2-1-1-64 32h-6 5l-4 3-2-2c-2 0-3 0-2 1l1 2-6 3h-2l-13-1-7-1h-1l42-21h1l-1-1 24-12h2-1l28-14-1-1-31 15h-1 1l-23 12h-1l-32 16-2-1-2 1 1 2-7 3h-5l-2-1-15-1 26-13h1-1l45-23-2-1-62 31-2-1c-1-1-2 0-2 1l1 2-7 3h-4l3 1h-3l-2 1-4-1h-4l-2-2-2 2h-7l-2-1h1l37-19-1-2-25 13-2-2-2 2 2 1-10 5h-2l-2 1v1l-5-1h-1l4 1h1l-3 2h-3l-12-1h-9l-8-1-1-1c0-1-1-2 1-3h-2v-2l-1-1-1 3h-1l-4 1h-6l-6-1-2-1h2l-1-2c1 0 2 0 2-2-1 0 0 0 0 0 0-1-2-1-1-2a8 8 0 0 1 2 0l2 1 1-1c2 0 5 0 7 2l1-1 1 1-1-1h1l1 1h6l4 2v1h8l1-1h-1l-3-1a5 5 0 0 1-2-1l1-1h3l-4-3c1-1 3-1 3-3h-2l6-3-1-1-8 4-1-1c-3 0-3-1-3-3l2-3 2-1-1-2c1-1 1-2 3-2l3-2 5-1h1l1-1h-13l-4 2c1-3 3-4 6-4l-3-2-3-1h-4l-4 1h-8l-2 1c0 2-2 1-3 1h-5c1 1 0 1-1 2h-2l-4-1h-1l-7-1-3-1-3 1h-3l1 1-1 1-2 1h-2l-2-1-1-1v1c1 2 1 2-2 2h-1l1 2c2-1 2-1 3 1l-2 1h-1v1l2 1v-1l2-1 5 2 1 1h-5l-1 1v2h1l1-1 5 2-2 1 1 2h4l1 1h-1 1l4 2 4 1-2 2h-4v1l-3-1-1-1 4-1-4-1h-4l-4-1-3-1 1 1c2 1 2 2 0 2h-3l1-1c-1-1-1-2-3-2l-2 2 1 1-4-1-2-1 1-1-2 1v1h-1l3 1 3 1 3 2v1h-2v1l-1 1-2-1h-5l-1-1-2 1h-3a9 9 0 0 0-3-1v2c1 0 3-1 4 1h-5l1 1 4 1 3 1 4 1 2 1h2l7 1h3l3 2 1 1h-7a2 2 0 0 0-1-1h-2l-4-1-1 1h-3l-1 1v-1l-2-2-2 2-4 1 3 1h2c0 2 2 1 2 2l-1 1h-1l-1 1h-5 1v1l-1-1-3 1-2-1-2 1 1 2-2 3c1 0 2 0 1-1l2-1 1-1h2v2h2l2-1h3l1 1v1h-1l-3 2h4l1 2h-8l-1 1-2-2-2 1h-1 1l-1 1c0 1 1 2 3 2l2-2h1l2 2v-2h6l-1 2v1h-8a618 618 0 0 1-17-2h-7l-1-1h-7l1 1-5 1h-4l-4-1h-2l2 1 1 1h1l6 2h3l4 1c0 1 1 2 3 2l2-1 6 1 2 1v1c1 0 0 0 0 0l-5-1h-6l-5-1 3 2-2 1 3 2h1l2 1-2 1 2 2 5 1 5 1 6 1h2l4 1h4l3 1h6l3 1v1l-9-1-4 1h-15l-1-1-2 1-2 2c-1-1-2-2-3-1l3 3c-2 0-4-1-5 1l3 1h3-10l-3-1h-4l-6-1-1-1h12v-1h-4a9 9 0 0 1-4 0h-13l-2 1h-6l-3-1v-4l1-3-2-1-2-1v1l-2 2c-2 1-2 2-1 3l1 3 2 2h-2l-2 1c-1-2-1-2-2-1l3 2 1 1v-1c2 1 2 2 2 3l4 2-2 1-2-1-6-3-3 1-3-1 1 1h-1l-3-1-8-2-1-1h3c-1-1-1-1 1-1l1-1c-3-2-5-1-7-1l-1 1v1l-3-1v2l1 2 3 1c5-1 10 1 15 2h2v1l4 1 1 1h-4l-2-1h-11l2 2h-3l-4-1 4-1-9-1 1 1 8 3 1 1v1l3 1 3-1 4 2h-4l1 1h-2l-1 1h-1l2 2c-2 1-4-1-6-1l2 2h3l7 2 3 1v1l-1 1h-2l3 2 3-1 2 3-4 1-1-1c-1 1-3 1-2 3l-3-1h-4c-1-1-2 0-2 1l-3-1h2c-1-2-2-3-4-2h-1l-2-2h-4l1 1 6 2 1 1 5 4-4-1a51 51 0 0 0-8-2l-3-1a16 16 0 0 0-3-3v2l2 3h-2l3 1v-2l6 3 5 1h3l3 1 3 1 5 3h2l1 2v2h-1l-1-1-1-2h-4l2 2-5-1h-1l6 2 2 1 2 1v1h-2v1h-1v-1l-2-2c-2 1-1 2-1 2h-3 1a18 18 0 0 1-2-2l-2-1-2-1v2l3 2-8-2-1-2-4 1-3-1a4 4 0 0 0-2-1l-1 1h1c-2 1-2 2-1 3l1 1 6 1 3 2-1 1h-1l1 1h4l3 1h-2v1l2 2 4 1h1l2 2 6-1 2 2 2-1h3l2 1h1l1 2v1h1v1l3 2-2 1-5-1v-2h1v-1l-2-1h-3v1l-3-2-3-1-1 2h1l1 1 4 3h2l2 1 2 2v1h2l2 1 2 1c3 0 5 1 7 3l1-1h4l3 1h6l3 1c3 1 7 1 10 3l7 1 6 1 4 1c2 2 4 4 4 6l3 1-3 1v1h1l1-1 2 2-1 1 2 6 2 1 2-2-1 4-1 3v3l2 1v3h2v-1l1 1v2l1 2 2 1 2 1 2 1 1-1h1l1 2-2 2-2 1-3-1v-1h-2l-2-1v3l1 3 1 2c1 1 1 2 3 2l4 2 1 2h2l-2-2-2-2h3v2l2-1v-1c1 1 2 1 1 2v2l2-1c0 1 1 2 3 2l-1-2v-1l6 2 3-1h2v1l4 2h-1c-1 1 0 2 2 2l1 1 4-1h2l4 2 2 1v-2h5l2 2-2 2-1 2-3-2h-4l-2 1h-2l-6-2-2 1-4-2-2 1-3-1h-1v1c1 2 3 4 6 5l2-1 11 1 1 1v2h-1l-4-1-1 3v1c1 1 2 2 1 3a5 5 0 0 1-4-1l-3-2 2-1 1-1-2-1h-5l-5-1-2-2v3h3l7 2-1 3c0 1 1 2 3 2l4 1h9l4 1 2 1 8 1h8l7 1h2l5 1h2a172 172 0 0 0 35 2h8l6 2-1-1h1l5 2h1l3 2h2l1 1 7-1h23l4 1h5l5 1h10l10 1h8l6 1h27l5 1h16l-2-1h-10c-3 0-6 0-9-2l-2 1h-6l-3-1h-10l-8-1c-2 1-5 1-7-1h-20l-1-1h-13l-3-1h-4l-12-1h-1l2-1v-1h-3l-3-1-6 1h-1l7-4 2 1h-1l-1-1-1-1-1 1h-1l-4 2-3-1h-4v-4l-2 1-4-1-1 1h-4l-1-1 3-1h10l1-1h5l7 1h8c1 2 2 2 3 2h4l6 1h10l7 1v-1h-3l2-1h9l10 1 2 2-3 1 1 1h-10l-8-1a100 100 0 0 0-8 0l-13-1h-2l-9-1-2 1h3l4 1h8l3 1h19c9 2 18 2 27 2l8 1a202 202 0 0 0 8-1h-2l-8-1h-6l-11-1 3-2 1-1v-1h10l12 1h7l-1 1 1 1 3-1h27l-9 4-1 1 1-1h-2a3 3 0 0 0-1-1l-2 1h-2v1h2l1 2 1 1 6-3h2-1l8-5h7l2 1 2-1h8v1l2 1c1 1 2 0 2-1v-1h4l-16 8-2-1-2 1 1 2-5 3h-2 2l1 1 1-1h7-5l24-13h17l4 1 4-1h4l-24 12-2-2-2 2 1 1h-1 1l-1 1 2 1 29-15h7l2-1h3l4 1h1l2 1c1 1 2 0 2-1v-1h8l-9 4-14 9-2 1h1l-5 2-2-1-2 1 1 2-7 3 1 2 18-9h4l-3-1 15-8h2l5-3v2h-3a4 4 0 0 0-1 1h1v2h-1 4c-1-2-1-2 1-2h3l8-1 2 2c2 1 3 0 3-1l-3-2h-1l-7 1h-2v-1l-2-2 2-1a15 15 0 0 1 6 1c1-2 2-1 3-1 3 0 6 1 8-1h3l2 1v1h4v1h-2l-5 1h6l6 1 2-1 1-1h-5l-1-1v1l3-1h4v-1h1l3 2 1 1h7l3-1 1-1 7-1-1 2 3 2 2-2-1-1h3l11-1 2 1h13l4 1 4 2v-1l10-1 5 1 2-1 3 1c0 1-1 2-3 2h-5l-6 1-1-2h-3l1 2h-3l-2-1-2 1v1l2 1 3-1 6 2v-1l-1-1h1l2 1 2 2 2-1h1v-1h1l2 2-3 1c1 1-1 1-1 1l5 1-5 1h-1l-2 1-4-1v1h-5l-2-1-2 1v1h-5v-1l-1 1h-2c-1-1-1 0-2 1h2l-7 3h-2l2 1-8 3v1h-1l1 2 3-2h2a4 4 0 0 0 1 0v-1Zm62-14 2 1h-3l1-1Zm20-119v1l-1-1h1Zm-8 12-1-1h-1 2v1Zm0 4v-1 1Zm2-6v-1 1Zm1-9 2 1-1 1-3-3 2 1Zm-31 54v-1 1Zm13-16v1h-1v-1h1Zm-4 2 1 1h-1v-1Zm10-31v1l-2-1h2Zm-10 41 5 1c1 1-2 1 0 2v1h-7l1-1-2-1c-2 1-3 0-5-1l1-1h7Zm-8 1-1 1-1-1h2Zm-1-104h-1l-1-1h2v1Zm9-2h-1 1v1-1Zm-2-6 1 1h-2l1-1Zm-3-7h2l1 1h-5l2-1Zm-5 8h2c3 1 5 2 8 1l1 1h1c-2 2-4 1-6 1h-4l-3-1 1-2Zm2-22 2 2a1 1 0 0 1 0 1h-1l-3-1 2-2Zm-44-18v1l-3-1h3Zm-484 33-3-1 7 1h-4Zm5 0Zm2 0Zm-1-5v-1l4 1h-4Zm-52 15-2-1-1-1c2 0 3 1 3 2Zm-16 21s0-1 0 0c0-1 0-1 0 0 0 0 0-1 0 0Zm0 2v-1 1h1-1Zm13-12-3-1 1-1 4 2h-2Zm0 2h2-2Zm-15 23-1-1 1 1 1-1 2 1h-3Zm3 3s1 0 0 0Zm2-2h-1 1Zm-15 14-1 1h-2l-2-2h-1l2-1h1l5 1 5 2-7-1Zm10 6-2-1-3-1h5l1 1-1 1Zm2-3h2-2Zm4 1Zm1-2-1-1 3 1h-2Zm15-2-4-1h3l1 1Zm-5-1v1l-2-4 2 2v1Zm-1-3v-1l1 1h-1Zm9-39h3l1 1c-1 1-3 0-4-1Zm-13 45s1 0 0 0Zm-4 10v-1 1Zm4-12 1 1h-1v-1Zm-1 5 3 1c-2 1-2 1-3-1Zm4-2v-1h1l2 2-3-1Zm8-2c0 1 0 1 0 0l-1-1 1 1Zm-13 14v-1l1 1h-1Zm1 1 1-1 3 3a100 100 0 0 0-4-2Zm6 3h-1l1-1h1l-1 1Zm77 59v-1l3 2 2 1-5-2Zm26 19h-1 2-1Zm5 1h1-1Zm5 1-1-1h1v1Zm3 0-1-1h1v1Zm118 22h-2 2Zm-4-1 2 1c-2 0-3 1-5-1h3Zm-8-1Zm-6-1 1 1h-3l2-1Zm-8-3Zm-4 4h-1 1Zm382 6h-1 1Zm-2-1Zm-5-10h1-2 1Zm-2 7-2 1-1-1h3Zm31-28v-1h1l-1 1Zm-3 1v-1l1 1 1-1 2 1-1 1-3-1Zm4 2h5-5Zm5-4v1-1Zm-2 0 1 1v1h-1l-1-1 1-1Zm-14-14c3-1 6-2 10-1h6l1 1-1 1h-12l-5-1h1Zm-17 27h-2 1l1-1 1 1h-1Zm8-28-2-1 2 1Zm-4-4 3 1v1h-4c-1-1 0-2 1-2Zm-1 5-1-1 1 1Zm-19 16v1-1Zm-88 19 3-1-1 1h-2Zm-59-11h-5l2-1h4l9-1 4 1-6 1h-8Zm-71-11h-1 1Zm-3 0h-1 1Zm-41 17-1 1 1-1Zm2-2h-1l-3-1-2 1-2-1h-5l-3-1h-4l7-4 1 1 4 1 1 1h16l-6 3h-3Zm-13-1h1l1 1h-1l-1-1Zm-11-1-16-2-6-1 6-3 1 1h4l9 3h2c0-2-2-2-2-3h3l3 1h4l-7 4h-1Zm-24-1Zm2 0h-1 1Zm-55-3h-1 1Zm-2-3Zm-1 6h-1l-1-1h1l1 1Zm-6-2 3 1h-3v-1Zm3-3v-1 1c0-1 0 0 0 0h-2v-1l2-1 1 1v1h-1Zm-3 3h-1 1c0-1 0 0 0 0Zm-99-47Zm-8 19Zm0 1v-1 1Zm2-18Zm-4-143h3v1l-3-1Zm-3 10h-1v-1l1 1Zm-23 86h5l-1 2h-2l-2-2Zm32-96-2-1 6 1 4 1h2v1l-10-2Zm21-16h2l-1 1-1-1Zm2-3 1 1-1 1h-2v-1l-1-2 3 1Zm-1 10h5l-2 1h-5l2-1Zm8 2Zm1-8 1 1-2-1h1Zm3-8Zm-56 146-2-1h1l1 1Zm2 2h-1 1Zm20 19v-1 1Zm3 0h1-1Zm-1 15Zm78-158h-1l6-1c1 1 2 0 2 2l-7-1Zm202-3h1-1Zm123 192v1-1Zm-103-12h-1 1Zm-2 0h-3 3Zm-34-2h-2v-1l2 1c0-1 0 0 0 0Zm-6 2h1-1Zm-45 10h-1 1Zm75-27 1 1c-1 1-2 1-5-1h4Zm-13 1a1 1 0 0 1 0-1h2l-2 1Zm-31 10h1-1Zm-19 0h-17l7-1h7l3 1Zm-6 3-4-1 4 1Zm-7 2h1-1l-1-1 1 1Zm0-3h1v1h-1v-1Zm23-7Zm-41 3h1-1Zm8 17h1v1h-1v-1Zm7 1-2-1 2 1Zm0 0h1-1Zm10 0h3l-1 1-2-1Zm3 0h1-1Zm6-13h1-2 1Zm5 1-1-1h4l1 1h-4Zm3-4h3-3Zm3 0Zm42-11 2 1h-3l1-1Zm-16 11h1v1l-1-1Zm4 0v1-1Zm0 3v1-1Zm1 4-2-1 2 1Zm-5-4v1-1Zm-157-174Zm-2 0h-1 2-1Zm90 110h-5l-1-1 6 1Zm2-1-1 1 1-1Zm1 0h-1 1Zm28-82h1-1Zm-41 82h1-1Zm15 1Zm-31-84h-2l-2-1-2 1a210 210 0 0 0-8-1h14l1 1h-1Zm-19 0v-1h1l1 1h-2Zm12-23Zm48 4 1 1 1-1h-3 1Zm-13-1 1 1h-1v-1Zm-128 180Zm3-2v1l-1-1h1Zm282 1 1 1h-1v-1Zm7 7v1l-1 1-1-1 2-1Zm0-1h1v1l-1-1Zm7 1-1-1h3l-2 1Zm85 0Zm21-48Zm3 2-5-1 5 1Zm5-47 4 1-4 1-1-1 1-1Zm-6 0-1 1-8-1h-1v-1h7l2 1h1Zm-5-2h1-1Zm7-21c2-1 3 0 5 1h-6l-4-1h5Zm3-20h-2c-1 0-1 0 0 0h2Zm-17 43Zm-3 0-2-1 2 1Zm11-62Zm0-2 1 1h-4l3-1Zm-6 5h-4l1-2 3 2Zm-2-4h-1c-1 0 0 0 0 0h1Zm6-23v1l-1-1h1Zm-1 1-1 1-3-1h-1 5Zm-19-7h17l-1 1c-5 1-10 2-15 1a19 19 0 0 1-3 0l-2-1 4-1Zm-55-8h20l-1 1h-7l4 1 1 1h-2l-5 1-2-2h-2l-7-1h-3l4-1Zm-17-1 1 1h-5l4-1Zm-68-2Zm-26-7 8 1h13l-10 5h-7l-2 1h-1l-6-1h-5l3 1 2 1h-8l-4-2 12-6h5Zm-18 5Zm-35 11h5a70 70 0 0 1 6 1h-8l-3-1Zm-13 0 3 1-6 1v-2h3Zm-19 0 2 1h4l-1-2h7v1h-2l-2 1 2 1-5 1-5-2-3-1h-1l-2 1h-9l2-1h4l-2-1h4v1l2-1h1l4 1Zm-21-1h5l-2 1h-2l-7-1h-3l-1-1h1l2 1h7Zm-89-13 1 1h-3l2-1Zm-14 3h1l1 1h-2v-1Zm-5 6h-1l2-1-1 1Zm0-2h1v1l-1-1Zm2-3h-5l-1-1 6 1Zm-3 1Zm-24-1v-1c3-1 6-2 9-1l10 1v1h-4l3 1v1l1 2 1-1v-1l1 1 2-1 1 1-3 1 3 1h-13v-2h-3l-5-1-4-1c-2 0-2 0-1-2l2 1Zm-2-1h-1l1-1-1-2 3 1-2 2Zm-3-3-1 1 2 2h1c0 2-2 2-4 2h-2l-2-1h-3l-2 1h-1l2 1h11l4 2 2-1 2 1-2 1-14-1h-4l-5-1h-5l-2-1h-1l2-1h8v-1h3v-1h1l-2-1h1l2-2-1-1 10 1Zm-7 5h-1c-1 0 0 0 0 0h1Zm0-8Zm11-8-3-1 3 1Zm6-24v1-1Zm-11 1 2 2h-3l-3-1 4-1Zm-9 9 4 1v1l3 1v1-1h2l5 1 1 1h-10l-1-1v1l-6-1c-2-1-1-2-1-3h1l1 1 1-2Zm-4-6-1-1 1 1Zm-14 6 3 2c2 0 1-2 3-2l1-1 4 1-2 2-3 1h-6l-1-1v-1l1-1Zm5 8-1-1 1 1Zm-9-7v1h-1v-1h1Zm-1-1Zm-3 0v-1 1Zm0 5 1-1 11 3v1l-12-3Zm6 18h4l2 2h-1l-3-1-2-1Zm1 6 3 1h1-1l1 1v1h-5l-3-1-3-2c-1-1-3-2-2-3 4-1 6 2 9 3Zm-17-14 1 1h-1v-1Zm-17 3Zm8 5-7-3h2l2-1h1l6 1h1l1 2h-2l1 1h-5Zm12-4-4-1 1-1 6 1h2l3 1h-8Zm2 5v-4l3 1 1 2c-1 0 0 0 0 0h3v1h-7Zm-3 5h8l-2 2h1l-3-1-2 1a9 9 0 0 1-3-1h-1v-1h2Zm-6 1 2 1h-4l2-1Zm-10 11v1l-1-1h1s0 1 0 0Zm-3 8-4-1h5l-1 1Zm0 16Zm11-18h-5v-2h1l6 1-2 1Zm-9 36h1-1Zm-9-9v1h-1v-1h1Zm-1 2h3-3c-1 0 0 0 0 0Zm-10 3h1v1l-1-1Zm-8-5 5-1h1l-1 1 2 1h1-5l-3-1Zm-12 2h-3 3Zm-25 46v-1h1l-1 1Zm4 20-3-1a4 4 0 0 1-1-1h2l3 2h-1Zm0-1Zm5 2-2-2 3 1-1 1Zm2 0c2-1 3 0 4 1l-4-1Zm10-18h1-1Zm13-43h-1l-4-1-7-1h-2l-2-1-2-2h-3l1-1 2 1h1l20 2h7l3 2h4l8 1 1 1h-7l-2-1h-3l-1 1h-5l-8-1Zm-1 43 4 1-4-1Zm3 3v-1 1Zm-12 20h1-1Zm-3-3 9 1h-2l-7-1Zm7 2 1 1h-1v-1Zm1 2-1-1 9 3-8-2Zm11-22h4-4Zm18-41h1l1 1-2-1Zm-12 42Zm14-41-1-1h-1l-1 1-6-2h10l-1 2Zm-15 65h-5l1-2h1l7 2h-4Zm12-22Zm-6 24Zm10-20-1-1h1v1Zm-2-3v-1h1l4 2 1-1-1 1-5-1Zm4 3 4 1-4-1Zm-6 25v-2l3 1 5 3v2h-4l-4-4Zm6 10Zm2-3-1-1-1-1v-1h2l1 2-1 1Zm0 2 1 1h-1v-1Zm0 4-1-1h1v1Zm6-10v-1h1l-1 1Zm-1 3h1-1Zm0 8v-1 1Zm1-3-1-1v-1 1l1 1Zm-2 8 1-1v1h-1Zm1 3-1-1h1v1Zm2-6v-1l1 1h-1Zm2 7-1-2 2 2h-1Zm-1-7v-2c-1 0 0 0 0 0h1l1 1 4 1-1 2-5-2Zm9 4-3-1h4l-1 1Zm-5 17Zm5 10v-1l1 1h-1Zm4-9-3 1-1 2-3-2-1 1 1 1h-4v-2l1-1 5 1-1-1v-1h1l2 2-1-4-1-1c2-1 3 1 4 1h3c1 1 0 1-1 1l-1 2h1-1Zm10 3Zm1 0h1-1Zm-1 7-1-1h1l1 1h-1Zm3 1c0-2 0-2 2-1l-2 1Zm5 3v-1h1l-1 1Zm1-1s1-1-1-2h3c2 1 2 1 2 3l-4-1Zm6 0v-1 1Zm2 2v-2l2 1-2 1Zm8-1c0-1 2 0 2-2h1v1h2l1 1c-1 1 1 2 1 3h-2l-5-3Zm-4 8v1h-1v-1h1Zm-1 4v1l-4-1h-1 5Zm-7 2v1h1l-1-1Zm0 5v-1l3 1h-3Zm6-3-2-1v-1h6v2h-4Zm28 9h-1l-1-1h5l-3 1Zm34 1h-21l-6-1-1-1 1-1h-1s0-1 0 0h-1c0 2 0 2-2 1l-2-1h-5l-6-1h-6l-1-1h-9l-2-1 2-1h7l2 1h2-1v-2h4l1-1 8 1 2-1h2-1l-4-1-4-1-2 1-2-2h3-5l1 1-1-1-4-1-3 1-2-1-4-1 3-1h9l3 1 2 1 5 1h3l1-1c2 0 3 2 4 3v-2h10l4 1v1l2-1 4 3v-2l2 1 3 3h-4c1 1 2 2 3 1l2 1h2l2 1-3 1h-2v1l6-1 1 2h-1Zm-55-12a1010 1010 0 0 0 4 2h-4v-2Zm62 12h2-2Zm2-1-2-1c-2 2-2 2-5 1l1-1-2-1-2-2h1l2-1 2 1v1l3 1 2-1 3 2-3 1Zm8-15h-2v-1l2 1h1-1Zm-4 16Zm3-4h-2 2Zm2 2h-1v-1l1 1Zm2-14 3 2c-2 0-3-1-3-2Zm10 2-1-1h1l1 1h-1Zm9 2-1-1h1l1 1h-1Zm14-7h1-1Zm0 7h1v1l-1-1Zm1 7Zm4-13h1-1Zm1 0h8l1-1 2 1 5-1h1l-5 3h-1l-6-1-5-1Zm5 5-3 2-2-2h5Zm0 8c-1 0 0 0 0 0Zm1 1-1-1h1v1Zm8 0h1-1Zm35-3-16-1h-2v-1l-1-1-3 1-15-1-7-1 3-1h14l-1-1h1c2 2 5 1 7 1l3-1 2 1 1 1-1 1h-2l-2-1-1 1h8l-1-1 2-1h3l2 2 3-1-1-1h2v2l3 1 2 1-3 1Zm10 0 1-1 1 1h-2Zm8 1v-1h1l-1 1Zm8 0-2-3 5 1v1l1 2-4-1Zm33 1v-1l1-1h-3v1l-1 1h-10l-2-2-3 1h-1l1-1 3-1 3-1-6-1h-1l1 1-1 1h-1l-1 1 2 1h-2l-1-1-3 1h-1v-1l-2-2-2 1c2-1 4-2 7 0l3-1v-1l-10-1h-12l9-5v1h3l-1-1h1l2 1c1 1 2 0 2-1v-1h14l3 1 5-1-10 6 1 1 7-4c0 1 1 2 3 2l2-1c0-1-1-2-3-2l4-2h17l-1-1h5v1h6l-18 9a15 15 0 0 0-3 0h-1l-1 1h2l-1 1-5 1Zm10 0h-1l2-1 3 1h-4Zm10-1h1l1 1h-1l-1-1Zm2 1h2-2Zm14-1h-2l2-2-3-2-2 2 2 2h-2 1l-3 1 1-1-8-1h-6l-2-1 5-2v1h-1l2 1h1l2-1h4l-2-1-2 1-2-2v-1h1-1l3-1h4l-2-1 4-2h2a119 119 0 0 0 2 0h5l4-1a1 1 0 0 0 0 1v1l2 1 2-1-1-2h10l2 1h-2l-1 1-2 1v-1h-2v1l1 1h-1v-1h-1l-2 1h2l-13 7h-1Zm8-1c-1 0-1 0 0 0v1h-2l2-1Zm25 1h-21l-2-2h-1l11-5 2 1 2-1h2l4 1-1 1-4-1-2 1h1l6 1h6l6-1-8 4-1 1Zm18-2-7 1h-7l7-3 2 1 2-2h1v2h2v1Zm3-2-2 1-1-2h3v1Zm2 2v-3h4l1 1 1 1-1 1v-1l-3-2-2 2 1 1a5 5 0 0 0-1 0Zm33-2h-8l-3-1 3-2h3l1 2 2-1-1-1h2l1 2 2-1-2-1h-1 3l3 1-5 2Zm33 8-2-1h2v1Zm16-4-12 2h-18l-2-1h1l4-1 8-1h10a12 12 0 0 1 2 0h7v1Zm13-8-4-2h4v2Zm2-2h1a1 1 0 0 0 0 1h-1v-1Zm8 11Zm17-18 3 1h2l-1 1-2-1-2 1v-2Zm-2 29h1v-1l1 1h1c1 1 1 2 3 2 1 1 2 0 2-1l-1-1h5l4 1v2l-4-1-4 1h-3a6 6 0 0 1-2-1l-3-2Zm1 2Z"/>
    <path d="m1567 302-1-1h-1l-1 1h3Zm16-11 2-1v-2h-1l-1 3Zm22 107h-3l3 1v-1Zm434-168-2 1h5l-3-1Zm-463 49h-3l-3-1c3 1 5 2 6 1Zm-45 76a212 212 0 0 1 4 2l-4-2Zm53-89h4l-2-1h-2v1Zm69 171-1-1-2-1 1 2h2Zm289-177 1-1h-4l3 1Zm188 216c-2-1-3-2-5-1l5 1Zm-435-31-3 1 2 1 1-1v-1Zm-145-123v1-1Zm1-2h-1v2l1-2Zm69-72-3-1 5 1h-2Zm2 0 1 1v-1h-1Zm238 6v-1h-3l6 2-3-1Zm-156 220-2 1h2v-1Zm-155-140 1-1-3-1 1 1 1 1Zm64-61h1l2-2-2-1c-1-1-2 0-2 1l1 1h-2l-3-1 5 2Zm-18 111-1-2c-1 2-1 2 2 3l-1-1Zm1 13 1 1h3l-4-1Zm43 34c0-2 1-2 2-2l-2-1v3Zm336-184-5-1 4 1Zm225 171ZM2197 419l3-1h-5l2 1Zm-21 4c-1 0 0 0 0 0Zm4 1-3-1h-1a8 8 0 0 0 4 1Zm33 1-4 1 4-1Zm-170-191ZM2039 233l4 1-4-1Zm-487 54 4 1-3-1h-1Zm47-13h2l-1-1h-3l1 1h1Zm556-16-3-1 3 1Zm-409-5 2 1 2-2-2-2c-2 0-3 1-2 2h-2l2 1Zm415 166-2-2 2 2Zm-516 8h3l-3-1v1Zm0-1h-1 1Zm547-21 5 1-5-1Zm-86-140Zm3-1-3 1h4l-1-1Zm1 1 2-1-2 1c0-1 0 0 0 0Zm-284-20h4l-3-1-1 1Zm359 85h-4c0-1 0 0 0 0h4Zm-572-73-1 1 2 1-1-2Zm-39-6-2-2v1l2 1Zm450 219-1-1-2 2 3-1Zm-1-1Zm-443-177v1l2 2c0-1 0-2-2-3Zm371 187h3l1-1-4 1Zm0 0Zm4-1Zm211-141h-1l-1 1 2-1Zm-3 1Zm-259-84 3 2 2-1-2-2-3 1h-1 1Zm7 222 5 1-5-1ZM1916 477Zm-364-154h-4 4Zm295 143h1v-1h-2v1Zm316 16h2-2Zm-533-240h-3 3Zm9 20h-2 2Zm443 228h2-2Zm-162-11c0-1 0-1 0 0 0-1 0-1 0 0 0 0 0-1 0 0Zm3-1h-3l2 1 1-1Zm-158-235h4-4Zm56 228h3l-2-1-1 1Zm-185-77h-3 1l1 1 1-1Zm-14-1h-2 1l1 1v-1Zm-12 2v-2l-1 2h1Zm382-138v-1h-2l1 1h1Zm88-4Zm-4 0Zm0 0h4-4Zm-428 0-2-1v1h2Zm-2-1Zm5 189h-1l2 1v-1h-1Zm428 34h3-3Zm-205-251h3-3Zm3 0h1-1Zm11 1s-1 0 0 0Zm1-1-1 1h3a6 6 0 0 0-2-1Zm178 257-3 1 3-1Zm116-62 4-1-4 1Zm4-1Zm-230 60h-2l2 1 3-1h-3Zm87-251h-4 4Zm-485 75-1-1 1 1Zm-5 22-1-1h-1l2 1ZM1552 323c0 1 0 1 0 0 0 0 0 1 0 0Zm8 7h1v-2l-1 2Zm430-74h-2 2Zm-358 146h-1v1h1v-1Zm-53-20h2v-1h-1l-1 1Zm57 36-1 1h2l-1-1Zm49 28Zm-2-2-1 1h1l2 1-2-2Zm201-220Zm3 1-3-1a9 9 0 0 0 3 1Zm278 22-3-1 3 1Zm-3-1h-1 1Zm-529-13h-3 3Zm-1 10h1-1s-1 0 0 0Zm-27 26 2 1-2-1Zm-16-1h-2 2Zm16 27 3 1-3-1Zm-35 6v-1h-1l1 1Zm378 178h3-3Zm227-56h-2 2Zm-259 47Zm-65-234v-1l-1 1h1Zm-291 109c-1 0 0 0 0 0Zm-3 0h3-3Zm177-105-2-1 2 1Zm-2-1Zm63 223-1 1 1-1Zm-215-93h-1l1 1h1l-1-1Zm320-115h-2 2Zm295 207v1h1l-1-1Zm-548-46h-1v1l1-1Zm-80-35v-1 1Zm2 1-2-1 2 1Zm545-125h-2 2Zm-527-2c0-1-1-2-2-1l2 1Zm591 26h2-2Zm0 0Zm-14-20h1v-1h-1v1Zm0 69h1l-1-1v1Zm-540-81h1-1Zm8 13-1-1v1h1Zm302-2c0-1 0-1 0 0 0-1 0-1 0 0Zm166 222h2-2Zm68-185Zm0 0h-2 2Zm-41-43h2-2Zm3 0h-1 1Zm-90 214h3-3Zm-2 0h2-2ZM2040 467Zm-2 2 1 1 1-1h-2Zm122-150h1l-1-1v1Zm-55-54c0-1 0 0 0 0h1-1Zm85 98h1-1Zm13 42h-2 2Zm-596-112h-2 2Zm-6 2h1-1c0-1 0 0 0 0ZM1602 295Zm5 3h1-1Zm265-74Zm-2 0h2-2Zm329 115v-1h-1l1 1Zm-11 31c0 1 0 0 0 0Zm20 48Zm0 0h2-2Zm-51-159Zm2 0h-2 2Zm-88-5 2-1-2 1Zm-508 48-1-1-1 1h2Zm624 116 2 1-2-1Zm7 8v-1 1Zm1-1-1 1 1-1Zm-650-94h-1 1Zm6 14 1 1c0-1 1-1-1-1Zm1 1 1 1-1-1Zm218-94 1-1h-1v1Zm-133 143 1 1-1-1Zm361-173h3-3Zm-100 28v1h2l-2-1Zm191-1h-1 1Zm-517 127h-1v1l1-1Zm212 98 1 1-1-1Zm-212-96h1-1Zm-6-3-1 1h1v-1Zm-5 3v-1h-1l1 1Zm8 5v-1l-1-1 1 1v1Zm0-2c-1 0 0 0 0 0-1 0-1 0 0 0Zm-37-12v1h1l-1-1Zm537-111v-1 1c0-1 0-1 0 0ZM2071 257l-2 1h2v-1Zm-429 165a14 14 0 0 1-1-1l1 1Zm48 24h2-2Zm484-145Zm-4-47h-1 1Zm0 0 2 1-2-1Zm2 1h1v-1l-1 1Zm-37 219v1h1l-1-1Zm16-215v1l1-1h-1Zm-51 205Zm0 1v-1 1Zm-105-209Zm-349 6h1-1Zm450 210Zm1 0h1-2 1Zm7 3h-1 1Zm3 6Zm56-186h1-1Zm-61-30 1 1-1-1Zm0 0h-1 1s-1 0 0 0Zm3 223v1h1v-1h-1Zm-256-253h-1 1Zm0 0h1-1Zm179 235Zm31 21h-1 1Zm-447-203h-1 1Zm564-8h2-2Zm0 0Zm-558 14v1h1l-1-1Zm2 3h-1 1c0 1 0 0 0 0Zm-1 0Zm419 194h1-1Zm-436-196h2-2Zm3 0h-1Zm-24-9Zm588 137h1-1Zm-240 48h2-2Zm0 0Zm19 8Zm-2 0h-5 7-2Zm-19-8h2-2Zm-144-217h1l-1-1v1Zm1 0Zm-5-1h1-1Zm126 223h-1 1Zm-363-163v1-1Zm19 15Zm2 0h-1 1s-1 0 0 0Zm601-42h-1 1Zm1 0a3 3 0 0 0-1 0h1Zm-314 179h-1l1 1v-1Zm-298-126h-1 1Zm642 3Zm-666-5h1-1Zm278 129h2-2Zm-274-123h1-1Zm201-98h-1 1Zm1 0h-1 1Zm427 84v-1h-1v1h1Zm-609 33Zm1 0h-1 1Zm-8-2h-1 2-1Zm516-107v-1h-1l1 1Zm-271 222Zm-161-268h-1 1Zm94 45h1-1Zm-76 162-1-1 1 1Zm0 0h1-1Zm123 57-2-1 2 1Zm-240-103v1-1Zm115 54h2-2Zm-127-57Zm152 78v-1l-1 1h1Zm-15-5h1v-1h-1v1Zm543-106-1-1v1h1Zm-28-35h-1 1Zm1 0Zm0 0h-1 1Zm-271-43h1-2 1Zm181-2 1 1-1-1Zm1 1Zm-219 2h-1 1Zm-1 0Zm-22-9h1-1ZM1842 246l1 1 2 1 2-1-2-2-2 1h-1Zm369 172h-1 1Zm-393-176v1l2 2 3-1-3-2h-2c0 1 0 1 0 0 0 1 0 1 0 0Zm374 176h1-1Zm-10 1Zm-1-1 1 1-1-1Zm11 7 2 1-2-1Zm2 4h2-2Zm-468-210Zm447 204h-1 1Zm-411-181Zm383 177Zm0 0h2-2Zm2 0Zm7 5h1-1Zm1 0Zm-115-197Zm71 31Zm-361-5h1-1Zm1 0Zm342-4v1-1Zm21 9h1-1Zm1 0Zm-406-13Zm13 6h-1 1Zm405 11h-1l-1 1h-1 1l1-1h1Zm-424-16-1-1v1h1Zm462 213Zm-502-228h1l3 1-2-1h-2Zm466 31Zm62 215v1h1l-1-1Zm4-154v-1h-1v1h1Zm-42 145h-1v1h1v-1Zm-123-220Zm0 0Zm-402-16h-1 1Zm547 257Zm-545-247 1 1-1-1Zm515 18v-1h-1l1 1Zm16 0h1-1l-1-1 1 1Zm-538-5Zm13 7h1-1Zm-12-3Zm543-5Zm-532 19 1 1v-1h-1Zm515-16h2-2Zm-72 218h1-1ZM2079 475Zm-491-221Zm0 0Zm537-1Zm0 0Zm-519 22Zm-14 1h-1 1Zm460 210h1-1Zm4 5ZM2057 491h-1 1Zm-466-211Zm464 211h1-1Zm-514-231Zm37 20h1-1Zm14 7v1-1Zm573-40Zm0 0h1-1Zm-561 49h-1 1Zm0 2v-1 1Zm-6 1Zm-23-7v-1 1Zm407 186c0 1 0 0 0 0Zm1 0v1l-1-1Zm-28-5h1-1Zm-14-2v-1 1Zm87-222ZM2029 249h-1 1Zm-2 0h1-1Zm-8-2Zm-2 0h2-2Zm-108 229h-1 1Zm-361-158h-1s1 0 0 0h1Zm496-69Zm-511 74c-1 0 0 0 0 0Zm-7 0Zm484-68Zm180 82Zm-118-78h1-1Zm-519 88Zm509-93h1-1Zm0 0Zm-83-6h2-2Zm12 6h-1 1l1-1-1 1Zm72 0h1-1Zm-497 112Zm-1 0h1-1Zm-13-4h1-1Zm24 11Zm390-127h-2 2Zm21 10h1-1Zm5 2Zm0 0Zm-373 136Zm-79-36s0 1 0 0Zm78 36h1-1ZM1618 394Zm368-135a2 2 0 0 0 0-1v1Zm0-1h-1 1c-1 0-1 0 0 0 0 0-1 0 0 0Zm-205 214h1-1Zm-202-90h1-1Zm9 5Zm389-128Zm0 0h2-2Zm-407 121Zm-6-2-1-1v1h1Zm32 16Zm-26-10Zm336-153Zm-207 216Zm-1-1v1h1-1v-1Zm174-222h2-2Zm2 0Zm-227 200h-1 1Zm220-200h-1 3-2Zm-194 216h1-1ZM1865 224h1a2 2 0 0 0-1 0Zm137-2h-1 1Zm181 149Zm-157-124h-1 1Zm-1 0Zm-372 196c0-1 0-1 0 0h1-1Zm8 5h-1 1Zm5 6h1-1Zm411-197Zm-12-3h2-3 1Zm6 5-1 1h-1 1l1-1Zm97 47Zm-106-46h3-4 1Zm0 0-1 1 1-1Zm-1 1a4 4 0 0 0-2 0h2Zm127 63Zm-171-77Zm-2 7h1-1c1 0 1 0 0 0Zm-6 1h1-1Zm8 4c0-1 0-1 0 0Zm171 78Zm-9-4Zm-167-76h-1v1l1-1Zm-2 1Zm0 0 1-1-1 1Zm-81-34Zm248 118Zm-21-6Zm-247-112h-1 1Zm76 34h-1 1Zm-80-34h-1 1Zm-1 0Zm-3 0h1-1l-1 1h-1 1l1-1Zm-9 0-1 1 1-1Zm0 0ZM1891 225c0-1 0 0 0 0Zm-22-1h1-1Zm34 16Zm-39-16h-2 3-1ZM1861 224h1-1Zm-2 0h-1 1Zm52 30Zm270 123Zm-308-139Zm25 13Zm-32-14h-1 1Zm337 168s1 0 0 0Zm-2 0h-1v1l1-1Zm-341-151c1 0 0 0 0 0Zm0-1v1-1Zm-30-8Zm349 160ZM2179 405Zm15 13h-1v1l1-1h1-1Zm14 8h-4 5v-1l-1 1Zm-19-7s1 0 0 0Zm-434-196Zm447 203h-1 1Zm-20-7h1-1Zm1 0 1-1-1 1Zm-2 0v-1 1Zm0 0h-1 1Zm-1 0Zm-433-197Zm435 201v1-1Zm-455-192Zm11 9c0-1 0-1 0 0Zm-12 14v-1 1Zm-63-26ZM1663 228v1-1Zm535 250Zm-29-5h-1 1Zm1 1c1 0 1 0 0 0Zm6 9h-1 1Zm-9-1Zm10 6h1-1Zm-544-236Zm-10-4h1-1Zm0 0Zm19 12-1-1 1 1Zm461 211v1-1Zm-1 1 1-1h-1v1Zm-516-232v1-1Zm37 19h1-1Zm479 222h2-2Zm-20-6Zm-450-199ZM1632 276Zm456 209h1-1Zm-51-18h-1 2-1Zm-7 3h1-1Zm-437-199Zm-8-2Zm-12-3Zm443 205h1-1Zm0 0Zm-422-188Zm21 13v1-1Zm-7 0Zm394 181h1-1Zm0 1c0-1 0 0 0 0s0-1 0 0Zm-419-187Zm409 187h-1 2v-1l-1 1Zm-423-190Zm414 190Zm0 0Zm-430-193Zm-3 2Zm583-66Zm0 0Zm-564 82Zm358 168Zm-4 0h-1 1Zm-376-170Zm624-48Zm-263 223Zm0 0Zm249-217Zm-7-2h1-1Zm3 3Zm-27-7 1-1-1 1Zm0 0h-1 1Zm7 4h-1l1 1v-1Zm-4-1h1-1Zm42 19h-1 1Zm-1 0Zm-641 49v1-1Zm0 1Zm580-75-1 1v-1Zm-1 1Zm24 11ZM2132 262Zm-321 201Zm299-208h1l1-1h-1l-1 1s0-1 0 0c0-1 0 0 0 0Zm0 0h-1 1Zm-286 216ZM1824 471Zm285-216Zm0 0Zm2 2Zm1-1-1 1 1-1Zm-533 108h-1Zm-1 0Zm513-114Zm29 13h-5 5Zm-505 121v1-1Zm435-151Zm-435 160h1-1ZM1616 393Zm479-139h-1 1Zm-487 138v1-1Zm-23-9Zm454-153Zm-395 180Zm468-146Zm-548 114Zm-15-4Zm10 5Zm-15-6h1-1Zm-5-2Zm543-119-1 1 1-1Zm0 0Zm-2 1h1-1Zm-427 172h-1 1Zm423-172Zm-520 132Zm131 60Zm-116-50h1-1Zm503-142h-1 1ZM2074 253Zm-410 185v-1 1Zm-7-1Zm-18-6Zm0 0Zm441-174Zm-371 221h1-1Zm213-20Zm3-1-3 1 2 1 1-2Zm-7 1h-1 5-4Zm61-5Zm-7 3h-2l2 1v-1Zm15 1 1 1h2l-2-1h-1Zm-10-3Zm0 0h-2 2Zm-31 0h-2 2Zm-15 1-1-1v1h2-1Zm24 2v1h1l-1-1Zm-32 3 1 1v-1h-1Zm-5 0h2-2Zm2-8-1-1 1 1Zm-3 8h1-1Zm68-4h2-2Zm-40 2v1h1l-1-1Z"/>
    <path d="M1945 459h1-1s0-1 0 0Zm-43-6v-1 1Zm-56-3h-1 1Zm134 2Zm2 3Zm-40-2Zm-10-2Zm-206 10h-4l-3 1 6 1c0-1 2-1 1-2Zm8-1 3-1-2-1-1 2Zm4-1h3l-1-1-2 1Zm-7-1h1-1Zm1 4h1-1Zm-17-2v1h1l-1-1Zm33 5Zm-10-1Zm-10-2ZM1718 462h1-1Zm33-1Zm-14-2h1v-1l-1 1Zm16 7Zm-22-6h1-1Zm-3 3Zm138-5 1-1h-5c2 1 3 2 4 1Zm-4-1Zm-1 0h-1l1 1 1-1h-1Zm-183-198Zm49-1h3-3Zm3 0v1-1Zm-15 1Zm-34 192h-1 1Zm0 0 2 1-2-1Zm19-194c0 1 0 1 0 0v1-1c0 1 0 1 0 0ZM1701 257h-1 1Zm13-23Zm333 221v1-1Zm-142 4Zm-249-208h-1v1h1v-1Zm501 158Zm3-1h-3v1h2l1-1Zm-397 55h2l-1-1-1 1Zm-2-1Zm0 0Zm-116-71Zm-3-2h-1 1Zm1 1Zm26 34-1 1 1-1Zm-1 1Zm0 0h1-1Zm-40-43h1-1Zm0-1v1-1Z"/>
  </g>
  <g clip-path="url(#c)" fill="#F6F4F4">
    <path d="m1472 206 4-2-1-2-4 2 1 2Zm-77-24 4-2-1-1-4 2 1 1Zm29-30-2-1-3 2 1 1 4-2Zm-15-8-1-1-8 4 1 1 8-4Zm-45 8-1-2-4 2 1 2 4-2Zm-16 7-1-1-4 2 1 1 4-2Zm25-27-1-2-4 2 1 2 4-2Zm-54 11-1-1-4 2 1 1 4-2Zm-27 14-1-2-4 2 1 2 4-2Zm39-35-1-2-4 2 1 2 4-2Zm-39 19-1-1-4 2 1 1 4-2Zm-27 14-1-1-16 7 1 2 16-8Zm-55 27 32-16-2-1-31 16 1 1Zm-18-6 47-24-2-1-46 24 1 1Zm-8 4 4-2-1-1-4 2 1 1Zm33-32-2-1-27 14 1 1 28-14Zm-41 18 2 2 7-4-1-2-8 4Zm-22 13 4-2-1-1-4 2 1 1Zm60-45-1-1-4 2 1 1 4-2Zm-24 12-1-2-4 2 2 2 3-2Zm-7 4-2-2-3 2 1 1 4-1Zm-24 11-1-1-4 2 1 1 4-2Zm395 282-10 5-2-1c-1 0-3 0-2 1l1 2-14 7 1 1 27-14-1-1Zm-62 31 1 1 4-2-1-1-4 2Zm52-41-6 2-2 1h-1l1 1-17 8-2-1c-1-1-2 0-2 1l1 2-8 3 2 2 35-18-1-1Zm-66 33 1 1 4-2-2-1-3 2Zm17-24-3-2-2 2 2 1-13 7 1 1 19-10-1-1-3 2Zm4-18 1 1h2l2 2 2-1-2-2h-1l5-3-1-1-8 4Zm-70 35 1 1 12-6-1-1-12 6Zm36-34-20 10-2-1-2 1 1 2-23 12 1 1 47-23-2-2Zm-72 21 1 2 4-2-1-1-4 1Zm-65 18 1 1 4-2-1-1-4 2Zm9-20-8 4 1 1 8-4-1-1Zm-20 9 1 2 4-2-1-2-4 2Zm-6-12 1 1 4-2-2-1-3 2Zm-30 0 1 1 4-2-2-1-3 2Zm-24 11 1 2 4-2-1-2-4 2Zm-27 14 1 1 8-4-1-1-8 4Zm40-35 1 1 4-2-1-1-4 2Zm-3 3-1-1-4 1 2 2 3-2Zm-13 4 2 2 4-2-2-2-4 2Zm-23 12 1 1 20-9-1-2-20 10Zm9-20-19 10 1 1 19-10-1-1Zm101-223-3-2-2 1 2 2h2l1-1Zm-15-4-2 2 2 2 2-2-2-2Zm-22-1c0-1-1-2-3-2l-2 2 3 1h1l1-1Zm-15-3c-1-1-2 0-2 1l2 2 2-1-2-2Zm1 9-3 1c1 1 1 2 3 2l2-1-2-2Zm-13-11c-2 0-3 0-2 1l2 2 2-1-2-2Zm-13-1c-1-1-2 0-2 1l2 2c2 0 3-1 3-2l-3-1Zm1 9c-1-1-2 0-2 1l2 2 2-2-2-1Zm-25-13c-2 0-3 1-2 2l2 2 2-2-2-2Zm0 9-2 2 2 2c2 0 3-1 3-2l-3-2Zm-27-10 2 2 2-2-2-2-2 1h-1 1v1Zm3 7c-2 0-3 1-3 2l3 2 2-2-2-2Zm-13-10c-1-1-3 0-2 1l2 2 2-1-2-2Zm-13-2-2 1c0 1 1 2 3 2l2-1c0-1-1-2-3-2Zm1 12 2-1-2-2-2 1 2 2Zm-13-10 2-2-2-2-2 2 2 2Zm-12-2 2-1-2-2-2 1 2 2Zm0 6-2 1 2 2 3-1-3-2Zm-12-8c1 1 2 0 2-1s-1-2-3-2l-2 2 3 1Z"/>
    <path d="m1152 192 1 1-9 5 1 1 35-17-1-1-23 11-2-1c-1-1-2 0-2 1Zm-11-12-2 1 2 2c1 0 3 0 2-1l-2-2Zm-1 10 2 2 2-1-2-2c-2 0-3 0-2 1Zm0 9 2 2c1 0 3 0 2-1l-2-2-2 1Zm-12-1 2 2 2-2-2-2h-2v2Zm3 11 2-2-3-2-2 2 3 2Zm-13-11 2-1-2-2-3 1c0 1 1 2 3 2Zm-51-24c2 0 3-1 2-2l-2-2-2 2 2 2Zm-1 7 2 2 2-2-2-2c-2 0-3 1-2 2Zm-11-9 2-1-2-2c-1-1-2 0-2 1l2 2Zm-2 7c0 1 1 2 3 2l2-1c-1-1-1-2-3-2l-2 1Zm-10-9c1 1 2 0 2-1l-2-2-2 1c0 1 0 2 2 2Zm-2 8 2 1c1 1 2 0 2-1l-2-2-2 2Zm1 9 2 2 2-2h1l-2-1-1-1c-2 0-3 1-2 2Zm0 9-1 1h-8l1 1h3l2 1 4 1 4 1h2l-1-1-3-1v-1l2-2-2-2c-2 0-3 1-3 2Zm5 9-2-2c-2 0-3 1-2 2l2 2 1 2 1-1h1v-1h-2l1-2Zm-17-36c2 0 3-1 3-2l-3-2-2 2 2 2Zm-1 7 2 2 2-1-2-2c-1-1-2 0-2 1Zm0 9 2 2 3-1-3-2-2 1Zm1 9 2 2 2-1-2-2-2 1Zm5 10-3-2-2 1 2 2 3-1Zm-2 10 2-1-2-2-2 1 2 2Zm0 9 3-1c-1-1-1-2-3-2l-2 1 2 2Zm-15-56 2-1-2-2-2 1 2 2Zm-2 7c0 1 1 2 3 2l2-1c0-1-1-2-3-2l-2 1Zm1 9 2 2c1 1 2 0 2-1l-2-2-2 1Zm0 10 3 2 2-2c0-1-1-2-3-2l-2 2Zm3 11 2-2-2-2-2 2 2 2Zm1 9 2-2-2-2c-2 0-3 1-2 2-1 1 0 1 2 2Zm568 198 2-2-3-2-2 2c0 1 1 2 3 2Zm0 9 2-2-2-1c-1-1-2 0-2 1l2 2Zm3 8-2-2-3 1 3 2 2-1Zm0 9-2-2-2 1 2 2 2-1Zm1 9-2-2-3 1 3 2 2-1Zm-2 7-2 1 2 2 2-1-2-2Zm-14-38c-2 0-3 0-2 1l2 2 2-1-2-2Zm3 20-2-2-2 2 2 2 2-2Zm1 9-3-2-2 2 2 2c2 0 3-1 3-2Zm-2 7-2 2 2 2 2-2-2-2Zm-11-17c0-1-1-2-3-2-1-1-2 0-2 1l1 1h-2 2l2 1 2-1Zm0 9-2-2-2 1 2 2 2-1Zm-2 7-2 1c0 1 1 2 3 2l2-1c0-1-1-2-3-2Zm-12-11c-2 0-3 1-3 2l3 1c1 1 2 0 2-1l-2-2Zm0 9-2 2 2 2 2-2-2-2Zm-13-10c-1-1-2 0-2 1l2 2c2 0 3-1 3-2l-3-1Zm-9 9-2-2-3 1c1 1 1 2 3 2 1 1 2 0 2-1Zm-13-11-2-2c-2 0-3 1-2 2l2 2h1l2-1h-1v-1Zm-15 0 3-1c-1-1-1-2-3-2h-1l-2-1-5 2h6l2 2Zm1 6-2 1 2 2 2-1-2-2Zm-13-17c1 1 2 0 2-1s-1-2-3-2l-2 2 3 1Zm2 8-2-2-2 2 2 2 2-2Zm-14-3-3 1 3 2 2-1-2-2Z"/>
    <path d="m1483 441-1-1 5-1h-14l24-12-2-1-25 13-2-2-2 2 1 1-22 11 1 2 24-13h8c0 1 1 2 3 2l2-1Zm-16-13-2 2 3 2 2-2c0-1-1-2-3-2Zm-12-10c-2-1-3 0-3 1l3 2 2-2-2-1Zm0 12 2-2-2-1c-1-1-2 0-2 1l2 2Zm1 9 2-1-2-2c-2-1-3 0-3 1l3 2Zm-25-3 2-2-2-2-2 2 2 2Zm-13-14-2 1 2 2 2-1-2-2Zm-12 2 2-2-2-2-2 2 2 2Zm0 9c2 0 3-1 3-2-1-1-1-2-3-2l-2 2 2 2Zm-12-11 2-1c0-1-1-2-3-2-1-1-2 0-2 1s1 2 3 2Zm-13-2c1 0 3 0 2-1l-2-2-2 1 2 2Zm1 6c-2 0-3 1-3 2l3 2 2-2-2-2Zm-11-9-2-2-2 2 2 2 2-2Zm-14 6-2 1 2 2c1 1 2 0 2-1l-2-2Zm-13-16 2-2-2-2c-2 0-3 1-3 2l3 2Zm-12 13-2 1c0 1 1 2 3 2l2-1c0-1-1-2-3-2Zm-13-20-2 1 2 2c1 1 2 0 2-1l-2-2Zm-11 17c-2 0-3 0-2 1l2 2 2-1-2-2Zm-13-2-2 2 3 1c1 1 2 0 2-1s-1-2-3-2Zm-12-1c-1-1-2 0-2 1l2 2 2-1-2-2Zm235-208Zm-557 57c-1 0-1 0 0 0-1 0-1 0 0 0 0 0-1 0 0 0Zm125 136s-1 0 0 0c-1 0-1 0 0 0-1 0-1 0 0 0Zm-26-25Zm326-165c0-1 0-1 0 0v-1 1Zm132-2Zm-450-33Zm259 253c0 1 0 1 0 0 0 1 0 0 0 0Zm124-11h-1 1Zm16-206c-1 0-1 0 0 0-1 0 0 0 0 0Zm-390 190Z"/>
    <path d="M1523 419h-5v-2l2 1-1-1c-2-1-5-2-7-1l-6 1h-1l1-1-3-2-2 2 2 1-1 1h-4l-20 2-1-1-3 2h-5l-2-2c-2 0-3 0-2 1v1h-4l-2 1-7 1-5-1h-3v1h-2l10-5-1-1-13 7h-6l-2-1-2 1h-3l-4 1h-1l-10 1h19l2 1 2-2h2l-14 7-2-1c-1 0-3 0-2 1l1 2-17 8 1 2 36-19h3v1l2 2 2-1-1-2h15l7-1h4l1 1 3-2h3l2 1c2 0 3-1 3-2h3l4-1h14l-1-1 8-1 2 1h-2l4 1 6-1h5l-2-1Zm-21 1h-1 1Zm10-1 2-1 1 1h-3ZM1410 426Zm115-6Zm-522-74ZM994 344h-1c-2 1-3 0-5-1l-2-1h-7l-4-1-2-1v-1l-1-1-1-1v-4l-2-2-2-1-2-1v1l-2 1-1 1 4 2v1h-1c-1 1 1 1 2 2l-1 1-2-1h-6v-1c0 1 0 2 2 3 2 0 3-1 5 1h4l1 1 1 2 1-1v-1l3 1 5 1c1 0 3-1 5 1h2l4 1h4l2 1h6l-3-1-6-1Zm-26-9v1s1 0 0 0v-1Zm-2-2-1-1v-1l3 1 2 2-4-1Zm561-134 12-1 8-1 13-1c3 0 6 1 8-1h-12l-4 1h-3l-15 1h-1l-9 1-8 1 2 1 9-1Zm-11 0h-1 1Zm-76 1h3v2h7l2-1h16-4l-14-2h-4l-2-1h-4l-3-1v1h-1l4 2Zm10 2-3-1c2-1 2 0 3 1Zm-5-2v1-1Zm-368 200Zm0-2 4 3h6v-1h-1l-4-1-4-2-3-1h-3v-1h-2l-1 1c-2-2 0-3-3-5l-1 1 2 5h2l4 2 4 1v-2Zm0 0Zm332-227ZM1411 172h6l8 1 14 1v-1h-1l-9-1-6-1h-7l-4-1-3 1 2 1Zm28 2-1-1 1 1Zm144 181h-1 1Zm24-1c0 1 0 1 0 0 0 1 0 1 0 0Zm-27 2v1l1 1 5-1h14l-1 1h3l-1-1 1-1h6l-1-1h-2v1h-17l-5-1v1h-3Zm-73 69 7 1v1l2 2 2-2-1-2a3 3 0 0 1 1 0l8-1 1-1h1v-1h-4l-4 1-7 1c0 1-1 2-3 1h-3Zm-451-59c-1 1-3 0-2 2l-4-1-1 1 2 2 4 1 5 1-1-3h-1l-2-3Z"/>
    <path d="M1059 369Zm-67-128h-1l1 1c1 2 2 2 3 2l6 2h1l-2-2c3 0 5 0 8 2h1l-4-3h-3l-5-1-5-1Zm594 120h14l2-1h-21l2 1h3Zm-5-1v1-1Zm-69-158-1-2h4-5l-7-1h-1l-3 2h-8l-1 1 7-1h6c4 0 7 0 10 2 0 0 1-1-1-1Zm1 1Zm-89 215h-1 1Zm-366-238 2 2 4 1h1l-3-3-1-2-2-1h-2v1l1 2Zm464 25Zm2 0 1 1-3 1h14v-1h-6l-4-1h-4 2Zm-50 221h-6l3 1h17l-2-1h-12ZM960 263h-2l-9-3h-1l2 1 1 2 4 1 4 1h1v-2Zm625 6 5-1 1-1v-1h2c-1-1-2-2-4-1l1 1-1 1h-1 1l-2 1-4 1v1l2-1Zm-261-69Zm-1 0-14-1v1h15-1Zm-253 201h-1l-5-1c-2 0-3 0-3-2h-2l2 3h2l8 1-1-1Zm333-192c0 1 0 1 0 0Zm-389 137 4 3 2 1 1-1-3-3h-4Zm-4-140 1-2-1-1h-6v1l6 2Zm444-22h2l-1-1 1-1h-1v-1l-3-1-3 1h1l4 3ZM975 327l-2 1 1 1 4-1v-2c-2-1-1-2-2-3l-2 1 1 1 1 1-1 1Zm61 22Zm-4-1a5 5 0 0 1-2 0h-4l2 1 2 1 2-1 4 1-4-2Zm-54-13h2c1 1 3-1 3-1l-1-1-3-1v2h-2l1 1Zm589-100c-1-1-3-1-3-3l-1-1-3 1 3 1 3 2 2 1 2 1v-2h-3Zm-573 92c-2-1-3-2-5-1h-2v1l2 1 3-1h2Zm412-123h3-2c-1-2-2-1-3-2h-5l3 1c2 0 3 2 4 1Zm-408 21c1 0 1 0 0 0l3-1-4-2v3h1Zm350 203ZM944 287l2-2-7-2 5 4Zm11 46h-3l4 3 2 1-2-2-1-2Zm103-144-2-2-2 1h-4 1v2l2-1 2 1h1l3 1-1-2Zm394 251 7 1v-1h-7Zm-283-268h-1 1ZM1179 171h1-1a240 240 0 0 0-10 1h8l2-1Zm254 31 2 1 5-1h-7Zm141 148h2l1-2h-3v2Zm0-2Zm-151-145h9l-1-1h-8v1Zm-386 141-2-2-3 2h5Zm263-170 6-1h-7l1 1Zm302 115v1h1v-3l-4-1 2 1 1 2Zm-610-43h4l-2-1c-2 1-3 0-4-1l2 2Zm-2-2h-1 1Zm537 194 2 1 2-1-1-1v-1l1 1-1-1v1l-1-1-2 1h-7l6 1h1Zm-7-1Zm95-70h-8 8Zm-36-83 3-2h-3v2Zm3 148-8-1 8 1Zm10-163c2 0 0 2 2 3l2-1-1-1-2-1h-1Zm-130 151 1-2h-3l2 2Zm-57-249-7-1 7 1Zm0 0Zm159 40-3-3h-2l1 1 2 1 2 1Zm-5-3Zm-514 150v1h5l-4-1h-1Zm-108-72 5 1h1-1l-5-1Zm455 141h-2 2Zm0 0h6-6Zm128-10h-1 1c-1 0-1 0 0 0 0 0-1 0 0 0Zm5-1h-3l-2 1h3l2-1Z"/>
    <path d="M1510 437a5 5 0 0 0-2 0l8-4h4l-3-1 5-2h10c1 1 1 2 3 1l-1-1 5 1 2 1 2-1v-1l3 1h5v1l2 2 2-2v-1h9l1-2h-1c0 1-1 2-4 1h-3l-3 1-2-2 3-1c1-1 3 0 4 1l1-1 8-1 6 1h5v-2l-1-1h1l-1-1-1-1 1 1h-2l-3-1 2-1h-1l-9-1-1 2-3-2 2-1h-3l-1-2 1-2h2l2 1h1l1 1h1-1l-1-1 1-1 2 1v-2h6-2v-1h3l-1 1h2c0-2 0-2 2-2l-3-1-1-1h-6v1h-6v-1l-1-1 9-1-2-2 3-1v-1l2 1 2 1-1 1 2 2 2-1-2-2h14v-1h1l1-1-3-2v-1l10-1v-1h3l-1-3c-2-1-4-1-5-3h4l-1-2h6v-4l1-1c-2-2-5-2-8-3l6-1h8l-2-2-2-1-6-1-1-1-3-1v-2l-1-1-1-2c0 2 0 2-2 2h-13l-1 1h-3c-2 0-4 0-5-2h-6l-2-1h-4l3 1 1 2 4 1h-3l-1 1-6-2v-1l3-1-4-1c-2 1-4 1-7-1l-2-1 2-1 2-1-2-1h2l1 2 3 1 3-1-2-2h4l1-1-1-1 6-1c2 0 3 0 4-2l1-1h8-1l-3-1h-2l2-3h1v-2h8l-1-1-6-1h-10v-1h2c1-2 1-3 3-3l-1-1 1-2v-4l-4-2c-2 1-2 1-4-1h1l3-1 1 1c2-1 0-1 0-2h7l-2-1 4-2 1 1 3-1 2-1 2-1-3-4h2l-2-1 2-1 1 1 1-1-5-4 2-1s-1-2 1-2v-2l1-1v-5l3 2 2 2-1-2v-2l-1-1 1-2 2 1 2 1h3l-1 1h2v-2l-3-4-5-3v1h-2l-3-1-4-3-2-1-7 1-2-1-6-1-1-1 3-1c5 0 5 0 9-2l1-1h6l1-3v-1l-3 1-4 1h-1l1 1h-4l-2 1h-8l5-3 1-1-3 1h-5v1s0 1 0 0l-6-2-1 1-1-1 1-1h5v-1h3l1-1-1-2-2 1h-4l-2-1v-1h6c-2-2 0-3 0-4l3-1-4-1 2-1-2-3 1-1-2-1v-1l6-1a5 5 0 0 1-1 0h-1c-1-3-1-3 3-3v-2l-7-1-8-1h-4l-2-2h9l1 1 2 1 2-2v-2l1-2-2-3 3-1 7 2h2l-3-1 6-1-1-3c-1-1-1-3-4-3l-3-1h-1v1l-4-1-1-1 1-1c1 0 3 1 4-1h11l-1-1a7 7 0 0 0-2 0l-5-2h-3v-2h-3c-1 0-2 0-1 1v1l-1-1-4-1-2 1h-3a17 17 0 0 1-1-2c0-2 2-2 4-2l2 1c-1-1 0-1 1-1l3-1 3-1 5 1v-2l6-1-3-1h-5l-2-1-1-1h4v-4h2l4-1h10v-1l-2-1-3 1h-5l-3-1 3-1-2-1h-3l-3 1-6-1-8 1-19 2h-2l-2 1-1-1-7 1h-13l-6-2h-3l-9-1-1-1h10l4-1h1l1-1-2-1c0-2 2-3 3-5h11l3-1-4-1h3l1-1h-5l2-1-2-1h-9l-2-1 2 1-1 1h-6l-4-1-3 1-3 1 5 1-1 1-10 1h-1l3 1h6l5-1 1 1-2 1h-9l-9 1h-10l1-1-1-1 4-2-2-1-7 4h-7l-4-1h-15l5-2-1-1 10-1h2l10-1 7-1h-7l-11 1h-9l-3 1h-10l-8-1 1 1-1 1h3l2 1a47 47 0 0 0 7-1h5l-6 3-10-1h-12c1 2 0 2-1 2h-4v-1l1-1-1 1h4c1-1-1-1-1-1l2-2 3 1 6-1h-9l5-2 15-8-1-1-14 7h-4l3 1-6 3-7 1h4l-4 2h-12l-1-1-1 2-1-1c0-1 0 0 0 0v-1l-5-1h-3l9-4h6l1-1h-5l27-14-2-1-28 15-4-1-6 1-6-1h-10l34-18-1-1-35 17h-5l-3 1-4 1h6l1-1 3 1-10 5v-1 1l-2 1-3 1h-1l-11-1-1 2-8-1c0 1-1 2-3 1h-1l-2 1h-5l21-10h3a366 366 0 0 0-2-1l56-28-1-1-58 29h-2 1l-20 11-2-2-2 2h-9l-1 1h-15l84-42-1-1-44 21h-2l2 1-35 17-2-2-2 1 1 2-4 3-13-1-6-2h-3l70-36 2 1 3-1h11-14l3-2-1-1-64 32h-6 5l-4 3-2-2c-2 0-3 0-2 1l1 2-6 3h-2l-13-1-7-1h-1l42-21h1l-1-1 24-12h2-1l28-14-1-1-31 15h-1 1l-23 12h-1l-32 16-2-1-2 1 1 2-7 3h-5l-2-1-15-1 26-13h1-1l45-23-2-1-62 31-2-1c-1-1-2 0-2 1l1 2-7 3h-4l3 1h-3l-2 1-4-1h-4l-2-2-2 2h-7l-2-1h1l37-19-1-2-25 13-2-2-2 2 2 1-10 5h-2l-2 1v1l-5-1h-1l4 1h1l-3 2h-3l-12-1h-9l-8-1-1-1c0-1-1-2 1-3h-2v-2l-1-1-1 3h-1l-4 1h-6l-6-1-2-1h2l-1-2c1 0 2 0 2-2-1 0 0 0 0 0 0-1-2-1-1-2a8 8 0 0 1 2 0l2 1 1-1c2 0 5 0 7 2l1-1 1 1-1-1h1l1 1h6l4 2v1h8l1-1h-1l-3-1a5 5 0 0 1-2-1l1-1h3l-4-3c1-1 3-1 3-3h-2l6-3-1-1-8 4-1-1c-3 0-3-1-3-3l2-3 2-1-1-2c1-1 1-2 3-2l3-2 5-1h1l1-1h-13l-4 2c1-3 3-4 6-4l-3-2-3-1h-4l-4 1h-8l-2 1c0 2-2 1-3 1h-5c1 1 0 1-1 2h-2l-4-1h-1l-7-1-3-1-3 1h-3l1 1-1 1-2 1h-2l-2-1-1-1v1c1 2 1 2-2 2h-1l1 2c2-1 2-1 3 1l-2 1h-1v1l2 1v-1l2-1 5 2 1 1h-5l-1 1v2h1l1-1 5 2-2 1 1 2h4l1 1h-1 1l4 2 4 1-2 2h-4v1l-3-1-1-1 4-1-4-1h-4l-4-1-3-1 1 1c2 1 2 2 0 2h-3l1-1c-1-1-1-2-3-2l-2 2 1 1-4-1-2-1 1-1-2 1v1h-1l3 1 3 1 3 2v1h-2v1l-1 1-2-1h-5l-1-1-2 1h-3a9 9 0 0 0-3-1v2c1 0 3-1 4 1h-5l1 1 4 1 3 1 4 1 2 1h2l7 1h3l3 2 1 1h-7a2 2 0 0 0-1-1h-2l-4-1-1 1h-3l-1 1v-1l-2-2-2 2-4 1 3 1h2c0 2 2 1 2 2l-1 1h-1l-1 1h-5 1v1l-1-1-3 1-2-1-2 1 1 2-2 3c1 0 2 0 1-1l2-1 1-1h2v2h2l2-1h3l1 1v1h-1l-3 2h4l1 2h-8l-1 1-2-2-2 1h-1 1l-1 1c0 1 1 2 3 2l2-2h1l2 2v-2h6l-1 2v1h-8a618 618 0 0 1-17-2h-7l-1-1h-7l1 1-5 1h-4l-4-1h-2l2 1 1 1h1l6 2h3l4 1c0 1 1 2 3 2l2-1 6 1 2 1v1c1 0 0 0 0 0l-5-1h-6l-5-1 3 2-2 1 3 2h1l2 1-2 1 2 2 5 1 5 1 6 1h2l4 1h4l3 1h6l3 1v1l-9-1-4 1h-15l-1-1-2 1-2 2c-1-1-2-2-3-1l3 3c-2 0-4-1-5 1l3 1h3-10l-3-1h-4l-6-1-1-1h12v-1h-4a9 9 0 0 1-4 0h-13l-2 1h-6l-3-1v-4l1-3-2-1-2-1v1l-2 2c-2 1-2 2-1 3l1 3 2 2h-2l-2 1c-1-2-1-2-2-1l3 2c1 0-1 1 1 1v-1c2 1 2 2 2 3l4 2-2 1-2-1-6-3-3 1-3-1 1 1h-1l-3-1-8-2-1-1a31 31 0 0 0 3 0c-1-1-1-1 1-1l1-1c-3-2-5-1-7-1l-1 1v1l-3-1v2l1 2 3 1c5-1 10 1 15 2h2v1l4 1 1 1h-4l-2-1h-11l2 2h-3l-4-1 4-1-9-1 1 1 8 3 1 1v1l3 1 3-1 4 2h-4l1 1h-2l-1 1h-1l2 2c-2 1-4-1-6-1l2 2h3l7 2 3 1v1l-1 1h-2l3 2 3-1 2 3-4 1-1-1c-1 1-3 1-2 3l-3-1h-4c-1-1-2 0-2 1l-3-1h2c-1-2-2-3-4-2h-1l-2-2h-4l1 1 6 2 1 1 5 4-4-1a51 51 0 0 0-8-2l-3-1-3-3v2l2 3h-2l3 1v-2l6 3 5 1h3l3 1 3 1 5 3h2l1 2a4 4 0 0 1 0 2h-1l-1-1-1-2h-4l2 2-5-1h-1l6 2 2 1 2 1v1h-2v1h-1v-1l-3-2v2h-3 1a17 17 0 0 1-2-2l-2-1-2-1v2l3 2-8-2-1-2-4 1-3-1a4 4 0 0 0-2-1l-1 1h1c-2 1-2 2-1 3l1 1 6 1 3 2-1 1h-1l1 1h4l3 1h-3l1 1 2 2 4 1h1l2 2 6-1 2 2 2-1h3l2 1h1l1 2v1h1v1l3 2-2 1-5-1v-2h1v-1l-2-1h-3v1l-3-2-3-1-1 2h1l1 1 4 3h2l2 1 2 2v1h2l2 1 2 1c3 0 5 1 7 3l1-1h4l3 1h6l3 1c3 1 7 1 10 3l7 1 6 1 4 1c2 2 4 4 4 6l3 1-3 1v1h1l1-1 2 2-1 1 2 6 2 1 2-2-1 4-1 3v3l2 1v3h2v-1l1 1v2l1 2 2 1 2 1 2 1 1-1h1l1 2-2 2-2 1-3-1v-1h-2l-2-1v3l1 3 1 2c1 1 1 2 3 2l4 2 1 2h2l-2-2-2-2h3v2l2-1v-1c1 1 2 1 1 2v2l2-1c0 1 1 2 3 2l-1-2v-1l6 2 3-1h2v1l4 2h-1c-1 1 0 2 2 2l1 1 4-1h2l4 2 2 1v-2h5l2 2-2 2-1 2-3-2h-4l-2 1h-2l-6-2-2 1-4-2-2 1-3-1h-1v1c1 2 3 4 6 5l2-1 11 1 1 1v2h-1l-4-1-1 3v1c1 1 2 2 1 3a5 5 0 0 1-4-1l-3-2 2-1 1-1-2-1h-5l-5-1-2-2v3h3l7 2-1 3c0 1 1 2 3 2l4 1h9l4 1 2 1 8 1h8l7 1h2l5 1h2a172 172 0 0 0 35 2h8l6 2-1-1h1l5 2h1l3 2h2l1 1 7-1h23l4 1h5l5 1h10l10 1h8l6 1h27l5 1h16l-2-1h-10c-3 0-6 0-9-2l-2 1h-6l-3-1h-10l-8-1c-2 1-5 1-7-1h-20l-1-1h-13l-3-1h-4l-12-1h-1l2-1v-1h-3l-3-1-6 1h-1l7-4 2 1h-1l-1-1-1-1-1 1h-1l-4 2-3-1h-4v-4l-2 1-4-1-1 1h-4l-1-1 3-1h10l1-1h5l7 1h8c1 2 2 2 3 2h4l6 1h10l7 1v-1h-3l2-1h9l10 1 2 2-3 1 1 1h-10l-8-1a100 100 0 0 0-8 0l-13-1h-2l-9-1-2 1h3l4 1h8l3 1h19c9 2 18 2 27 2l8 1a202 202 0 0 0 8-1h-2l-8-1h-6l-11-1 3-2 1-1v-1h10l12 1h7l-1 1 1 1 3-1h27l-9 4-1 1 1-1h-2a3 3 0 0 0-1-1l-2 1h-2v1h2l1 2 1 1 6-3h2-1l8-5h7l2 1 2-1h8v1l2 1c1 1 2 0 2-1v-1h4l-16 8-2-1-2 1 1 2-5 3h-2 2l1 1 1-1h7-5l24-13h17l4 1 4-1h4l-24 12-2-2-2 2 1 1h-1 1l-1 1 2 1 29-15h7l2-1h3l4 1h1l2 1c1 1 2 0 2-1v-1h8l-9 4-14 9-2 1h1l-5 2-2-1-2 1 1 2-7 3 1 2 18-9h4l-3-1 15-8h2l5-3v2h-3a4 4 0 0 0-1 1h1v2h-1 4c-1-2-1-2 1-2h3l8-1 2 2c2 1 3 0 3-1l-3-2h-1l-7 1h-2v-1l-2-2 2-1a15 15 0 0 1 6 1c1-2 2-1 3-1 3 0 6 1 8-1h3l2 1v1h4v1h-2l-5 1h6l6 1 2-1 1-1h-5l-1-1v1l3-1h4v-1h1l3 2 1 1h7l3-1 1-1 7-1-1 2 3 2 2-2-1-1h3l11-1 2 1h13l4 1 4 2v-1l10-1 5 1 2-1 3 1c0 1-1 2-3 2h-5l-6 1-1-2h-3l1 2h-3l-2-1-2 1v1l2 1 3-1 6 2v-1l-1-1h1l2 1 2 2 2-1h1v-1h1l2 2-3 1c1 1-1 1-1 1l5 1-5 1h-1l-2 1-4-1v1h-5l-2-1-2 1v1h-5v-1l-1 1h-2c-1-1-1 0-2 1h2l-7 3h-2l2 1-8 3v1h-1l1 2 3-2h2a4 4 0 0 0 1 0v-1Zm62-14 2 1h-3l1-1Zm20-119v1l-1-1h1Zm-8 12-1-1h-1 2v1Zm0 4v-1 1Zm2-6v-1 1Zm1-9 2 1-1 1-3-3 2 1Zm-31 54v-1 1Zm13-16v1h-1v-1h1Zm-3 2v1h-1v-1h1Zm9-31v1l-2-1h2Zm-10 41 5 1c1 1-2 1 0 2v1h-7l1-1-2-1c-2 1-3 0-5-1l1-1h7Zm-8 1-1 1-1-1h2Zm-1-104h-1l-1-1h2v1Zm9-2h-1 1v1-1Zm-2-6 1 1h-2l1-1Zm-3-7h2l1 1h-5l2-1Zm-5 8h2c3 1 5 2 8 1l1 1h1c-2 2-4 1-6 1h-4l-3-1 1-2Zm2-22 2 2a1 1 0 0 1 0 1h-1l-3-1 2-2Zm-44-18v1l-3-1h3Zm-484 33-3-1 7 1h-4Zm5 0Zm2 0Zm-1-5v-1l4 1h-4Zm-52 15-2-1-1-1c2 0 3 1 3 2Zm-16 21s0-1 0 0c0-1 0-1 0 0 0 0 0-1 0 0Zm0 2v-1 1h1-1Zm13-12-3-1 1-1 4 2h-2Zm0 2h2-2Zm-15 23-1-1 1 1 1-1 2 1h-3Zm3 3s1 0 0 0Zm2-2h-1 1Zm-15 14-1 1h-2a12 12 0 0 1-2-2h-1l2-1h1l5 1 5 2a744 744 0 0 1-7-1Zm10 6-2-1a79 79 0 0 0-3-1h5l1 1-1 1Zm2-3h2-2Zm4 1Zm1-2-1-1 3 1h-2Zm15-2-4-1h3l1 1Zm-5-1v1l-2-4 2 2v1Zm-1-3v-1l1 1h-1Zm9-39h3l1 1c-1 1-3 0-4-1Zm-13 45s1 0 0 0Zm-4 10v-1 1Zm4-12 1 1h-1v-1Zm-1 5 3 1c-2 1-2 1-3-1Zm4-2v-1h1l2 2-3-1Zm8-2c0 1 0 1 0 0l-1-1 1 1Zm-13 14v-1l1 1h-1Zm1 1 1-1 3 3a104 104 0 0 0-4-2Zm6 3h-1l1-1h1l-1 1Zm77 59v-1l3 2 2 1-5-2Zm26 19h-1 2-1Zm5 1h1-1Zm5 1-1-1h1v1Zm3 0-1-1h1v1Zm118 22h-2 2Zm-4-1 2 1c-2 0-3 1-5-1h3Zm-8-1Zm-6-1 1 1h-3l2-1Zm-8-3Zm-4 4h-1 1Zm382 6h-1 1Zm-2-1Zm-5-10h1-2 1Zm-2 7-2 1-1-1h3Zm31-28v-1h1l-1 1Zm-3 1v-1l1 1 1-1 2 1-1 1-3-1Zm4 2h5-5Zm5-4v1-1Zm-2 0 1 1v1h-1l-1-1 1-1Zm-14-14c3-1 6-2 10-1h6l1 1-1 1h-12l-5-1h1Zm-17 27h-2 1l1-1 1 1h-1Zm8-28-2-1 2 1Zm-4-4 3 1v1h-4c-1-1 0-2 1-2Zm-1 5-1-1 1 1Zm-19 16v1-1Zm-88 19 3-1-1 1h-2Zm-59-11h-5l2-1h4l9-1 4 1-6 1h-8Zm-71-11h-1 1Zm-3 0h-1 1Zm-41 17-1 1 1-1Zm2-2h-1l-3-1-2 1-2-1h-5l-3-1h-4l7-4 1 1 4 1 1 1h16l-6 3h-3Zm-13-1h1l1 1h-1l-1-1Zm-11-1-16-2-6-1 6-3 1 1h4l9 3h2c0-2-2-2-2-3h3l3 1h4l-7 4h-1Zm-24-1Zm2 0h-1 1Zm-55-3h-1 1Zm-2-3Zm-1 6h-1l-1-1h1l1 1Zm-6-2 3 1h-3v-1Zm3-3v-1 1c0-1 0 0 0 0h-2v-1l2-1 1 1v1h-1Zm-3 3h-1 1c0-1 0 0 0 0Zm-99-47Zm-8 19Zm0 1v-1 1Zm2-18Zm-4-143h3v1l-3-1Zm-3 10h-1v-1l1 1Zm-23 86h5l-1 2h-2l-2-2Zm32-96-2-1 6 1 4 1h2v1l-10-2Zm21-16h2l-1 1-1-1Zm2-3 1 1-1 1h-2v-1l-1-2 3 1Zm-1 10h5l-2 1h-5l2-1Zm8 2Zm1-8 1 1-2-1h1Zm3-8Zm-56 146-2-1h1l1 1Zm2 2h-1 1Zm20 19v-1 1Zm3 0h1-1Zm-1 15Zm78-158h-1l6-1c1 1 2 0 2 2l-7-1Zm202-3h1-1Zm123 192v1-1Zm-103-12h-1 1Zm-2 0h-3 3Zm-34-2h-2v-1l2 1c0-1 0 0 0 0Zm-6 2h1-1Zm-45 10h-1 1Zm75-27 1 1c-1 1-2 1-5-1h4Zm-13 1h1a1 1 0 0 1-1-1h2l-1 1Zm-31 10h1-1Zm-19 0h-17l7-1h7l3 1Zm-6 3-4-1 4 1Zm-7 2h1-1l-1-1 1 1Zm0-3h1v1h-1v-1Zm23-7Zm-41 3h1-1Zm8 17h1v1h-1v-1Zm7 1-2-1 2 1Zm0 0h1-1Zm10 0h3l-1 1-2-1Zm3 0h1-1Zm6-13h1-2 1Zm5 1-1-1h4l1 1h-4Zm3-4h3-3Zm3 0Zm42-11 2 1h-3l1-1Zm-16 11h1v1l-1-1Zm4 0v1-1Zm0 3v1-1Zm1 4-2-1 2 1Zm-5-4v1-1Zm-157-174Zm-2 0h-1 2-1Zm90 110h-5l-1-1 6 1Zm2-1-1 1 1-1Zm1 0h-1 1Zm28-82h1-1Zm-41 82h1-1Zm15 1Zm-31-84h-2l-2-1-2 1a210 210 0 0 0-8-1h14l1 1h-1Zm-19 0v-1h1l1 1h-2Zm12-23Zm48 4 1 1 1-1h-3 1Zm-13-1 1 1h-1v-1Zm-128 180Zm3-2v1l-1-1h1Zm282 1 1 1h-1v-1Zm7 7v1l-1 1-1-1 2-1Zm0-1h1v1l-1-1Zm7 1-1-1h3l-2 1Zm85 0Zm21-48Zm3 2-5-1 5 1Zm5-47 4 1-4 1-1-1 1-1Zm-6 0-1 1-8-1h-1v-1h7l2 1h1Zm-5-2h1-1Zm7-21c2-1 3 0 5 1h-6l-4-1h5Zm3-20h-2c-1 0-1 0 0 0h2Zm-17 43Zm-3 0-2-1 2 1Zm11-62Zm0-2 1 1h-4l3-1Zm-6 5h-4l1-2 3 2Zm-2-4h-1c-1 0 0 0 0 0h1Zm6-23v1l-1-1h1Zm-1 1-1 1-3-1h-1 5Zm-19-7h17l-1 1c-5 1-10 2-15 1a19 19 0 0 1-3 0l-2-1 4-1Zm-55-8h20l-1 1h-7l4 1 1 1h-2l-5 1-2-2h-2l-7-1h-3l4-1Zm-17-1 1 1h-5l4-1Zm-68-2Zm-26-7 8 1h13l-10 5h-7l-2 1h-1l-6-1h-5l3 1 2 1h-8l-4-2 12-6h5Zm-18 5Zm-35 11h5a70 70 0 0 1 6 1h-8l-3-1Zm-13 0 3 1-6 1v-2h3Zm-19 0 2 1h4l-1-2h7v1h-2l-2 1 2 1-5 1-5-2-3-1h-1l-2 1h-9l2-1h4l-2-1h4v1l2-1h1l4 1Zm-21-1h5l-2 1h-2l-7-1h-3l-1-1h1l2 1h7Zm-89-13 1 1h-3l2-1Zm-14 3h1l1 1h-2v-1Zm-5 6h-1l2-1-1 1Zm0-2h1v1l-1-1Zm2-3h-5l-1-1 6 1Zm-3 1Zm-24-1v-1c3-1 6-2 9-1l10 1v1h-4l3 1v1l1 2 1-1v-1l1 1 2-1 1 1-3 1 3 1h-13v-2h-3l-5-1-4-1c-2 0-2 0-1-2l2 1Zm-2-1h-1l1-1-1-2 3 1-2 2Zm-3-3-1 1 2 2h1c0 2-2 2-4 2h-2l-2-1h-3l-2 1h-1l2 1h11l4 2 2-1 2 1-2 1-14-1h-4l-5-1h-5l-2-1h-1l2-1h8v-1h3v-1h1l-2-1h1l2-2-1-1 10 1Zm-7 5h-1c-1 0 0 0 0 0h1Zm0-8Zm11-8-3-1 3 1Zm6-24v1-1Zm-11 1 2 2h-3l-3-1 4-1Zm-9 9 4 1v1l3 1v1-1h2l5 1 1 1h-10l-1-1v1l-6-1c-2-1-1-2-1-3h1l1 1 1-2Zm-4-6-1-1 1 1Zm-14 6 3 2c2 0 1-2 3-2l1-1 4 1-2 2-3 1h-6l-1-1v-1l1-1Zm5 8-1-1 1 1Zm-9-7v1h-1v-1h1Zm-1-1Zm-3 0v-1 1Zm0 5 1-1 11 3v1l-12-3Zm6 18h4l2 2h-1l-3-1-2-1Zm1 6 3 1h1-1l1 1v1h-5l-3-1-3-2c-1-1-3-2-2-3 4-1 6 2 9 3Zm-17-14 1 1h-1v-1Zm-17 3Zm8 5-7-3h2l2-1h1l6 1h1l1 2h-2l1 1h-5Zm12-4-4-1 1-1 6 1h2l3 1h-8Zm2 5v-4l3 1 1 2c-1 0 0 0 0 0h3v1h-7Zm-3 5h8l-2 2h1l-3-1-1 1a9 9 0 0 1-4-1h-1v-1h2Zm-6 1 2 1h-4l2-1Zm-10 11v1l-1-1h1s0 1 0 0Zm-3 8-4-1h5l-1 1Zm0 16Zm11-18h-5v-2h1l6 1-2 1Zm-9 36h1-1Zm-9-9v1h-1v-1h1Zm-1 2h3-3c-1 0 0 0 0 0Zm-10 3h1v1l-1-1Zm-8-5 5-1h1l-1 1 2 1h1-5l-3-1Zm-12 2h-3 3Zm-25 46v-1h1l-1 1Zm4 20-3-1a4 4 0 0 1-1-1h2l3 2h-1Zm0-1Zm5 2-2-2 3 1-1 1Zm2 0c2-1 3 0 4 1l-4-1Zm10-18h1-1Zm13-43h-1l-4-1-7-1h-2l-2-1-2-2h-3l1-1 2 1h1l20 2h7l3 2h4l8 1 1 1h-7l-2-1h-3l-1 1h-5l-8-1Zm-1 43 4 1-4-1Zm3 3v-1 1Zm-12 20h1-1Zm-3-3 9 1h-2l-7-1Zm7 2 1 1h-1v-1Zm1 2-1-1 9 3-8-2Zm11-22h4-4Zm18-41h1l1 1-2-1Zm-12 42Zm14-41-1-1h-1l-1 1-6-2h10l-1 2Zm-15 65h-5l1-2h1l7 2h-4Zm12-22Zm-6 24Zm10-20-1-1h1v1Zm-2-3v-1h1l4 2 1-1-1 1-5-1Zm4 3 4 1-4-1Zm-6 25v-2l3 1 5 3v2h-4l-4-4Zm6 10Zm2-3-1-1-1-1v-1h2l1 2-1 1Zm0 2 1 1h-1v-1Zm0 4-1-1h1v1Zm6-10v-1h1l-1 1Zm-1 3h1-1Zm0 8v-1 1Zm1-3-1-1v-1 1l1 1Zm-2 8 1-1v1h-1Zm1 3-1-1h1v1Zm2-6v-1l1 1h-1Zm2 7-1-2 2 2h-1Zm-1-7v-2c-1 0 0 0 0 0h1l1 1 4 1-1 2-5-2Zm9 4-3-1h4l-1 1Zm-5 17Zm5 10v-1l1 1h-1Zm4-9-3 1-1 2-3-2-1 1 1 1h-4v-2l1-1 5 1-1-1v-1h1l2 2-1-4-1-1c2-1 3 1 4 1h3c1 1 0 1-1 1l-1 2h1-1Zm10 3Zm1 0h1-1Zm-1 7-1-1h1l1 1h-1Zm3 1c0-2 0-2 2-1l-2 1Zm5 3v-1h1l-1 1Zm1-1s1-1-1-2h3c2 1 2 1 2 3l-4-1Zm6 0v-1 1Zm2 2v-2l2 1-2 1Zm8-1c0-1 2 0 2-2h1v1h2l1 1c-1 1 1 2 1 3h-2l-5-3Zm-4 8v1h-1v-1h1Zm-1 4v1l-4-1h-1 5Zm-7 2v1h1l-1-1Zm0 5v-1l3 1h-3Zm6-3-2-1v-1h6v2h-4Zm28 9h-1l-1-1h5l-3 1Zm34 1h-21l-6-1-1-1 1-1h-1s0-1 0 0h-1c0 2 0 2-2 1l-2-1h-5l-6-1h-6l-1-1h-9l-2-1 2-1h7l2 1h2-1v-2h4l1-1 8 1 2-1h2-1l-4-1-4-1-2 1-2-2h3-5l1 1-1-1-4-1-3 1-2-1-4-1 3-1h9l3 1 2 1 5 1h3l1-1c2 0 3 2 4 3v-2h10l4 1v1l2-1 4 3v-2l2 1 3 3h-4c1 1 2 2 3 1l2 1h2l2 1-3 1h-2v1l6-1 1 2h-1Zm-55-12a1010 1010 0 0 0 4 2h-4v-2Zm62 12h2-2Zm2-1-2-1c-2 2-2 2-5 1l1-1-2-1-2-2h1l2-1 2 1v1l3 1 2-1 3 2-3 1Zm8-15h-2v-1l2 1h1-1Zm-4 16Zm3-4h-2 2Zm2 2h-1v-1l1 1Zm2-14 3 2c-2 0-3-1-3-2Zm10 2-1-1h1l1 1h-1Zm9 2-1-1h1l1 1h-1Zm14-7h1-1Zm0 7h1v1l-1-1Zm1 7Zm4-13h1-1Zm1 0h8l1-1 2 1 5-1h1l-5 3h-1l-6-1-5-1Zm5 5-3 2-2-2h5Zm0 8c-1 0 0 0 0 0Zm1 1-1-1h1v1Zm8 0h1-1Zm35-3-16-1h-2v-1l-1-1-3 1-15-1-7-1 3-1h14l-1-1h1c2 2 5 1 7 1l3-1 2 1 1 1-1 1h-2l-2-1-1 1h8l-1-1 2-1h3l2 2 3-1-1-1h2v2l3 1 2 1-3 1Zm10 0 1-1 1 1h-2Zm8 1v-1h1l-1 1Zm8 0-2-3 5 1v1l1 2-4-1Zm33 1v-1l1-1h-3v1l-1 1h-10l-2-2-3 1h-1l1-1 3-1 3-1-6-1h-1l1 1-1 1h-1l-1 1 2 1h-2l-1-1-3 1h-1v-1l-2-2-2 1c2-1 4-2 7 0l3-1v-1l-10-1h-12l9-5v1h3l-1-1h1l2 1c1 1 2 0 2-1v-1h14l3 1 5-1-10 6 1 1 7-4c0 1 1 2 3 2l2-1c0-1-1-2-3-2l4-2h17l-1-1h5v1h6l-18 9a15 15 0 0 0-3 0h-1l-1 1h2l-1 1-5 1Zm10 0h-1l2-1 3 1h-4Zm10-1h1l1 1h-1l-1-1Zm2 1h2-2Zm14-1h-2l2-2-3-2-2 2 2 2h-2 1l-3 1 1-1-8-1h-6l-2-1 5-2v1h-1l2 1h1l2-1h4l-2-1-2 1-2-2v-1h1-1l3-1h4l-2-1 4-2h2a119 119 0 0 0 2 0h5l4-1a1 1 0 0 0 0 1v1l2 1 2-1-1-2h10l2 1h-2l-1 1-2 1v-1h-2v1l1 1h-1v-1h-1l-2 1h2l-13 7h-1Zm8-1c-1 0-1 0 0 0v1h-2l2-1Zm25 1h-21l-2-2h-1l11-5 2 1 2-1h2l4 1-1 1-4-1-2 1h1l6 1h6l6-1-8 4-1 1Zm18-2-7 1h-7l7-3 2 1 2-2h1v2h2v1Zm3-2-2 1-1-2h3v1Zm2 2v-3h4l1 1 1 1-1 1v-1l-3-2-2 2 1 1a5 5 0 0 0-1 0Zm33-2h-8l-3-1 3-2h3l1 2 2-1-1-1h2l1 2 2-1-2-1h-1 3l3 1-5 2Zm33 8-2-1h2v1Zm16-4-12 2h-18l-2-1h1l4-1 8-1h10a12 12 0 0 1 2 0h7v1Zm13-8-4-2h4v2Zm2-2h1a1 1 0 0 0 0 1h-1v-1Zm8 11Zm17-18 3 1h2l-1 1-2-1-2 1v-2Zm-2 29h1v-1l1 1h1l3 2c1 1 2 0 2-1l-1-1h5l4 1v2l-4-1-4 1h-3a6 6 0 0 1-2-1l-3-2Zm1 2Z"/>
    <path d="m974 251-1-1h-1l-1 1h3Zm16-11 2-1v-2h-1l-1 3Zm22 107h-3l3 1v-1Zm434-168-2 1h5l-3-1Zm-463 49h-3l-3-1c3 1 5 2 6 1Zm-45 76 3 2h1l-4-2Zm53-89h4l-2-1h-2v1Zm69 171-1-1-2-1 1 2h2Zm289-177 1-1h-4l3 1Zm188 216c-2-1-3-2-5-1l5 1Zm-435-31-3 1 2 1 1-1v-1ZM957 271v1-1Zm1-2h-1v2l1-2Zm69-72-3-1 5 1h-2Zm2 0 1 1v-1h-1Zm238 6v-1h-3l6 2-3-1Zm-156 220-2 1h2v-1ZM956 283l1-1-3-1 1 1 1 1Zm64-61h1l2-2-2-1c-1-1-2 0-2 1l1 1h-2l-3-1 5 2Zm-18 111-1-2c-1 2-1 2 2 3l-1-1Zm1 13 1 1h3l-4-1Zm43 34c0-2 1-2 2-2l-2-1v3Zm336-184-5-1 4 1Zm225 171Zm-3 1 3-1h-5l2 1Zm-21 4c-1 0 0 0 0 0Zm4 1-3-1h-1a8 8 0 0 0 4 1Zm33 1-4 1 4-1Zm-170-191ZM1446 182l4 1-4-1Zm-487 54 4 1-3-1h-1Zm47-13h2l-1-1h-3l1 1h1Zm556-16-3-1 3 1Zm-409-5 2 1 2-2-2-2c-2 0-3 1-2 2h-2l2 1Zm415 166-2-2 2 2Zm-516 8h3l-3-1v1Zm0-1h-1 1Zm547-21 5 1-5-1Zm-86-140ZM1516 213l-3 1h4l-1-1Zm1 1 2-1-2 1c0-1 0 0 0 0Zm-284-20h4l-3-1-1 1Zm359 85h-4c0-1 0 0 0 0h4Zm-572-73-1 1 2 1-1-2Zm-39-6-2-2v1l2 1Zm450 219-1-1-2 2 3-1Zm-1-1ZM987 241v1l2 2c0-1 0-2-2-3Zm371 187h3l1-1-4 1Zm0 0Zm4-1Zm211-141h-1l-1 1 2-1Zm-3 1Zm-259-84 3 2 2-1-2-2-3 1h-1 1Zm7 222 5 1-5-1ZM1323 426ZM959 272h-4 4Zm295 143h1v-1h-2v1Zm316 16h2-2Zm-533-240h-3 3Zm9 20h-2 2Zm443 228h2-2Zm-162-11c0-1 0-1 0 0 0-1 0-1 0 0 0 0 0-1 0 0Zm3-1h-3l2 1 1-1Zm-158-235h4-4Zm56 228h3l-2-1-1 1Zm-185-77h-3 1l1 1 1-1Zm-14-1h-2 1l1 1v-1Zm-12 2v-2l-1 2h1Zm382-138v-1h-2l1 1h1Zm88-4Zm-4 0Zm0 0h3-3Zm-428 0-2-1v1h2Zm-2-1Zm5 189h-1l2 1v-1h-1Zm428 34h3-3Zm-205-251h3-3Zm3 0h1-1Zm11 1s-1 0 0 0Zm1-1-1 1h3a6 6 0 0 0-2-1Zm178 257-3 1 3-1Zm116-62 4-1-4 1Zm4-1Zm-230 60h-2l2 1 3-1h-3Zm87-251h-4 4Zm-485 75-1-1 1 1Zm-5 22-1-1h-1l2 1Zm-2-1c0 1 0 1 0 0 0 0 0 1 0 0Zm8 7h1v-2l-1 2Zm430-74h-2 2Zm-358 146h-1v1h1v-1Zm-53-20h2v-1h-1l-1 1Zm57 36-1 1h2l-1-1Zm49 28Zm-2-2-1 1h1l2 1-2-2Zm201-220Zm3 1-3-1a9 9 0 0 0 3 1Zm278 22-3-1 3 1Zm-3-1h-1 1Zm-529-13h-3 3Zm-1 10h1-1s-1 0 0 0Zm-27 26 2 1-2-1Zm-16-1h-2 2Zm16 27 3 1-3-1Zm-35 6v-1h-1l1 1Zm378 178h3-3Zm227-56h-2 2Zm-259 47Zm-65-234v-1l-1 1h1ZM967 294c-1 0 0 0 0 0Zm-3 0h3-3Zm177-105-2-1 2 1Zm-2-1Zm63 223-1 1 1-1Zm-215-93h-1l1 1h1l-1-1Zm320-115h-2 2Zm295 207v1h1l-1-1Zm-548-46h-1v1l1-1Zm-80-35v-1 1Zm2 1-2-1 2 1Zm545-125h-2 2Zm-527-2c0-1-1-2-2-1l2 1Zm591 26h2-2Zm0 0Zm-14-20h1v-1h-1v1Zm0 69h1l-1-1v1Zm-540-81h1-1Zm8 13-1-1v1h1Zm302-2c0-1 0-1 0 0 0-1 0-1 0 0Zm166 222h2-2Zm68-185Zm0 0h-2 2Zm-41-43h2-2Zm3 0h-1 1Zm-90 214h3-3Zm-2 0h2-2ZM1447 416Zm-2 2 1 1 1-1h-2Zm122-150h1l-1-1v1Zm-55-54c0-1 0 0 0 0h1-1Zm85 98h1-1Zm13 42h-2 2Zm-596-112h-2 2Zm-6 2h1-1c0-1 0 0 0 0Zm1 0Zm5 3h1-1Zm265-74Zm-2 0h2-2Zm329 115v-1h-1l1 1Zm-11 31c0 1 0 0 0 0Zm20 48Zm0 0h2-2Zm-51-159Zm2 0h-2 2Zm-88-5 2-1-2 1Zm-508 48-1-1-1 1h2Zm624 116 2 1-2-1Zm7 8v-1 1Zm1-1-1 1 1-1Zm-650-94h-1 1Zm6 14 1 1c0-1 1-1-1-1Zm1 1 1 1-1-1Zm218-94 1-1h-1v1Zm-133 143 1 1-1-1Zm361-173h3-3Zm-100 28v1h2l-2-1Zm191-1h-1 1ZM979 325h-1v1l1-1Zm212 98 1 1-1-1Zm-212-96h1-1Zm-6-3-1 1h1a2 2 0 0 0 0-1Zm-5 3v-1h-1l1 1Zm8 5v-1l-1-1 1 1v1ZM976 330c-1 0 0 0 0 0-1 0-1 0 0 0Zm-37-12v1h1l-1-1Zm537-111v-1 1c0-1 0-1 0 0Zm2-1-2 1h2v-1Zm-429 165a14 14 0 0 1-1-1l1 1Zm48 24h2-2Zm484-145Zm-4-47h-1 1Zm0 0 2 1-2-1Zm2 1h1v-1l-1 1Zm-37 219v1h1l-1-1Zm16-215v1l1-1h-1Zm-51 205Zm0 1v-1 1Zm-105-209Zm-349 6h1-1Zm450 210Zm1 0h1-2 1Zm7 3h-1 1Zm3 6Zm56-186h1-1Zm-61-30 1 1-1-1Zm0 0h-1 1s-1 0 0 0Zm3 223v1h1v-1h-1Zm-256-253h-1 1Zm0 0h1-1Zm179 235Zm31 21h-1 1Zm-447-203h-1 1Zm564-8h2-2Zm0 0Zm-558 14v1h1l-1-1Zm2 3h-1 1c0 1 0 0 0 0Zm-1 0Zm419 194h1-1Zm-436-196h3-3Zm3 0h-1Zm-24-9Zm588 137h1-1Zm-240 48h2-2Zm0 0Zm19 8Zm-2 0h-5 7-2Zm-19-8h2-2Zm-144-217h1l-1-1v1Zm1 0Zm-5-1h1-1Zm126 223h-1 1ZM949 262v1-1Zm19 15Zm2 0h-1 1s-1 0 0 0Zm601-42h-1 1Zm1 0a3 3 0 0 0-1 0h1Zm-314 179h-1l1 1v-1ZM960 288h-1 1Zm642 3Zm-666-5h1-1Zm278 129h2-2ZM940 292h1-1Zm201-98h-1 1Zm1 0h-1 1Zm427 84v-1h-1v1h1Zm-609 33Zm1 0h-1 1Zm-8-2h-1 2-1Zm516-107v-1h-1l1 1Zm-271 222Zm-161-268h-1 1Zm94 45h1-1Zm-76 162-1-1 1 1Zm0 0h1-1Zm123 57-2-1 2 1ZM938 317v1-1Zm115 54h2-2Zm-127-57Zm152 78v-1l-1 1h1Zm-15-5h1v-1h-1v1Zm543-106-1-1v1h1Zm-28-35h-1 1Zm1 0ZM1579 246h-1 1Zm-271-43h1-2 1Zm181-2 1 1-1-1Zm1 1Zm-219 2h-1 1Zm-1 0Zm-22-9h1-1ZM1249 195l1 1 2 1 2-1-2-2-2 1h-1Zm369 172h-1 1Zm-393-176v1l2 2 3-1-3-2h-2c0 1 0 1 0 0 0 1 0 1 0 0Zm374 176h1-1Zm-10 1ZM1588 367l1 1-1-1Zm11 7 2 1-2-1Zm2 4h2-2Zm-468-210Zm447 204h-1 1Zm-411-181Zm383 177Zm0 0h2-2Zm2 0Zm7 5h1-1Zm1 0Zm-115-197Zm71 31Zm-361-5h1-1Zm1 0Zm342-4v1-1Zm21 9h1-1Zm1 0Zm-406-13Zm13 6h-1 1Zm405 11h-1l-1 1h-1 1l1-1h1Zm-424-16-1-1v1h1Zm462 213Zm-502-228h1l3 1-2-1h-2Zm466 31Zm62 215v1h1l-1-1Zm4-154v-1h-1v1h1Zm-42 145h-1v1h1v-1Zm-123-220Zm0 0Zm-402-16h-1 1Zm547 257Zm-545-247 1 1-1-1Zm515 18v-1h-1l1 1Zm16 0h1-1l-1-1 1 1Zm-538-5Zm13 7h1-1Zm-12-3Zm543-5Zm-532 19 1 1v-1h-1Zm515-16h2-2Zm-72 218h1-1Zm1 0ZM995 203ZM995 203Zm537-1Zm0 0Zm-519 22Zm-14 1h-1 1Zm460 210h1-1Zm4 5Zm1 0h-1 1ZM998 229Zm464 211h1-1ZM948 209Zm37 20h1-1Zm14 7v1-1Zm573-40Zm0 0h1-1Zm-561 49h-1 1Zm0 2v-1 1Zm-6 1Zm-23-7v-1 1Zm407 186c0 1 0 0 0 0Zm1 0v1l-1-1Zm-28-5h1-1Zm-14-2v-1 1Zm87-222ZM1436 198h-1 1Zm-2 0h1-1Zm-8-2Zm-2 0h2-2Zm-108 229h-1 1ZM955 267h-1s1 0 0 0h1Zm496-69Zm-511 74c-1 0 0 0 0 0Zm-7 0Zm484-68Zm180 82Zm-118-78h1-1Zm-519 88Zm509-93h1-1Zm0 0Zm-83-6h2-2Zm12 6h-1 1l1-1-1 1ZM1470 203h1-1ZM973 315ZM972 315h1-1Zm-13-4h1-1Zm24 11Zm390-127h-2 2Zm21 10h1-1Zm5 2Zm0 0Zm-373 136Zm-79-36s0 1 0 0Zm78 36h1-1ZM1025 343Zm368-135v-1 1Zm0-1h-1 1c-1 0-1 0 0 0 0 0-1 0 0 0Zm-205 214h1-1Zm-202-90h1-1Zm9 5Zm389-128Zm0 0h2-2ZM977 329Zm-6-2-1-1v1h1Zm32 16Zm-26-10Zm336-153Zm-207 216Zm-1-1v1h1-1v-1Zm174-222h2-2Zm2 0Zm-227 200h-1 1Zm220-200h-1 3-2Zm-194 216h1-1ZM1272 173h1a2 2 0 0 0-1 0Zm137-2h-1 1Zm181 149Zm-157-124h-1 1Zm-1 0Zm-372 196c0-1 0-1 0 0h1-1Zm8 5h-1 1Zm5 6h1-1Zm411-197Zm-12-3h2-3 1Zm6 5-1 1h-1 1l1-1Zm97 47Zm-106-46h3-4 1Zm0 0-1 1 1-1Zm-1 1a4 4 0 0 0-2 0h2Zm127 63Zm-171-77Zm-2 7h1-1c1 0 1 0 0 0Zm-6 1h1-1Zm8 4c0-1 0-1 0 0Zm171 78Zm-9-4Zm-167-76h-1v1l1-1Zm-2 1Zm0 0 1-1-1 1Zm-81-34Zm248 118Zm-21-6Zm-247-112h-1 1Zm76 34h-1 1Zm-80-34h-1 1Zm-1 0Zm-3 0h1-1l-1 1h-1 1l1-1Zm-9 0-1 1 1-1Zm0 0ZM1298 174c0-1 0 0 0 0Zm-22-1h1-1Zm34 16Zm-39-16h-2 3-1ZM1268 173h1-1Zm-2 0h-1 1Zm52 30Zm270 123Zm-308-139Zm25 13Zm-32-14h-1 1Zm337 168s1 0 0 0Zm-2 0h-1v1l1-1Zm-341-151c1 0 0 0 0 0Zm0-1v1-1Zm-30-8Zm349 160ZM1586 354Zm15 13h-1v1l1-1h1-1Zm14 8h-4 5v-1l-1 1Zm-19-7s1 0 0 0Zm-434-196Zm447 203h-1 1Zm-20-7h1-1Zm1 0 1-1-1 1Zm-2 0v-1 1Zm0 0h-1 1Zm-1 0Zm-433-197Zm435 201v1-1Zm-455-192Zm11 9c0-1 0-1 0 0Zm-12 14v-1 1Zm-63-26ZM1070 177v1-1Zm535 250Zm-29-5h-1 1Zm1 1Zm6 9h-1 1Zm-9-1Zm10 6h1-1Zm-544-236Zm-10-4h1-1Zm0 0Zm19 12-1-1 1 1Zm461 211v1-1Zm-1 1 1-1h-1v1ZM993 189v1-1Zm37 19h1-1Zm479 222h2-2Zm-20-6Zm-450-199ZM1039 225Zm456 209h1-1Zm-51-18h-1 2-1Zm-7 3h1-1Zm-437-199Zm-8-2Zm-12-3Zm443 205h1-1Zm0 0Zm-422-188Zm21 13v1-1Zm-7 0Zm394 181h1-1Zm0 1c0-1 0 0 0 0s0-1 0 0ZM990 240Zm409 187h-1 2v-1l-1 1ZM976 237Zm414 190Zm0 0ZM960 234Zm-3 2Zm583-66Zm0 0Zm-564 82Zm358 168Zm-4 0h-1 1ZM954 250Zm624-48Zm-263 223Zm0 0Zm249-217Zm-7-2h1-1Zm3 3Zm-27-7 1-1-1 1Zm0 0h-1 1Zm7 4h-1l1 1v-1Zm-4-1h1-1Zm42 19h-1 1Zm-1 0Zm-641 49v1-1Zm0 1Zm580-75-1 1v-1Zm-1 1Zm24 11Zm0 0Zm-321 201Zm299-208h1l1-1h-1l-1 1s0-1 0 0c0-1 0 0 0 0Zm0 0h-1 1Zm-286 216ZM1231 420Zm285-216Zm0 0Zm2 2Zm1-1-1 1 1-1ZM985 313ZM985 313Zm513-114Zm29 13h-5 5Zm-505 121v1-1Zm435-151Zm-435 160h1-1Zm1 0Zm479-139h-1 1Zm-487 138v1-1Zm-23-9Zm454-153Zm-395 180Zm468-146ZM971 327Zm-15-4Zm10 5Zm-15-6h1-1Zm-5-2Zm543-119-1 1 1-1Zm0 0Zm-2 1h1-1Zm-427 172h-1 1Zm423-172ZM963 334Zm131 60Zm-116-50h1-1Zm503-142h-1 1ZM1481 202Zm-410 185v-1 1Zm-7-1Zm-18-6Zm0 0Zm441-174Zm-371 221h1-1Zm213-20Zm3-1-3 1 2 1 1-2Zm-7 1h-1 5-4Zm61-5Zm-7 3h-2l2 1v-1Zm15 1 1 1h2l-2-1h-1Zm-10-3Zm0 0h-2 2Zm-31 0h-2 2Zm-15 1-1-1v1h2-1Zm24 2v1h1l-1-1Zm-32 3 1 1v-1h-1Zm-5 0h2-2Zm2-8-1-1 1 1Zm-3 8h1-1Zm68-4h2-2Zm-40 2v1h1l-1-1Z"/>
    <path d="M1352 408h1-1s0-1 0 0Zm-43-6v-1 1Zm-56-3h-1 1Zm134 2Zm2 3Zm-40-2Zm-10-2Zm-206 10h-4l-3 1 6 1c0-1 2-1 1-2Zm8-1 3-1-2-1-1 2Zm4-1h3l-1-1-2 1Zm-7-1h1-1Zm1 4h1-1Zm-17-2v1h1l-1-1Zm33 5Zm-10-1Zm-10-2ZM1125 411h1-1Zm33-1Zm-14-2h1v-1l-1 1Zm16 7Zm-22-6h1-1Zm-3 3Zm138-5 1-1h-5c2 1 3 2 4 1Zm-4-1Zm-1 0h-1l1 1 1-1h-1Zm-183-198Zm49-1h3-3Zm3 0v1-1Zm-15 1Zm-34 192h-1 1Zm0 0 2 1-2-1Zm19-194c0 1 0 1 0 0v1-1c0 1 0 1 0 0ZM1108 206h-1 1Zm13-23Zm333 221v1-1Zm-142 4Zm-249-208h-1v1h1v-1Zm501 158Zm3-1h-3v1h2l1-1Zm-397 55h2l-1-1-1 1Zm-2-1Zm0 0Zm-116-71Zm-3-2h-1 1Zm1 1Zm26 34-1 1 1-1Zm-1 1Zm0 0h1-1Zm-40-43h1-1Zm0-1v1-1Z"/>
  </g>
  <defs>
    <clipPath id="a">
      <path fill="#fff" transform="rotate(11 -437 367)" d="M0 0h787v327H0z"/>
    </clipPath>
    <clipPath id="b">
      <path fill="#fff" transform="rotate(18 643 5109)" d="M0 0h692v378H0z"/>
    </clipPath>
    <clipPath id="c">
      <path fill="#fff" transform="rotate(18 508 3210)" d="M0 0h692v378H0z"/>
    </clipPath>
  </defs>
</svg>
