<svg width="1441" height="742" fill="none" xmlns="http://www.w3.org/2000/svg">
  <g clip-path="url(#a)">
    <path d="m1296 441-3-4h-1l-4 2-1-1-3 3 1 2 1 1 2 2 8-5Zm40 10 1-4h-1l-1 2 1 2Zm-2 8h-4l-1 1 4 5h2l-2-4 1-2Zm-23 16s0 1 0 0c0 1 0 0 0 0Zm-29-27-1-2-2 1 3 1Zm26 5v-4l3-2 1 1-2 3h2l3-1v-1l-17-23-3-2-6 8-1 1 1 1h1l3 1 1-1h1l6 6 7 1-1 1-5 1 1 10h5Zm40-41 3-2-2-2v-1l-4-5-4-1-5-1h-4c-1 2-1 5-3 6h1l5 3 2 3-2 1-7-4-4-1 2 2c2-1 5 3 7 3 0 3-1 4-2 4l2 2h3l5-1-2-2h-1l1-8h4l1-3 1 5h2l-1 3 2-1Zm-72 69 5 1 12-4 1-3-5 2 2-3-18-1-6 2-4 6h10l4-4 3 1-4 3Zm34-95 2 3 1 2h-1l9 13h3l-5-3 5-2-4-4h-2l-1-1 2-1-3-2c3-2 6-2 8 0h1v-2l-9-3h-6Zm-110-7 2 1-1-1h-1Zm178 88-3 1-1 2 11 1 4-3-2-4-5 5c-3 2-4 1-4-2 4 0 6-2 8-4l-10-1v5h2Zm0-40 3 2 1-2-3-1v1h-1Zm-40-3h-3l2 2 1-2Zm51-30 4 3 4-2v-1h-8Zm-272-1-16-21-26-1 24 32v1l11 1-7-6 1 4-7-4v-6l16 1 4-1Zm108 19-21-30-6-2 1-2-24-1 5 7c2 1 4 5 7 4a11362 11362 0 0 0 4 3 14190 14190 0 0 0 5 2h-5l-5-1 13 18 26 2Zm-27-18 2-1 5 4-1 1-6-4Zm0 6c5 2 11 2 14 6-4-3-11 0-14-6Zm-132 2 26 1-8-4c6-5-4-5-5-9l3-1-11-15-7-4-23-2 25 34Zm300 83-1-1-1 2 2-1Zm-244-93 10-2 1 1-4 1v1l7 3 4 6-11-3v3l3 4 27 2-22-29-2-2h1l-2-3h-6l8 8h-1l-13-8 1 4c-8 1-9 0-10-5h-3l-1 2 13 17Zm203-5h4-4Zm-209 18v-2c2-3 2-4-2-5l1 5-4-1 1 3h4Zm144 85-2 3c-1 3-2 4-4 5l9 11h5c3-4 5-7 8-8l-6-3-4 1-1-1 2-2-5-2 8-1 6-4c0 3 3 6 5 7l6-9-13-1v1l-7-2h-7l-3 4 3 1Zm107-40-11 4 2 2h3l2-2 4-4Zm-14 52 3-1 1 2 1-3-1-2 4-6h-1l-7 10Zm-83 11 5-9-3 5-3 4h1Zm25 5h-1 1Zm4-28v7l-11 5 1 1 10-3 1-1h1l3-3 2-1-3-2 6-5h-10v2Zm55 68h3l1-9-7 9h3Zm-14-51 2 1 1-1v-2h-4v2h1Zm38-51-2 1 8 1-4-6-2 4Zm-8 27v1h1l3-1-5-3h-1l2 3Zm-48-49v1l-3 5 8-3c1-2 3-3 5-2l3 1 1-1-7-10-7 9Zm25 79h2l3-2-3-3-1 2h2l-3 3Zm-2-86v4c3-1 6-1 8-3l2-2-1-1h-3l-4-1v5l-2-2Zm19 66v8l5-1-4 4 2 2 2-2 1 1-1 3 3 1-1-5-1-1 4-7 1 2 3 1 2-4-6-1 1-2h-8l3 2c-3 1-4 0-6-1Zm11-44 1 1 2-1v-1l-2-1-6 2-1 5 6-4v-1Zm-33-23-5 1 3 4 2-5Zm46 3 1-2h-2l1 2Zm-26 85 1 2 2-4-4-1 1 2v1Zm-16-28 1-1-1 1Zm9 32-1-1-4 1h5Zm-14-25v2c2-2 3-3 3-5h-2l-1 2v1Zm39 21 2-3v-1l-2 4Zm-49-15Zm45 22h1l2-4h-1l-2 2v2Zm-17-2v1-1Zm-113-33Zm92-2-4-1-1 2-1-2h-1l-1 2 9 1 10-5 2-2-2-1h-2l-3 2-4-1 1-1-3-1-3 4 3 3Zm-16 41h-2 2Zm70 36 3-11-2-1-3 11 2 1Zm-26-42 1 1 1 1v-2h-2Zm35-47h1v-2l-1 2Zm-82 46 4 2 1-3-5 1Zm64-8Zm4-6-1 1v1h2l4 1v-2l-4-3-1 2Zm-9-24h-2l2 1v-1Zm-74 45 6-1 1 1-1-1h-5l-1 1Zm19-49h-5l-6 3-1 2h2l4-2v3h1l-1-1 10-3 1-2h-3l-2 2v-2Zm-33 6h-2 2Zm44-3h-1 1Zm-4 11-3-1-1 2 4-1Zm55-47 3 3-4-1-1 2 8 11 3-2 1 2h1l-1-1h1l1-1-2-4 2-3c-1-1 1-3 1-4h2l-2-2-1-1c-5 2-4 9-8 13 1-8 2-12 6-15l-1-1h-3l-2-2-5 6h1Zm-99 56Zm-10-3-5 2h8l1-1-4-1Zm95 21 1-2-5-1-1 2 5 1Zm-109-1-1-1h-1 1l-7-4 2-2-6-8-1 1 3 4h-4l-6 8-1 1 21 1Zm-227-16 19-28-27-2-7 12 15 18Zm-51-16-1 1 1-1Zm37-14-8-1 5 5 3-4Zm199 13Zm-222-12-5 7-1-7-6 9 2 2 1-1c7-1 8 4 11 5h-8l10 12 15-23c-7-1-8-3-4-6l-19-1-1 1 5 2Zm65 33-13-16-9 14 22 2Zm60-3-6-7h-1l-4 6 5-5c1 3 3 5 6 6Zm-28-22-4 5-2-2-3 4 16 19 18-29-26-1-3 4h4Zm-87 21 21 1-12-15-9 14Zm224-87 27 1-25-33h-1l5 15-1 1-6-16-23-2 24 34c0-1 0-1 0 0Zm-13 65v-4l5 4 5-8-27-1-5 8 22 1Zm25 1 8-7-17-1-4 7 4-3-2 4h11Zm-87-5 5-8-27-2-5 8 27 2Zm-60-4 26 2 6-8-27-2-5 8Zm93 21h-3l-1 2 13 15 3 2 8-11-3 2-1-1c3-2 4-8 8-8l5-7h-2l2-1h1v-2l-26-1-4 6v4Zm-19 14-9-3 6 7 3-4Zm-12-18 3 2c-2 2-4 5-6 5l5 6 11 4 7-12h-2l4-8 4-1 2-2-26-2-7 9 5-1Zm7 3 11-5c-4 7-5 7-11 5Zm-31 17 5-8c-3-1-6-2-9-1l-1-4 12 2 3-5v-2l1 1 8-12-27-1-8 11 16 19ZM741 381l-5-7h-1l3 7h3Zm455 131-13-15-9 14 22 1ZM721 380c-2-2-5-4-8-3l1 2 7 1Zm369 90 5-8-26-2-5 8 26 2ZM716 369l5 4-5-8c-2 1-2 3 0 4Zm-245-5c2-3 1-5-3-7l-7-2 5 8 2-2 1 3h2Zm289 18-13-17h-1c-2-2-5-4-4-7l-7-9-26-2 2 3 18 4 4 11c1 3 3 6 7 7l2 3 1 5 1 1 16 1Zm-26-20 2-1c4 2 4 6 5 8l-2 1-5-8Zm-154 8 1 1 8 1-1-3 4 1-23-32-27-1 25 33h4c-4-2-8-4-9-8l8 1c6 1 8 2 10 7Zm153 4-4-6-4-1v3h1l2-1 3 5h2Zm-91-22c-2-2-4-4-4-6l-3-3h-1v2h-3l1-2-23-2 7 9h1l3 4 3 4h-1l11 16 27 2-2-3h-1l-1-1-4-7c-7 4-8 5-4 11l-6-1-14-15-3 1-1-1 6-5c4 3 4 10 12 8-6-2-6-7-6-11l11 6-5-6Zm92 29-5-6 4 6h1Zm558 137 1-3-3-4c-2 1-3 1-4-1v-4l-3-2h-1l-6 10 6-1-8 3v1l11 1 2-1v1h5Zm34-71s-1 0 0 0Zm-110 52-9 14 18 1v-3l-11 2 10-5-8-9Zm16 20v1-1ZM791 384l2 1-24-34-27-1 11 15 1 1 12 17h1l19 1v-1l5 1Zm432 139 5-4h-6v3l1 1ZM693 365l-1 3 8 10v1h7l-2-2c-2-4-4-7-1-11l8 8v-11c-1-3-4-4-8-4h-3c-3-3-8-5-5-10l4 1c3 3 4 3 6 1l-3-4-12-1-1 3-4-2h-9l14 19 1-2 6-1 3 2-3 3-3-3h-2Zm292 8-6-4 15 21 10 4-3 4 25 1-24-33-22-1 7 7-2 1Zm13 13-1 1-8-4c5-2 7 1 9 3Zm131 122-3-4-8 1-6-5-5 6 22 2Zm-249-99v-1l1-1 8-10-1-2-19-1 11 15Zm28-5 5 7 11-13-21-2 4 1c2 4 3 6 1 7Zm-58 8 9 12 27 2-16-22v1l-9-2v-1l6-2-4-5-6 8v1l3 2-1 1-3-2-6 7Zm75 17 27 1-22-31-14 17 9 13Zm58-9 9 13 27 1-23-31-13 17Zm-26-20-22-2 11 15 11-13Zm100 67 5-7-26-2-6 8 27 1Zm-211-60 5-6v-4h3l3-4-21-1 10 15Zm144-5-21-2 11 15 10-13Zm323 16-1-3-3 2 4 1Zm-228 21-22-31-14 17 9 12 27 2Zm156-21-6-1 2 4 4-3Zm-228 0 11-14-22-2 11 16Zm228-37 24 33v1l27 1-7-9-9-3c-5-1-3-7-8-7l-4 1-3-2-4 2 2-3-2-8 8-1-4-3-20-2Zm14 10 1 4h-2l-4-6 2-1 3 3Zm13-8h-3l7 5-4-5Zm-160 28c5-1 7 3 10 6l4-5-4 2-1-4-12-1 3 2Zm-51-5-22-1 11 15 11-14Zm22 16 11-14-22-1 11 15Zm-27 15-22-31-14 16 9 13 27 2Zm-221 16 27 2 5-8-26-2h-1l-5 8Zm33 2 27 2 5-8-27-2-5 8Zm58 4c-6-1-12-4-14-7l16 6 5-7-27-2-5 8 25 2Zm403 5v1l-1-1v-3l-2-2-2-1v4l-1-2-3 2-2 4 12 1 1-2-2-1Zm-386-4 18 1 5-8-26-1-4 5c3 0 5 1 7 3Zm51 3 6-8-27-1-5 8 26 1Zm34 2 5-8-27-1-5 8 27 1Zm-92-6h-1v1l1-1Zm365-7 5-9-10 2 3 4-2 1-3-1 1 2 4 1h2Zm-23-1 2-2-10-6c3-1 6-2 7-1l2-4-13-18-13 17 2 2v-1l16 10 1 2 6 1Zm-127-26 10-13-22-1 10 14h2Zm-28 16-17-23-2-4-4-4-13 17 9 12 27 2Zm-8-19 1 2 1-1-2-1Zm79-7-11-1h1l3 3-4 1c-4-1-6-3-8-5h-3l11 15 11-13Zm-38 28-7-9-14-4 4-1c-3-2-8-4-3-8v-2l1-2-4-5-6 8 1 1-3 3h-1l-4 5 9 12 27 2Zm109 7c-1 0 0 0 0 0Zm-65-34-14 17 9 12 14 1-2-2-7-6-3-3h2l1 1 9-1 2 4 2-3-3-5-1-2-8-7 1-1 3 3-5-8Zm37 32 1-4-5-4h-1l1 1h-2l-2 2 1 1 4 4h3ZM153 356l6-7-14-1v1l-4 1 2 5v1l9-1 1 1Zm65 16 1 1c7 4 12 9 21 10l6 2 7 1c-7-2-14-6-17-11-2 3-3 1-4-1-1-3-3-4-6-5l-4-3-5 6h1Zm124-6 1-5h-4l1 1 2 4Zm50-2-11-1 7 5 4-4Zm-67-4h-1l-21-2 11 15 11-13Zm-16 17 1-1-12-17-10 12 2 1-3 1-3 3 5 7 5-1 2 1-2 3-3-1 2 4 27 1-9-12-2-1Zm55-13v-1l-13 17 9 13 26 1-21-29-1-1Zm56 8-1-2h-1l-8-5h-7l11 14 6-7Zm10-4 4 4-3-4h-1Zm24 2-6 1-1-2h-1l-1 3-6-2 8 12 10-13-3 1Zm-31-4-9-1h1l8 1Zm-6 18 9 13 27 1-16-21a548 548 0 0 0-7-2l-5-1-8 10Zm-225-33-22-1 11 15 11-14Zm83 12 6 8 11-14h-15l-1 5-1 1Zm-146-11-4 5c2 1 4 3 7 3l2-3v-1l-5-4Zm151 26-15-21h-1l-13 16 9 13 12 1-1-4-1-3-3-8 8 3 1 1h-4c-1 5 5 7 7 11h3l-3-9h1Zm912 32-12-17-5-4c-1-3-2-7-8-6l-2-2 7 1-4-5-26-2 2 3 17 1 4 8c-3 1-10-3-10 3l-4-2 15 20h1l-2-2v-3h1l4 5 22 2Zm-950-39-11-16-7 8 8 5 4 1 6 2Zm16-16-21-1 10 15 11-14Zm-33-2-22-1 11 15 11-14Zm62 35-2-2-2 2h4Zm-146-40h-4l1 1 3-1Zm473 43-2-1 1 2 1-1Zm5-6-4-2 2 5 2-3Zm34 26-16-21v2l-7-11-8 9 7 4-10 1 1-2-2 3c2 2 3 3 1 4l6 10 28 1Zm-34-2-8-12h-2l-10-5-1 1 3 5c-6-2-8-5-7-12l10 7v-4l2 2-6-8-1-2-3-2 2 1-1-2-8 10c4 3 4 5 1 8l-2-7-5 6 9 12 27 2Zm67 4-22-31-11 13 7 5h1l-2-5 6 2-2 4-4 1-6-6-3 3 9 13 27 1Zm601-13 1-1 8 4 3-3 8 6-9-2 4 2-4 1-3-2h-2l-5-3 11 15h6v-1l2 1h1l6-15-13-17-26-1 12 16Zm24 1c-1 3-2 3-7-2l7 2Zm-587-16Zm-138 22-3-4-4-1v-1l3 1-8-12c-7 1-5-4-8-7l3 1-4-7-2-1-3 4c2 3 3 4 1 4l-4-1-7 9 9 13 27 2Zm-32-18 7-1 7 7-4 3-10-9Zm126 7 11-13-8-1h-1l-13-1 11 15Zm664 50-2-3 2 4v-1Zm-732-65h11l2-2-20-2 2 2c2 2 3 2 5 2Zm18-1Zm-45 4-6-5c4 0 6 1 7 3l5-5-22-2 11 15 5-6Zm62 10 11-13-22-2 11 15Zm-150-22Zm-24 0-1 1 8 11 11-14h-6l1 2h-13Zm81 7v-2l1 1 2-3-3 1-2-2-16-1 11 15 7-9Zm-1 26-23-31-13 17 9 12 27 2Zm-29-33-21-1 11 15 10-14Zm-247 15h-1 1Zm-126-29-5 2 2 3 3-5Zm652 85-6 8 27 2 5-8-26-2Zm-167-10-5 7 27 2 5-8-27-1Zm62 12h5l-4-2h7l-2-3c7 0 4 3 5 5l15 1 5-8-26-1-5 8Zm-133-9 26 2 5-8-26-2-5 8Zm-167-11 27 2 5-8-27-1-5 7Zm60 4 5-8-27-1-5 8 27 1Zm300 19 5-7-27-2-5 8 27 1Zm-67-4 5-8-26-1-6 8 27 1Zm278 52 6-8-15-5c-2-2-2-6-4-10 6 3 7 9 15 6l3 8 11-16h-2l-1-1 5-2-23-2 10 5c-2 2-6 2-10 0-2-1-4-4-1-5h-2l-8 11 16 19Zm183 49 26 2 16-24-6 3-1-1 8-4-10-4 1-1-14-1-20 30Zm12-4 10-2c-6 5-10 5-10 2Zm47-20 2 1-2-1Zm25 2 1 3h4v2h-5l-2-2-6 9 7-1h-3l3-4 6 5-1 1-3-1-5 2c-1 1-3 0-5-2l-9 14 7 1 5-4-1-3c5-2 10-5 14-4 6 0 9-3 12-7l2 1 8-12-26-1-3 3Zm-37-6-9-1 7 4 2-3Zm19 3 2-2h-5l3 2Zm-150-18 3-3 13-20 1-2h1l1-3-15-1 3 3c-4 1-6 0-7-3h-7l-8 11 15 18Zm-603-72 26 1 5-8-26-1-5 8Zm698 80-3-4h-5l-4-2c-2-2-3-3-5-3l-5 7 9 1 1-1 2 1 10 1Zm-12-6 6-1-7-8-3 4 4 5Zm-553-66 26 2 6-8h-1l-26-2-5 8ZM80 357l1 1 1-1-2-1v1Zm12 17v-1 1Zm-7-10 4 4v1l2 3 9-12h-4v-1h-1l-6-2-5 6 1 1Zm29 10-6-6h2l-1-1 2-2-1-1-2-2-5 2c-5 2-7 5-8 9l1 1h18c-1 0-1 0 0 0Zm380-9-25-33-26-2 9 13 6 3-2-8c5 0 8 3 10 6 1 1-1 3-2 5 4 0 4 3 5 6l4-6 12 6-12-1 7 7 2 4h12Zm-368 8 8-1-1-1-2-3-5 5Zm-7-9h1l-2 1 4 6 5-5-5-6-3 4Zm-6 3-2 1 2-1Zm30 0-6-4-5-1c0 3 4 5 4 8 2-2 5-2 7-3Zm1126 96h-2 2Zm-456-58 7-9-1-1v-1h2l3-3-22-1 11 15Zm-288 29 5-8-27-2-5 8 27 2Zm-173-66c-4 2-7 1-10 0l5 7 11-13-13-1c1 3 1 6 7 7Zm428 35 11-14-22-1 11 15Zm487 59 1-6c6 0 12 3 16 8h4l4-1v2h2l-3-5-6 2v-1l4-2-2-1-1-1-20-2h-2l1 4 2 3Zm-874-90 1-3-2 3h1Zm-19-5 7 10 6-8-8-5 1-1-10-1 3 5h1Zm372 34 11-13-2-1h-8l2 2h-1l-4-3h-8l10 15Zm-33-2 11-14-7-1-2 1v-1h-12l10 15Zm-229-11 9 13 26 2-19-27-5-2-11 14Zm854 149 1 1 3-3h-1l-3 2Zm-23 9-4 3v1h1l3-4Zm11 10c0 1 0 0 0 0Zm-13-13-2-1 2 1Zm-6 1 3-2h-4l1 2Zm40 0v-2l-2-1v3h2Zm-25 6v1-1Zm22-162h-1 1Zm6 140 3-1-3-1v2Zm-58 16-6 9 1-1 18-6 1-4-6 1-1 2-7-1Zm47 13h-1 1Zm23-150 1-2 2-2-3 1-1 4 1-1Zm-6 1 2 2 3-3-5 1Zm-2-9-6-2 4 6 2-3v-1Zm-12-11h-1 1Zm8 159 1-1-1 1Zm-105-4 5 1-3 4 8-12-10 7Zm73-17-3 1-2-1-2 2-3 1 1 1h-4l-4 1 2 2-4 2-1-1-1 2h3l3-1 2-4 9 5-10 1-2 2 12 1 5-10 2 7v3h1l1-1c-1-2-1-4 1-6v-1l-3-2v-1l-3-3Zm81-111-1-4v4h1Zm-79 141h-1 3v-2l-2 2Zm23-29-2 4 3-4h-1Zm19-85 3 1 3-3-6 2Zm3-5-3-1h-2l-2 2-2 1 4 1 2-2 3-1Zm-13 2v2h7l-1-1-4 1 1-1-3-1Zm-34 81-3-1h-2l5 1Zm45-76-2-2-6 3-2 4v1a138 138 0 0 0 10-6Zm-18-9v2h-1l2 2 2-3-2-2-1 1Zm1 14-1-2v1l1 1Zm3-15 2-2-4 1 2 1Zm-24 10 3 2-1 1 5-2v-1h1l-6-3-3 3h1Zm8 64h1v-1l-2-1h3l2-1 1-1-1-1-4 2-1-4h-3l-5-3-1 1 9 7h-3l-9-4 6 8 7-2Zm14-12Zm-29 12-2-3v2l2 1Zm2 3h1l-1-1v1Zm4-68 1-2h-1v2Zm25 13 1-2-1-2h-4l-1-1-1 4 6 1Zm-19-19-2 3v1l3-2-1-2Zm-18 0 2-2-3-2v1l1 3Zm26 18 1-3c-3 1-6 1-6 3h5Zm-34 100h3l3-3v-1h-1l-3 3h-1l-1 1Zm-95-131 6 3 8-10-21-2 6 9h1Zm20-6-9 11 3 2c3 1 5 4 7 6l6 3c1-1 2-3 4-3l3 1-2-4h-1v1l-6-1 1-1-7-3-4-4 14 5-9-13Zm-16 11-3-2 2 3 1-1Zm4 5-1 1 2 4h1l-2-4v-1Zm23-9 6 7 11-13-12-1-2 6-3 1Zm108-34 3 1 1 1-3 1 5 1 1-1 3 3 4-2 3-1v-1c-4-1-7-2-10-5h-10l4 3h-1Zm-34 22 3 2h-4l2 3h5l-1-1 1-1 4 2h1l-10-13c1 2 0 5-1 8Zm-12 103h-1v1l1-1Zm43 41 1-1h-1v1Zm-88-77 5-8h-1l-12 7 8 1Zm49 14v5l2 1h3v2l-5-1v3l-14 2 1 1h4l-3 1 3 3h5l-3 3 4 1 5-9-3-1h4l2-3-1 1 3-6h2l4-6-7 4v-1l5-6h-7c-1 4-2 6-4 6Zm-81-8 8 2a26 26 0 0 1-11 3l-3 4 15 17 3-2 8-12h-1l-3-3c-2 1-3-1-4-2l-7 5-5-6 11 1-2-1c4-6 6-4 7-2 0-2-2-4-6-6l-7-1-2 1-1 2Zm45 38 5 1-2 4-3-1c2 4 3 3 5 1 3-3 6-4 10-2-2 3-5 8-8 7-3-2-6 1-9 1l2 1-6 5-3-3 8-10h-1l-16 24 24 1 1-3 5-2 2-2c-6-3-11 4-16 5 7-7 10-8 18-9l2-3v-1l-9-3a292 292 0 0 0 14-4l6-8h-13l-10 2-4-1 3-2h-3l-2 2Zm26-36-2 1c-2 3-2 5 0 6l4-5-2-2Zm-19-47v2l2 2-2-1-3 2 3 1 2-3-2-3Zm2-7 1-1-2-2h4l3-4-4-1-1-5 1-1-13-1 11 15Zm-8 9-1 1 2 1 1-2h-2Zm42 22 1-3-1 1v2Zm3-7h-8c-1 1-3 3-5 3-2 1-4-1-7-2l2 2 2 1-1 1 1 1 15-5 1-1Zm-7 61 3-7 7-1-5-2-7 10h2Zm73-119v-1 1Zm-11 30v-1 1Zm-44-30 1 1 3-1-2-3h-1l-1 3Zm71 18v-1l-1 2 1-1Zm-7-5h2v-2l-4-1 4-7h-9l7 10Zm-7-1Zm-15-14-4 1 2 2 3-1-1-2Zm8-5 1 2 1-1-1-2 3-2h-3 2l-3 3Zm-2 6-1-1-2 3 3-2Zm-120 94v1-1Zm86-29-2-3-1 4 1-1v3l2 1h5l8-6-4 7h8v-1l-3-3 2-2-2-2-11-1-3 4Zm-34 19c-1-2-2-5 0-8h-1l-7 4-3 4h11Zm-58 8 2-2h-1 1l2-4h-2l-5 4 3 2Zm56-65 2 2-1-3 5-3 4 3-2 1h1v1h-2c-2 2 1 4 3 6l8-10-16-1-4 2 2 2Zm-60 66 2 2 2-2h-4Zm63-61v-1 1Zm-4-9h-2l1 2 1-2Zm-14-1-9-1 5 5 4-4Zm5 3h2l-1-2-1 2ZM61 316l6-4v-5l-6 8v1Zm15 97v1h11l2-3-6-1-1 1 1 1-2-1-5 2Zm-11-4h-3l-1 2 4-2Zm729 47 9 4v1l-10-4-6 10 15 19 19-29-27-1Zm-31 29-6-8v1c-3-2-5-4-8-4h-1l-7 9 22 2Zm34 2-13-16-9 14 22 2ZM39 416v1c3 1 6 2 9 1l-9-2Zm42 7 4-6c-2-1-4-2-5 0l-2 5 3 1Zm-5-13-4-1v1l-9 6 4 1 9-7Zm-23 3v-1l3-3h-6l-1-1h-5l-2 1a762 762 0 0 0 5 3h-8v3h13l1-2Zm577 63-12-15-9 14 21 1Zm-2-31-8 12 11 12h1l6 2 17-24-27-2Zm121 26 7 5-5-7-2 2Zm-112 2-5-3 4 5 1-2ZM68 424l4-1-1-3-2 1-1 3Zm529 50-13-15-9 14 22 1Zm100 6-13-15-9 14 22 1Zm91-25-27-2-8 12 16 18 19-28Zm-141 22-4-2-1 2h5Zm16 1-12-15-7 11 5 2-1 1 15 1Zm-68-35-8 11 16 19 3-5v1l15-24-26-2Zm122 24-9 14 22 2-13-16Zm137-8-26-1-8 11 17 20h3l-1-7 15-23Zm-291 12-12-14-9 13 22 2-1-1Zm-88-5 22 2-13-16-9 14Zm93-6h-8l9 11 19-29-27-1-7 11 5 6h9v2Zm418 27h-4l-7 11 21 1-10-12Zm89 17h-1l22 2-12-15-9 13ZM49 439h2l-1-1-1 1Zm801 37-9 14 22 1-13-15ZM40 432l1-1-1 1Zm65-2 2 2-5 4 4 2v-1l-1-2h3l8-12h-4c3-2 4-5 7-5v-1c-5-1-6-3-5-5h-2v1l-3-1h-2l-3 3v-3l-9-1-7 12 6 8 5 2 1 1 5-4Zm-10-15 1-2 14 7-1 1-14-6Zm-4 9v-1l11-1v2l-5 4-6-4Zm12 16v1h1l-1-1Zm-45-20-2-1-1 1v1l3 1v-2Zm2 1-1 1h4l3 1-1-2-5-1v1Zm-21-1 1 2 2 1-3-3Zm64 20-1-1 1 1Zm0 0c1 0 1 0 0 0Zm-9-3-4 2 5 1v-1l-1-2Zm-27-2 2 3 1-2-3-1Zm172 11-7-2 5 6 2-4Zm212 4-4 7 13 3-9-10Zm-122-24-8 11 16 19 18-28-26-2Zm33 2-8 12 13 15 4 2 13-21-9-1c3-3 7-3 10 0l3-5-26-2Zm33 2-8 12 16 18 19-28-27-2Zm-233-15-6 10 5 2-1 2-5-3v1l2 3 3 3 5 1v-1l1 1h2l-2 1 2 4 5 2 4-6h-1 1l7-10h-1v-2l1 1 5-7-27-2Zm133 9-7 11 15 19 16-24v-1l-5-2-4-2-15-1Zm-66-4-7 10 6 2-5 1 6 8 13 1 14-21-27-1Zm-34-3-4 6c3 1 6 1 8 3l-1 3h-1l-1-3h-6l-2 3 16 19 10-17-8-6 10 3 6-9-27-2Zm67 5-8 11 1 1 13 4h-9l11 14 19-29-27-1Zm54 3 2 3h3l1-3h-6ZM80 441l-1-1-1 1h2Zm51 3-6-7 1 5-9 1 14 1Zm-18-1-2-2-2 2h4Zm151 10-12-15-6 8 4 4-5-2-2 3 2 1 1-1 1 1 17 1Zm191-19-19-1h1l-3 3 5 4h-1c-2-2-8-3-10-6l-7 10 13 16 4 1 8-13-6-3 1-1 6 3 8-13Zm-339-22 4 4 2-2-2-1-4-1Zm3 18-3 5 7-1-4-4Zm-4 5v-1 1Zm26 2 8-13-4-2 1-1 4 2 5-8-13-1-3 4 2 1-4 5-1-3-4 5c-1-3 0-6 2-9v-1h1l3-2-9-1-8 12 10 12 3-1 2 3 5-2Zm323 28-4-4-1 1-12-2-1-2-4 6 22 1Zm224-16-27-2-7 12 15 18 7-10h-5c-2 0-3-2-5-4l11 2 6-9-6-5 8 1 3-3Zm-259 14-5-4h2l-8-11-9 14 20 1Zm-65-4-13-15-9 14 22 1Zm31 2 2-1-12-14-9 14 19 1Zm41 1Zm94 8-12-15-9 13 21 2Zm-2-31-7 11 15 19 19-29-27-1Zm-66-5-8 12 16 18 18-28-26-2Zm60 4-27-1-1 1 7 4-8-2-6 8 16 19 19-29Zm-291 13-4-5c-2-1-4-2-4-4l-5-6-3 4c7 1 1 4 2 6l-5-1-2 4 21 2Zm-45-3v-1c-5-3-6-4 0-6l-5-3-5 8 4 1 6 1Zm-15-4h-1 1Zm160 13-13-15-9 14 22 1Zm-133-9-13-15-2 4c5 1 7 4 6 6s-1 4 2 5h7Zm-38-2-3-3 6 1-9-10-2-1 1-1-2-1-3 6h4l3 9-7-2h-4l-1 1 17 1Zm-26-6 3 3 1-1-4-2Zm163 15-12-15-9 14 21 1Zm-16-6c9 0 12 2 12 5l-12-5Zm804 92 27 2 20-30-26-2-21 30Zm-136-56 6 3 1 5h-1l-5-2-4-3-5 8 22 1-13-15-1 3Zm-822-26 2-2-2-2-2 1 2 3Zm-86-16v3l2 3h1l3-5-6-1Zm89 6 3 1 1-1h-4Zm-52 0 4 1-1-2-3 1Zm18 0 3 1 2-3h-9c-1 1-2 3 0 5l4-3Zm-23 7 3 1 1-1h-4Zm21 1-4-2 3 3 1-1Zm-38-10h-1 1l-2-1-2 4h9l-5-3Zm22 5-3-1-3 2h5l1-1Zm71 27 3-5c-2-1-4-2-5-5l4-2-8-1c-3 0-6-1-7-3l-3-2-1 2 4 6c-3 0-4-2-6-3l-4 6 20 6h3v1c0-1 0-1 0 0Zm-63-27v-1l-2-2-1 2 3 1Zm182 23-4-3-1 2 9 5 2-2-6-2Zm-35-6h-1l-3 4c4 1 5 4 8 6l1-1-5-9Zm-66-18-26-1-3 3c2 1 3 3 3 5l12 3 3-2 5 2 2-3-1-5 3 2 2-4Zm105 37 1 1 6 1-3-1-4-1ZM82 457v1-1h-3l1 3 10 2 1-1c-2-2-5-3-9-4Zm-33-13v3l4-3h-4Zm12 1v1-1Zm57 11-1-1-8-4h6v-1l-9-1-2 3 19 9 1-1c0-2 0-4-6-4Zm568 60h4l-3-1-1 1Zm29-18 10 1 8-12-27-1-2 3 8 5c-3 0-7-1-9-3l-12 18 7 4 2 4h4l-3-2 2-1 8 2-2 1 4 1 11-17c-2 1-5 0-9-3Zm-482-11h3l-2-1-1 1Zm306 6 2-2 12 6 13-20h-1l-25-2-21 30 27 2 6-9c-5-1-10-1-13-5Zm-1 9v1l-8 1c1-4 1-4 8-2Zm106 9 1 2h1l6-8-2 1c-1-8-5-4-9-4 0-1 1-3 3-2l9 1v3l13-21-26-1-7 9c5 1 7 5 11 7h-3l-9-5-6 8c5 2 5 5 6 7l-7-5-6 9 24 1 1-2Zm-3-19c-1-1 1-1 1-2l8 4-1 1c-4 1-7-1-8-3Zm520 30c-10-1-11-2-12-6l13 5 3-6h-6 1l-2-1-19-1-20 30 26 2 16-23Zm-319 4h4l5-9-3-3 3-1 2 2 7-10c-5 1-7 0-10-4l11 2 5-7-27-2-14 21 3 2-3 1h8l4 2-1 2-5-1-7-1-2-1-3 5 23 2Zm-6-15 5 1 3-4 2 7c-9 0-9 0-10-4Zm388 19c-4 2-7 3-10 1l7-4v-2h-6c-4 3-9 1-13 4l-1-1 7-8-3-3-20 30 26 2 13-19Zm-27 14h4v-5l5-7 9 3c-1 1-4 2-4 4-3 6-9 6-15 9l1-4Zm-143-8-2 3h6l-4-3Zm-640-39 15-23 4-6-26-1-14 20 7 5c4-2 7 0 9 4l-15-3-2-4-3 4-1 1 11 4 13 1 1-2h1Zm-227-13h2-2Zm725 46 8-11c-1-2-4-4 0-7l2 4 11-16-27-2v1l-21 30 27 1ZM92 470l18 8v1l4 1 1-2-23-8Zm33-7h-1l-18-5h-6l-1 2 3 1c4-3 6-1 9 1l-3 1 3 3h-1l-9-2-1 3 1 1h12l6 3-1 2 7-10Zm-28-1-2 4 1 1 4-4-3-1Zm386 30 1-1 3 1 13-20-27-1-3 5 20 3 1 5c-11-6-19-7-21-4h-3l-3 4 8 7-9-5-10 15 26 2 7-10-3-1Zm-175-9v-1l-5-1-5-7 4-2 4 1v1h-4v2l3 1 14-4 6 1 8-12-26-2v1l-1 1 4 6-2 1-4-4h-1l-9 14 7 4c-6 3-6-1-8-2l-6 9 26 2 2-2c-6 0-10-1-7-7Zm-118-1v2h3l-3-2Zm-10 0 1-3h2l17-24-11-1-1-1-9-1h3l-3 4 2 3-2 1-3-3v-5h-2l-5 7 1 2-2-1-3 4 4 2c4 5 9 5 15 6l1 3-19-5 1 3h-4l4 5-10-2-4 6 27 1 1-1h-1Zm476 26 2 1 6 1-3 4 5 1 11-1 1-1-6-2 6-2-15-11-7 10Zm44-23-27-2v1l-9 12 6 2c2 3 6 3 9 4v-12c2 3 2 6 4 7 4 2 5 3 5 5l11-16v-1h1Zm69 36-2-1 1-1 12 2 2-4h-3c-8-2-7-6-7-10l8 4-4 3 7 2 16-25h-5v2l-3-1v4l-8-6h-10l-14 20 5 1v2l8 3-1 1-6-1-1 3-10-2-1 2v1l16 1Zm-83-15 1-2-8-2 7 4Zm-53-25-27-2-9 14 5-1 7 3-1-3h1l4 8-18-2-2 4-1-1-6 8 27 2h-2l-9-7 9-2 3 6v1l4-5-5 1 7-6-1 3 14-21Zm-30 27-12-2 5-2 7 4Zm-34-25c5 5 14 9 21 10l10-14-27-2 5 5h-2l-5-2-2 3Zm-70 15-7-3-6 8 27 2 20-30-26-2h-1l-13 21 15 5 3 2-1 1-4-1-7-3Zm8-18a670 670 0 0 0 10 4c-4 0-8 2-10-4Zm-2 4 9 2 6 1v1c-5-1-12 1-15-4Zm74 25 2-2-4 2h2Zm-112-39-27-1-5 7 10 2-9 1-2-1-14 21 26 1 15-22h-1l2-3h1l4-5Zm107 39c2-3 6-5 8-5l5-6-2-1h-10v-1l7-1-12-7-4-1-13 20 21 2Zm438 28 20-31-26-1h-1l-20 30 27 2Zm-67-5 18-25-14-1-2-2 4-1 12 2h1l2-3-27-1-21 30 27 1Zm34 2 20-30-27-1-20 30 27 1Zm-106-38h-1l-20 30 27 2 20-30-26-2Zm-40-2-27-2-20 30 25 2-3-5 2-1 5 2 2-4 1-2h1l14-20Zm-33 16h15c-9 5-10 5-15 0Zm-61-22-20 30 26 2-1-1 3-1 1-2c-5-2-5-2-1-4l3 1 1-2-1-1h2l14-21-19-1h-8Zm71 33 2 3 2-2-4-1Zm268 20 21-30-27-2-17 25c4 1 6 3 7 6l16 1Zm-33-2 4-5-5-2h6l16-24-27-1-21 30 27 2Zm-772-66-1-4-2-5-5 7 2 1 6 1Zm23-13-1-1-1 4-3-1-2-3-16-1-3 5 8 4-3 1c4 4 9 6 14 9l3-6c-2 1-5 0-7-2 2-3 6-3 11-3l3-4-3-2Zm-10 6-2 1-10-5 1-1 11 5Zm-2 18-3 1 1 1 2-2Zm-23-7-2 4 3 2-1 1-4-2-4 6 13 1 1-1c2-3 3-5 10-5-7-1-12-4-16-6Zm43-12Zm-26 21 4-1-4 1Zm-77-1h2l5 1-3-2-2-3 5 1 7 3 2-4c-7-4-7-4-6-6l7 5 4-7-3 1c-6 1-11-1-14-6l4 1c5-4 6 1 7 1l7 1 4-5-3-1 1-1 3 1 6-9-10-1 4 2c-7 1-10 0-13-2l-5-1-2 5-2-3-16 23 10 1c-5 3-5 4 1 5Zm28-8-2-2-7 11 7 1c-1-1-3-2-1-3 2-2 5-3 10-1l8 5h3v-1l-16-8-2-2Zm154 15 1-2-1-1-4 2 4 1Zm-143-36v1l5 2-2 6h-1l-4-6-4 7 7 1c-4 3-5 7-1 8l12 1 2 1 3-4-7-5 1-1 7 4 9-13-6-1-1 2-7-2-13-1Zm10 27 2-3c-4 0-5 1-5 3h3Zm103 12h7v-2h-4l-1-1-2 3Zm-30-17 1-2a716 716 0 0 1-1 2Zm25 7-6-3h8l-1-5 7 4 11-17-27-2-14 21 16 5 2 1 4 3 1-2v1l-1-6Zm40-1 12-18-18-1 5 4v2l-9-6-5-1v1l-10 14 4 2-6 1-1 2h4c3 0 5-1 6 2 1 2 4 5 9 4l-9-8 13 1 5 1Zm-42 10h1c-3-2-8-3-12-1h-5l16 1Zm-25-15-6 5 3 1 4-5-1-1Zm2 8 2 1-1-2-1 1Zm-2 4-1 2h2l2-1-2-1h-1Zm672-94h-1l-30-8 4 6v1l27 1Zm-879-43 2 3-3 2 2 1 10-13-6-1-5 8Zm-77-13 4 5 4-4-8-1Zm68 5 1 3 2-3h-3Zm-63 14-6-9-1 3 1 5 4 1-4 8 1 3 5-10v-1Zm-5-10-1 1 1-1Zm789 37-24-34-27-1 21 27 7 3h-6l3 3 26 2ZM87 351l-8-3-1 1 5 7 4-5Zm-39 4 6-6-1-1-6 7h1Zm987 13-27-2 24 34h1l26 1-24-33ZM71 331l5 2-4-4-1 2Zm-35 4h-2v1h2v-1Zm26-5 1 2v-1l-1-1Zm7 6 2-2-1-1-3 5h1s-1 0 0 0l4 1-3-3Zm607 19-8-3v-1l6 1-5-7-21-1c2 2 4 3 8 2l2 4-4-1c-1 7 1 9 9 13 3 1 5 4 7 6l-6 3 6 5h-4 1v1h14l-1-1h2l1 2h11l-18-25v2Zm-359-1-7-4c-7 0-11-4-16-6l6 9 4-2-1 2 14 1Zm128 8 15 1-1-1-4-2 2-2-5-6h-2v-2l-7-10-3 1c-3-8-3-8-13-11l-2-1-16-1 19 26h1l1 3 4 5h11Zm-12-15-9-8-4-5h1l16 13v1l-4-1Zm-257-33 6 7v-1c5 1 9 2 13 5l3-1-1 2-1 2-1-1c-2 3-4 3-8 2l13 18 27 2-24-34-27-1ZM37 351h-1 1c-1 0 0 0 0 0Zm359 16c5 2 5 4 4 8l-9-1 6 6-1 1-4-3c-2-1-2-2-2-3l-6 7 9 13 27 1-23-31-1 2Zm-164 18h3l-14-8 5 7 4 1 1-1 1 1Zm100-22-2-1-12 16 9 13 26 1-22-31 1 2Zm-145 3 6-1 3 2-5 3 2 2-5 2 6 8 26 2-22-31-11 13Zm20 5c-7-4-7-4-6-7 1 3 8 3 6 7Zm579 49-23-31-2 3h2l-5 5-1-1-7 10 9 12 27 2Zm-34-2-22-31-1 1c2 2 3 5 2 7l-4-5-10 13 9 13 26 2Zm-565-52-1 1h1v-1Zm263 20 10 13 26 2-22-31-14 16Zm247-2-14 17 9 13 27 1-22-31Zm-603-8-1-2 1 2Zm66-20c5 0 5 3 4 6l3 2v1c-2-1-5-1-7-3l-3-2-6 7 2 3 6-6 1 1-6 6 6 8 1 1 26 2-23-31-4 5Zm15 20-1 2-9-4v-2l10 4Zm-90-1h2l-1-1-1 1Zm34 2Zm-38-3h1l-3-1 3-4-6-9c-4 7-7 9-16 11l-1-7c8 7 11-1 16-5l-3-5-1-1-2 2v2h-1v1h2l-2 2-4 4-1-2 2-1-4-3 1-1 3 1-1-3-6-4-2 4h5c-1 2-1 4-3 5l-5 4 7 9 19 2 1-1h1Zm-29-4-3-3-7 5h1l7 1v-2l2-1Zm75 7 1 1h1v-4l-2 3Zm22-4-2-2-3-1-2 6h2l7 4h3l-5-7Zm-8 4-1-1c-1-2-3-3-5 0l-2 2 10 1-2-2Zm801-15 20 27-1-1-1-5h5c5 2 6 1 7-3l12 5-7-10-12-4c-6-1-10-3-11-8l-12-1Zm-515-1-1-1-1 1h2Zm-20-9c2 5 8 7 13 6 2 0 2-1 3-2l-20-28-22-2v1c-1 4 1 6 4 8l9 6-1 1 4 9-4-1 7 9 4 1-4-7-3-7c4 2 8 2 10 6Zm31-19-2-3h-6l8 3Zm359 58-14 17 9 12 27 2-22-31Zm-378-30-9-1 9 1Zm-125-21v-6l-1-2c-5-1-5-5-7-8l5 1-1 5 7-3 7 5 4-3-5-7-27-2 12 16 2-3c0 3 0 6 4 7Zm66 17-8-11-4 1-1-2h-1l3 4c4 2 8 4 9 8h2Zm34 2-12-15-1 1-5-3 1-2 5 3-6-9h-1c-5 0-8 0-10-3l-10-2 4-4-16-1 24 33 27 2Zm-46-5c-3-1-6 0-8 2l11 1-1-1-2-2Zm620 10-9-1 7 4 4-1-2-2Zm6 9h1l-4-6c-1 2 1 4 3 6Zm-141 14 27 2-25-33-3-1-23-1 24 33Zm-233-15 27 2-24-33-27-2 24 33Zm-9-18c-3-1-5-5-8-7l1-1c3 2 5 6 9 3 1 3 2 6-2 5Zm-64 14-25-34-26-1 18 25c10 2 10 2 11 4l-11-4 6 8 27 2Zm32 2-4-4h2l-21-30-27-1 24 33h1l25 2Zm-22-7 1-1c5 2 5 2 5 6l-6-5Zm356 28-16-22-7-1 3-2h2l-3-3h1l-8-6-20-1 1 1-1 1-2-1 23 32 27 2Zm-732-47-9-12h-1l-2 9h5v1h-4l2 2h9Zm206-18 3 1-1-1h-2Zm559 67-24-33-27-2 24 33 27 2Zm-38-21-4-4 9 2v3l-5-1Zm71 23-24-33-11-1 4 9-8-4c-2-1-3-3-3-5l-9-1 13 19 3-2c3-3 14-2 17 2l7 5 2 3-27-7 9 13v1l27 1ZM98 311l-4-2v2l6 7 6-6-2-2-2 2-4-1Zm18-1-2 5 2 2 5-7h-5Zm-4 11Zm12-11-1 3c2 5 0 5-3 6l-1-3-3 2 4 5h1l1-2-2-1h4l1-2v-1h1l1-6-3-1Zm11 21v4h4l1 3c1-6 0-7-5-7Zm10 12-4-2-6 1-1-3-2 1 2 2v1h11Zm5-31-2 6 2 3c2-3 3-5 0-9Zm-43 13-9 12 3 3v1h10l3-2 9-3-1-2-6 1-9 1 5-3c2 0 4 0 5-4v-1l-4-5-3-1h-1c-1 1-2-1-3-2l-4 3 5 2Zm148-3-7 1v-5h-5l15 21 1-2c3 3 6 3 4 7v1l4 6h1l11 1-3-5 8 3v-4l8 6-3 1h5l-24-33-19-2 4 4Zm-112-2-5-6-8 6v4l-3-1-5 4 2 2h1l1-1 7-6-1 5 1 1 4-8h6Zm140 32h-1 1Zm-22-1-1-1-8-2v-1h6l-22-30-26-1 24 33h3v-1h1l3 2 20 1Zm-31-9v-2l17 7-1 2-16-7Zm87-20v3h-1l-4-3h-3l6 8c7 3 13 5 17 11 6-3 12-1 18 2l-14-19-19-2Zm9 3c3 2 4 4 5 8l-7-6-1-2h3Zm-157-12c-2 3-4 6-9 7l-4 4-3-1-1 1 8 11 2 1h-1l6 8v1h3c3-3 6-3 6 0h-1l19 2-25-34Zm9 16-10 7v-1l9-8 1 2Zm-32-5-3-3-4 9 9-2-1-2-1-2Zm36-3 5 7 5-2-10-5Zm740 112-26-1 6 8 26 2-6-9ZM57 404h2-2Zm25-5 4 1 1-2-8-1-2 1 6 5-3 1-4-6-1-1h2-6l-3 5 1 1c1-1 3-3 4-1l1 3 11 1 1-4-4-3Zm-39 1-1-2-4-3v8l3-1 2-2Zm21-4h-5l2 1 2 1 1-2Zm63 4-14-1-3 3-4-3h-2l-5 8h15l-1 1h10l2 1 4-6-2-3Zm6 7-1 2h4l-3-2Zm-45-1h3l-3-2v2Zm3-6-1 1 3 5 4-8h-3c0 2-3 1-3 2Zm938 40 6 8 26 2-6-8-26-2Zm-874-38 1 2-3-2-5-1c0 2-1 4-4 4l-3-2h4v-2h-8l-2 2 4 2c2 0 4 2 5 4l14 1 5-8h-8Zm907 40 6 9 27 1-6-8-27-2Zm33 2 6 9 27 1-6-8-27-2Zm-99-6 5 8 27 2-6-8-26-2ZM50 395l2 4 1-4h-3Zm1208 66v-3l-2-2c-3 3-6 4-9 3l6-5h-1l-5 1-1 3-12-3v-2h-2v1h-3l6 7 26 2-1-2h-2Zm-129-15 6 9 26 1-6-8-26-2Zm66 5 6 8 27 2-6-9-27-1Zm-233-15 6 8 14 1c-2-2-2-4 0-5l4 5 9 1-6-8-27-2Zm-110-12-18-25v-7l-3-1-3 4 1 1-1 1-2 1-10 11 9 13 10 1 17 1Zm44 69-12-15-9 14 21 1Zm273-27-6 8 27 2 5-8-26-2Zm-308-6-8 11 16 19 8-12-9-2 11-1 3-5v-1l1-1 5-6-27-2Zm80 10-14-5-7 11 15 18 7-9-5-4c-6-3-7-6-6-10l4 5 9 6 10-16-21-2c5 2 8 4 8 6Zm-47-8-3 6c3 0 6 2 9 4l-7 1-4 4 8 10 2-3 4 6 18-26-5-1 1 1c-9-2-9 2-12 5-2-4-6-3-8-2l3-5h-6Zm-86 25 22 2-13-16-9 14Zm94 5Zm-160-20-8-7 6 2 3 3 11-17-26-2-3 4v1l-3 3-2 3c6 1 8 3 6 6l-3-1 12 14 7-9Zm188 23-13-15-9 14 22 1Zm-741-91-7 4-3-3h-1l-6 4-2-5-5 7 27 2 5-8-8-1Zm602 46 5-7-27-2-5 8 27 1Zm-471-35 7 3 1-1-8-3h9l1-1-26-2-5 8 26 2 1-1c-3-1-5-2-6-5Zm-34-5 9 3v1l-10 1-3-1-2-4h-10l-5 7 27 2 5-8-11-1Zm-82-5-5 8 12 1c-1-1 1-2 2-2l1 2 11 1 5-8-26-2Zm33 2-5 8 26 2 5-8-26-2Zm326 21-27-2-5 8 27 2 5-8Zm-226-14h-1l4 3-5-1v1l1 3-3-1-1 2 14 1-2-2h1l6 3h7l6-8-27-1Zm33 2-5 8 27 1 5-8-27-1Zm792 32 6 9 26 1-6-8-26-2Zm-911-50 5 1-4-4-1 3Zm-54-11 6 8 26 2-6-8-26-2Zm41 3-1 2-2-2-5-1 6 9h14l-8-8h-4Zm-74-5 4 7v-2l7 3 3 1-3-4 6 4 15 1-6-9-26-1Zm114 7c3 2 7 4 12 4-2 4-4 5-9 1l-5-2-1 1 1 4 16 1h-1l2-2 2 2h1l-6-8-12-1Zm-128-8-3 6-5-6-12-1 3 4 6-3-4 5 1 2 7 1-1-3 4 3 17 1-6-8-7-1Zm173 11-26-2 6 9 26 1-6-8Zm-67-4h-4l3 2 1 2 4 4h1l-5-8Zm74 5 6 8 27 2-6-9-27-1Zm-57 1v-4l-1-1h-9l4 4 2 4h1l3-3Zm-160-9 2-3c3 1 6 2 7 1l3-1-1-2h-1l-2 1-1-2h-10l3 1v1l-6-3h-3l2 1 7 6Zm816 46 6 8 9 1-2-3 6 3h13l-5-8-27-1Zm34-33-14 17 10 13 26 1-22-31Zm-66-3h-1l-8 11 2 2 5 5-2 1-7-5v5l6 10 27 1-22-30Zm-5 8 1-1c8 2 8 2 7 4l-8-3Zm5 5c6 5 7 7 3 10 1-4-6-6-3-10ZM69 386l1-7h-3l-2 1 4 6Zm30-5h-2l6 8h5-1l-8-8Zm-18 4-1 2 16 1-2-3h-3v-1l-1-4h-1v4l-4-4h-1l-1 3-2-3h-1l1 4-4-2c-2 3-4 4-8 4l1 1 4 1 4-2 3-1Zm-28 0-3-2 3-2 5 1-3 4h8l-3-4h-2v-3l-1-1h-2v1h-4l-5 4 2-6H36l1 7 3 1 11 1 2-1Zm68 5h-1l8 1-1-1c-2-2-5-3-6 0Zm1031 37c6 2 5 3 0 8l6 9h11l-7-3 2-1 8 4 13 1-23-31-10 13Zm-758-20h2l-6-8-26-1 6 8 24 1c-1 0 0 0 0 0Zm-25-7c6-1 11 1 14 5l-14-5Zm360 21 6 8 27 2-6-8-27-2Zm-6 0-27-2 6 8 27 2-6-8Zm-33-3-27-1 6 8 27 2-6-9Zm173 11 6 9 26 1-6-8-26-2Zm-150 34-2-1h3l7-11-11-1 3 3-2 1-6-4-10-1-4 6c2 0 3 1 4 3h-6l-2 3 16 19 10-17Zm-23-2c5 0 12-2 11 5l-11-5Zm106-36 6 8 26 2-6-8-26-2Zm-7 0-26-2 6 8 26 2-6-8Zm67 4-20-1-7-1 6 9h1l26 1-6-8Zm-426-27 6 8 26 2-5-8-27-2Zm33 2 6 8 26 2-5-8-27-2Zm-66-4 6 8 26 2-6-8-26-2Zm126 8-26-2 5 9 27 1-6-8Zm133 8-27-1 6 8 27 2-6-9Zm-100-6-26-2 6 9 26 1-6-8Zm7 0 6 9 26 1-6-8-26-2Zm60 4-21-1h-6l6 8 27 2-6-9Z" fill="#F6F4F4"/>
  </g>
  <defs>
    <clipPath id="a">
      <path fill="#fff" transform="rotate(17 70 455)" d="M0 0h1364v466H0z"/>
    </clipPath>
  </defs>
</svg>
